<svg width="198" height="40" viewBox="0 0 198 40" fill="none" xmlns="http://www.w3.org/2000/svg">
<mask id="mask0_2013_857" style="mask-type:luminance" maskUnits="userSpaceOnUse" x="0" y="0" width="198" height="40">
<path d="M197.714 0H0V40H197.714V0Z" fill="white"/>
</mask>
<g mask="url(#mask0_2013_857)">
<path d="M13.8799 4.93304H12.9282C12.6255 4.93304 12.433 5.13191 12.433 5.43573V12.2193C12.433 12.5176 12.3614 12.7386 12.2238 12.8767C12.1083 12.9982 11.8883 13.0645 11.5746 13.0701H4.57057C3.83879 13.0701 3.23358 12.8159 2.72189 12.2911C2.1937 11.7719 1.94061 11.1531 1.94061 10.4185C1.94061 9.91026 2.07815 9.42413 2.34775 8.98221C2.61735 8.5458 2.98599 8.20331 3.44266 7.96578L3.8333 7.76138C3.95985 7.71166 4.05887 7.61223 4.09739 7.49622C4.1249 7.43546 4.14141 7.36917 4.14141 7.30287C4.14141 7.2145 4.1139 7.13163 4.07539 7.07639L3.65173 6.23672C3.5637 6.07653 3.44266 6.01024 3.34362 5.98262C3.22807 5.955 3.11804 5.96052 2.97499 6.02128L2.55133 6.2312C1.78655 6.62894 1.15932 7.2145 0.691656 7.9713C0.23499 8.73362 0.00390625 9.55671 0.00390625 10.424C0.00390625 11.6945 0.45507 12.7938 1.34639 13.6832C2.23772 14.5781 3.32711 15.0311 4.58157 15.0311H11.5911C12.4219 15.0311 13.1042 14.777 13.6213 14.2743C14.1276 13.7661 14.3861 13.0755 14.3861 12.2248V5.44126C14.3861 5.13191 14.1935 4.93856 13.8854 4.93856" fill="#121212"/>
<path d="M6.32029 4.76659H7.31064C7.61875 4.76659 7.81133 4.56772 7.81133 4.25284V3.18117C7.81133 2.86629 7.61875 2.66742 7.31064 2.66742H6.32029C6.00667 2.66742 5.80859 2.86629 5.80859 3.18117V4.25284C5.80859 4.56772 6.00667 4.76659 6.32029 4.76659Z" fill="#121212"/>
<path d="M8.98897 4.76659H9.97932C10.2874 4.76659 10.48 4.56772 10.48 4.25284V3.18117C10.48 2.86629 10.2874 2.66742 9.97932 2.66742H8.98897C8.68085 2.66742 8.48828 2.86629 8.48828 3.18117V4.25284C8.48828 4.56772 8.68085 4.76659 8.98897 4.76659Z" fill="#121212"/>
<path d="M26.1413 3.0279H27.1316C27.4452 3.0279 27.6434 2.83456 27.6434 2.52522V1.33754C27.6434 1.02818 27.4452 0.834839 27.1316 0.834839H26.1413C25.8332 0.834839 25.6406 1.02818 25.6406 1.33754V2.52522C25.6406 2.83456 25.8332 3.0279 26.1413 3.0279Z" fill="#121212"/>
<path d="M28.8242 3.0279H29.8036C30.1227 3.0279 30.3152 2.83456 30.3152 2.52522V1.33754C30.3152 1.02818 30.1172 0.834839 29.8036 0.834839H28.8242C28.5051 0.834839 28.3125 1.02818 28.3125 1.33754V2.52522C28.3125 2.83456 28.5106 3.0279 28.8242 3.0279Z" fill="#121212"/>
<path d="M40.8738 18.1624V16.9802C40.8738 16.6654 40.6758 16.4665 40.3622 16.4665H39.3828C39.0692 16.4665 38.8711 16.6654 38.8711 16.9802V18.1624C38.8711 18.4718 39.0692 18.6652 39.3828 18.6652H40.3622C40.6758 18.6652 40.8738 18.4718 40.8738 18.1624Z" fill="#121212"/>
<path d="M37.6902 18.6652C38.0038 18.6652 38.2018 18.4718 38.2018 18.1624V16.9802C38.2018 16.6654 38.0038 16.4665 37.6902 16.4665H36.6998C36.3917 16.4665 36.1992 16.6654 36.1992 16.9802V18.1624C36.1992 18.4718 36.3917 18.6652 36.6998 18.6652H37.6902Z" fill="#121212"/>
<path d="M46.2265 16.3281H47.2058C47.4864 16.3281 47.7175 16.5601 47.7175 16.8418V18.013C47.7175 18.2948 47.4864 18.5268 47.2058 18.5268H46.2265C45.9459 18.5268 45.7148 18.2948 45.7148 18.013V16.8418C45.7148 16.5601 45.9459 16.3281 46.2265 16.3281Z" fill="#121212"/>
<path d="M71.0437 3.0279H72.0231C72.3367 3.0279 72.5347 2.83456 72.5347 2.52522V1.33754C72.5347 1.02818 72.3367 0.834839 72.0231 0.834839H71.0437C70.7355 0.834839 70.543 1.02818 70.543 1.33754V2.52522C70.543 2.83456 70.7355 3.0279 71.0437 3.0279Z" fill="#121212"/>
<path d="M68.3671 3.0279H69.363C69.6711 3.0279 69.8637 2.83456 69.8637 2.52522V1.33754C69.8637 1.02818 69.6711 0.834839 69.363 0.834839H68.3671C68.0535 0.834839 67.8555 1.02818 67.8555 1.33754V2.52522C67.8555 2.83456 68.0535 3.0279 68.3671 3.0279Z" fill="#121212"/>
<path d="M72.548 15.0311H75.0626C75.8933 15.0311 76.5756 14.7769 77.0927 14.2743C77.5989 13.7661 77.8575 13.0755 77.8575 12.2248V0.52479C77.8575 0.209915 77.665 0.011048 77.3568 0.011048H76.416C76.1079 0.011048 75.9154 0.209915 75.9154 0.52479V12.2359C75.9154 12.5397 75.8493 12.7607 75.7173 12.8933C75.6127 13.0038 75.4311 13.0645 75.1836 13.081H73.478L72.3005 13.0755C71.6567 13.0755 71.3927 12.943 71.2772 12.827C71.2111 12.7607 71.1781 12.6502 71.1781 12.4899V5.45229C71.1781 5.13742 70.9855 4.93855 70.6774 4.93855H69.7366C69.434 4.93855 69.2414 5.13742 69.2414 5.45229V12.2193C69.2414 12.5287 69.1754 12.7552 69.0323 12.8878C68.9112 13.0147 68.7022 13.081 68.4216 13.081H64.4932C64.0916 13.081 63.7999 12.9816 63.5909 12.7773C63.4533 12.6447 63.3872 12.4624 63.3872 12.2248V9.44069C63.3872 7.9768 62.9856 6.78359 62.1989 5.89974C61.412 5.00483 60.3502 4.55186 59.0407 4.55186C57.6376 4.55186 55.976 5.39152 54.1109 7.05428V0.502693C54.1109 0.193344 53.9183 0 53.6157 0H52.6749C52.3668 0 52.1742 0.193344 52.1742 0.502693V13.0755H48.8015C48.1192 13.0701 47.8772 12.9264 47.7891 12.8381C47.7231 12.7718 47.6901 12.6557 47.6901 12.4899V5.44123C47.6901 5.13189 47.492 4.93855 47.1784 4.93855H46.2485C45.9404 4.93855 45.7479 5.13189 45.7479 5.44123V12.2248C45.7479 12.5342 45.6819 12.7552 45.5608 12.8822C45.4287 13.0038 45.2142 13.0701 44.928 13.0755H41.5608C40.9116 13.0755 40.6475 12.943 40.5375 12.8325C40.4715 12.7662 40.4384 12.6557 40.4384 12.4899V5.45229C40.4384 5.13742 40.2404 4.93855 39.9268 4.93855H38.997C38.6888 4.93855 38.4963 5.13742 38.4963 5.45229V12.2193C38.4963 12.5342 38.4302 12.7607 38.2982 12.8878C38.1771 13.0147 37.968 13.081 37.6875 13.081H32.532V9.0319C32.532 7.80002 32.0919 6.73387 31.2171 5.86659C30.3478 4.99378 29.2804 4.54633 28.0534 4.54633C26.8266 4.54633 25.7591 4.98826 24.8898 5.86659C24.015 6.73387 23.5748 7.80002 23.5748 9.03743V10.551C23.5748 11.4791 23.8389 12.3298 24.3616 13.0866H20.0205C19.7399 13.0866 19.5309 13.0203 19.3988 12.8933C19.2723 12.7607 19.2117 12.5397 19.2117 12.2359V0.52479C19.2117 0.209915 19.0136 0.011048 18.7 0.011048H17.7702C17.4621 0.011048 17.2695 0.209915 17.2695 0.52479V12.2248C17.2695 13.081 17.5282 13.7715 18.0343 14.2743C18.535 14.7769 19.2172 15.0311 20.0535 15.0311H37.649C38.4302 15.0311 39.0685 14.8157 39.5802 14.3571C40.1028 14.7991 40.8346 15.0256 41.7644 15.0311H41.8084H44.9006C45.6983 15.0311 46.3476 14.7991 46.8318 14.3461C47.3544 14.7935 48.0862 15.02 49.016 15.0256H49.06H59.734C60.8674 15.0256 61.7587 14.6997 62.3914 14.0589C62.4244 14.0975 62.4574 14.1306 62.485 14.1638C63.0572 14.7328 63.8054 15.02 64.7077 15.0256H64.7407H68.3941C69.1808 15.0256 69.8301 14.7991 70.3198 14.3517C70.8424 14.788 71.5797 15.0145 72.5095 15.02H72.5536L72.548 15.0311ZM56.6198 7.43544C57.6047 6.81674 58.419 6.49634 59.0462 6.49634C60.0091 6.49634 60.6638 6.87751 61.0544 7.67297C61.302 8.17014 61.4286 8.76122 61.4286 9.43517V11.3742C61.4286 11.9817 61.2965 12.4182 61.0269 12.6833C60.7683 12.9485 60.3336 13.081 59.7285 13.081H54.1109V9.65613C54.7987 8.79989 55.6405 8.04862 56.6198 7.43544ZM28.0424 6.49634C28.7467 6.49634 29.3299 6.73941 29.8251 7.24209C30.3258 7.73926 30.5678 8.31929 30.5678 9.02638V13.0755H28.0424C27.3437 13.0755 26.7605 12.8325 26.2598 12.3298C25.7591 11.8271 25.5171 11.2415 25.5171 10.54V9.02638C25.5171 8.32481 25.7591 7.73926 26.2598 7.24209C26.7605 6.73941 27.3437 6.49634 28.0424 6.49634Z" fill="#121212"/>
<path d="M81.239 15.0312H82.1908C82.4935 15.0312 82.6861 14.8324 82.6861 14.5285V0.513862C82.6861 0.204512 82.4935 0.0111694 82.1908 0.0111694H81.239C80.9309 0.0111694 80.7383 0.204512 80.7383 0.513862V14.523C80.7383 14.8324 80.9309 15.0257 81.239 15.0257" fill="#121212"/>
<path d="M103.591 16.4665C103.282 16.4665 103.09 16.6654 103.09 16.9802V18.1624C103.09 18.4718 103.282 18.6652 103.591 18.6652H104.581C104.895 18.6652 105.093 18.4718 105.093 18.1624V16.9802C105.093 16.6654 104.895 16.4665 104.581 16.4665H103.591Z" fill="#121212"/>
<path d="M106.277 16.4665C105.964 16.4665 105.766 16.6654 105.766 16.9802V18.1624C105.766 18.4718 105.964 18.6652 106.277 18.6652H107.257C107.57 18.6652 107.768 18.4718 107.768 18.1624V16.9802C107.768 16.6654 107.57 16.4665 107.257 16.4665H106.277Z" fill="#121212"/>
<path d="M106.462 14.3519C106.985 14.7938 107.717 15.0203 108.647 15.0258H108.691H119.667C119.937 15.0258 120.168 14.932 120.354 14.7386C120.542 14.5452 120.641 14.3187 120.641 14.0481V9.02115C120.641 7.78928 120.201 6.71761 119.337 5.8448C118.462 4.97199 117.4 4.52454 116.174 4.52454C114.946 4.52454 113.879 4.96647 113.01 5.8448C112.146 6.71761 111.706 7.78928 111.706 9.02115V10.5237C111.706 11.4628 111.964 12.3191 112.476 13.0648H108.443C107.794 13.0648 107.53 12.9322 107.42 12.8217C107.354 12.7554 107.321 12.645 107.321 12.4792V5.44154C107.321 5.12667 107.122 4.9278 106.809 4.9278H105.879C105.571 4.9278 105.378 5.12667 105.378 5.44154V12.2086C105.378 12.5234 105.312 12.7499 105.18 12.877C105.059 13.004 104.85 13.0703 104.57 13.0703H101.081C100.674 13.0703 100.377 12.9708 100.174 12.7665C100.03 12.6228 99.9589 12.4406 99.9589 12.2086V8.40246C99.9589 7.33631 99.5792 6.4193 98.831 5.66803C98.0772 4.91675 97.1583 4.53559 96.1075 4.53559C94.8916 4.53559 93.9122 4.79522 93.197 5.30896L92.8283 5.57412C92.7127 5.65698 92.6357 5.77298 92.6138 5.90556V5.99947C92.6138 6.121 92.6523 6.23148 92.7127 6.28673L93.2519 7.05458C93.34 7.18163 93.4611 7.25345 93.604 7.26449H93.6646C93.7637 7.26449 93.8572 7.23688 93.9563 7.17611L94.3413 6.91095C94.721 6.64027 95.3207 6.50217 96.113 6.50217C96.6412 6.50217 97.0813 6.68447 97.461 7.0601C97.8406 7.44127 98.0277 7.88319 98.0277 8.41351V11.6395C98.0277 12.1534 97.9286 12.5124 97.7251 12.7113C97.4885 12.9599 97.0099 13.0814 96.3166 13.0814H92.0085C91.7004 13.0814 91.5078 13.2802 91.5078 13.5951V14.5287C91.5078 14.838 91.7004 15.0314 92.0085 15.0314H96.3166C97.494 15.0314 98.4074 14.7331 99.04 14.142C99.0455 14.1475 99.051 14.1586 99.0566 14.1641C99.6232 14.7275 100.377 15.0148 101.285 15.0258H101.334H104.526C105.307 15.0258 105.945 14.8104 106.457 14.3519M116.174 6.49664C116.878 6.49664 117.466 6.7397 117.961 7.23135C118.462 7.73404 118.704 8.3196 118.704 9.02668V13.0759H116.174C115.469 13.0759 114.886 12.8328 114.385 12.33C113.89 11.8274 113.653 11.2418 113.653 10.5348V9.0322C113.653 8.32512 113.895 7.73404 114.385 7.23688C114.886 6.7397 115.469 6.50217 116.174 6.50217" fill="#121212"/>
<path d="M116.956 3.0279H117.936C118.25 3.0279 118.448 2.83456 118.448 2.52522V1.33754C118.448 1.02818 118.25 0.834839 117.936 0.834839H116.956C116.643 0.834839 116.445 1.02818 116.445 1.33754V2.52522C116.445 2.83456 116.643 3.0279 116.956 3.0279Z" fill="#121212"/>
<path d="M114.289 3.0279H115.279C115.588 3.0279 115.78 2.83456 115.78 2.52522V1.33754C115.78 1.02818 115.588 0.834839 115.279 0.834839H114.289C113.975 0.834839 113.777 1.02818 113.777 1.33754V2.52522C113.777 2.83456 113.975 3.0279 114.289 3.0279Z" fill="#121212"/>
<path d="M131.251 3.0279H132.241C132.555 3.0279 132.753 2.83456 132.753 2.52522V1.33754C132.753 1.02818 132.555 0.834839 132.241 0.834839H131.251C130.943 0.834839 130.75 1.02818 130.75 1.33754V2.52522C130.75 2.83456 130.943 3.0279 131.251 3.0279Z" fill="#121212"/>
<path d="M145.848 13.0757H140.798C140.352 13.0757 140.006 12.8879 139.725 12.5066C139.467 12.1532 139.34 11.7333 139.34 11.2306V9.0265C139.34 8.31941 139.582 7.72834 140.071 7.23116C140.573 6.734 141.156 6.49647 141.854 6.49647C142.36 6.49647 142.828 6.63457 143.252 6.91077C143.67 7.17593 143.912 7.48528 143.989 7.85539L144.094 8.29732C144.138 8.55694 144.314 8.71162 144.556 8.71162C144.595 8.71162 144.638 8.71162 144.699 8.69505L145.623 8.47961C145.866 8.41884 146.014 8.25313 146.014 8.03216C146.014 7.98244 146.014 7.93825 145.997 7.88301L145.899 7.41899C145.711 6.59589 145.222 5.90538 144.452 5.3585C143.682 4.81161 142.812 4.5354 141.854 4.5354C140.632 4.5354 139.571 4.97733 138.696 5.85567C137.832 6.72848 137.392 7.80015 137.392 9.03202V11.2361C137.392 11.888 137.535 12.5066 137.816 13.0812H133.844C133.199 13.0812 132.931 12.9486 132.82 12.8382C132.754 12.7719 132.722 12.6614 132.722 12.4957V5.45793C132.722 5.14306 132.523 4.94419 132.21 4.94419H131.279C130.972 4.94419 130.779 5.14306 130.779 5.45793V12.2194C130.779 12.5343 130.712 12.7608 130.581 12.8879C130.46 13.0149 130.251 13.0812 129.97 13.0812H126.278C125.998 13.0812 125.789 13.0149 125.656 12.8879C125.53 12.7608 125.469 12.5343 125.469 12.2305V0.52491C125.469 0.204512 125.271 0.0111694 124.958 0.0111694H124.028C123.719 0.0111694 123.527 0.210037 123.527 0.52491V12.2249C123.527 13.0812 123.786 13.7717 124.292 14.2744C124.792 14.777 125.475 15.0312 126.311 15.0312H129.938C130.718 15.0312 131.357 14.8158 131.868 14.3573C132.391 14.7992 133.123 15.0257 134.053 15.0312H134.096H145.854C146.163 15.0312 146.355 14.8378 146.355 14.5285V13.5839C146.355 13.2745 146.163 13.0812 145.854 13.0812" fill="#121212"/>
<path d="M5.87614 26.3169L0 39.8509H1.07289C1.37 39.8509 1.63409 39.7737 1.87618 39.6135C2.11827 39.4587 2.29433 39.2433 2.40987 38.9782L3.33971 36.8237H10.2227L11.1636 38.9782C11.2846 39.2489 11.4607 39.4643 11.6973 39.6135C11.9338 39.7681 12.2034 39.8455 12.4951 39.8455H13.5679L7.69179 26.3169H5.87614ZM4.15951 34.9567L6.61341 29.3C6.65742 29.184 6.69593 29.0624 6.72344 28.9298C6.75095 28.7972 6.77296 28.6537 6.78397 28.4935C6.80047 28.8083 6.86099 29.0735 6.96002 29.2944L9.41392 34.9511H4.15951V34.9567Z" fill="#121212"/>
<path d="M23.4268 27.5654C23.0472 27.1842 22.596 26.8804 22.0843 26.6539C21.5727 26.4329 21.0224 26.3169 20.4392 26.3169H15.625V39.8455H17.4847V34.813H20.4392C21.0224 34.813 21.5727 34.7025 22.0843 34.4761C22.596 34.2551 23.0472 33.9513 23.4268 33.5646C23.8064 33.1834 24.109 32.7304 24.3346 32.2167C24.5547 31.703 24.6703 31.1505 24.6703 30.565C24.6703 29.9794 24.5602 29.4271 24.3346 28.9132C24.109 28.3995 23.8064 27.9466 23.4268 27.5654ZM22.618 31.4985C22.4969 31.7858 22.3264 32.0344 22.1117 32.2553C21.8972 32.4708 21.6441 32.642 21.3525 32.7635C21.0664 32.8851 20.7583 32.9458 20.4337 32.9458H17.4792V28.1896H20.4337C20.7583 28.1896 21.0664 28.2504 21.3525 28.3719C21.6386 28.4935 21.8917 28.6647 22.1117 28.8801C22.3264 29.0955 22.4969 29.3497 22.618 29.6425C22.7391 29.9297 22.7995 30.2391 22.7995 30.565C22.7995 30.891 22.7391 31.2113 22.618 31.493" fill="#121212"/>
<path d="M35.4893 27.5654C35.1097 27.1842 34.6585 26.8804 34.1468 26.6539C33.6352 26.4329 33.085 26.3169 32.5018 26.3169H27.6875V39.8455H29.5472V34.813H32.5018C33.085 34.813 33.6352 34.7025 34.1468 34.4761C34.6585 34.2551 35.1097 33.9513 35.4893 33.5646C35.869 33.1834 36.1716 32.7304 36.3971 32.2167C36.6172 31.703 36.7328 31.1505 36.7328 30.565C36.7328 29.9794 36.6227 29.4271 36.3971 28.9132C36.1716 28.3995 35.869 27.9466 35.4893 27.5654ZM34.686 31.4985C34.565 31.7858 34.3945 32.0344 34.1798 32.2553C33.9652 32.4708 33.7122 32.642 33.4205 32.7635C33.1345 32.8851 32.8264 32.9458 32.5018 32.9458H29.5472V28.1896H32.5018C32.8264 28.1896 33.1345 28.2504 33.4205 28.3719C33.7067 28.4935 33.9597 28.6647 34.1798 28.8801C34.3945 29.0955 34.565 29.3497 34.686 29.6425C34.807 29.9297 34.8676 30.2391 34.8676 30.565C34.8676 30.891 34.807 31.2113 34.686 31.493" fill="#121212"/>
<path d="M45.8055 32.8848C45.6184 32.7412 45.4204 32.6142 45.2112 32.5091C45.0022 32.4042 44.7932 32.3048 44.5841 32.2108C44.3695 32.117 44.1549 32.0342 43.9293 31.9568C43.7037 31.8794 43.4837 31.7966 43.2636 31.7082C42.8179 31.5591 42.4383 31.4154 42.1302 31.2828C41.8221 31.1503 41.569 31.0121 41.3709 30.863C41.1783 30.7138 41.0352 30.5481 40.9472 30.3603C40.8592 30.1724 40.8152 29.9404 40.8152 29.6698C40.8152 29.4378 40.8702 29.2224 40.9913 29.0234C41.1068 28.8246 41.2663 28.6534 41.4589 28.5097C41.6515 28.3662 41.8826 28.25 42.1467 28.1672C42.4053 28.0843 42.6859 28.0457 42.9775 28.0457C43.1975 28.0457 43.4341 28.1009 43.6818 28.2059C43.9348 28.3108 44.1824 28.4545 44.4245 28.6313C44.6556 28.7804 44.9197 28.8522 45.2168 28.8522C45.5635 28.8522 45.866 28.7362 46.1301 28.5097L46.6088 28.1506C46.4382 27.9408 46.2237 27.7254 45.9706 27.4878C45.7119 27.2558 45.4259 27.0403 45.1068 26.847C44.7877 26.6536 44.4466 26.4935 44.0834 26.3664C43.7203 26.2393 43.3516 26.1785 42.983 26.1785C42.4768 26.1785 41.9816 26.2559 41.4974 26.4161C41.0133 26.5707 40.5842 26.8027 40.21 27.1011C39.8358 27.3994 39.5332 27.764 39.3021 28.2003C39.071 28.6368 38.9611 29.1284 38.9611 29.6808C38.9611 30.283 39.0655 30.7912 39.2747 31.1944C39.4837 31.5977 39.7643 31.9457 40.1109 32.2219C40.4575 32.5036 40.8538 32.7412 41.2939 32.9345C41.734 33.1279 42.1907 33.3156 42.6528 33.5035C42.9664 33.6306 43.2856 33.7521 43.6047 33.8736C43.9293 33.9952 44.221 34.1387 44.4795 34.31C44.7381 34.4812 44.9527 34.6857 45.1123 34.9232C45.2773 35.1608 45.3543 35.4646 45.3543 35.8291C45.3543 36.1937 45.2663 36.5418 45.0957 36.8235C44.9252 37.1052 44.7051 37.3483 44.4355 37.5416C44.1659 37.735 43.8743 37.8786 43.5442 37.978C43.2196 38.0775 42.9005 38.1272 42.5924 38.1272C42.2182 38.1272 41.8826 38.072 41.591 37.9615C41.2994 37.851 41.0352 37.6963 40.7987 37.4919L40.6501 37.3704C40.3695 37.0721 40.0229 36.9284 39.6158 36.9284C39.3572 36.9284 39.1095 37.0002 38.873 37.1439L38.4219 37.3815C38.4604 37.4587 38.5099 37.5527 38.5703 37.6632C38.6309 37.7792 38.7079 37.9007 38.8014 38.0388C38.8895 38.1769 38.9996 38.3206 39.1261 38.4697C39.2526 38.6188 39.3957 38.7625 39.5607 38.906C40.375 39.6297 41.3874 39.9944 42.5979 39.9944C43.203 39.9944 43.7863 39.8894 44.3475 39.685C44.9031 39.4806 45.3983 39.1934 45.822 38.8232C46.2456 38.4531 46.5868 38.0167 46.8399 37.503C47.093 36.9947 47.214 36.4313 47.214 35.8126C47.214 34.5863 46.7409 33.6084 45.7946 32.8848" fill="#121212"/>
<path d="M64.6814 33.1161C64.6098 33.0553 64.5328 33.0001 64.4503 32.967C64.3678 32.9282 64.2798 32.8951 64.1971 32.873C64.1146 32.8454 64.0321 32.8288 63.9551 32.8233C63.878 32.8122 63.8231 32.8068 63.7791 32.8068C63.9826 32.7957 64.1752 32.7017 64.3623 32.5305C64.5494 32.3593 64.7144 32.1383 64.8575 31.8786C65.0004 31.6191 65.1215 31.3318 65.2096 31.0169C65.2976 30.7076 65.3416 30.4038 65.3416 30.1165C65.3416 29.5917 65.2426 29.1 65.0444 28.6416C64.8464 28.1775 64.5768 27.7743 64.2356 27.4318C63.8946 27.0893 63.4929 26.8186 63.0307 26.6198C62.5686 26.4209 62.079 26.3214 61.5562 26.3214H56.2578V39.8499H58.1175L62.0954 39.8389C62.6346 39.8389 63.1408 39.734 63.6084 39.5296C64.0761 39.3252 64.4888 39.0489 64.8409 38.7009C65.193 38.3529 65.4681 37.9386 65.6718 37.469C65.8753 36.9996 65.9743 36.4913 65.9743 35.95C65.9743 35.4086 65.8532 34.8617 65.6057 34.3756C65.3636 33.895 65.05 33.4751 64.6759 33.1161M58.1175 28.1886H61.5507C61.8148 28.1886 62.0624 28.2383 62.299 28.3377C62.5355 28.4372 62.7392 28.5753 62.9152 28.752C63.0913 28.9288 63.2288 29.1332 63.3279 29.3708C63.4268 29.6082 63.4764 29.8568 63.4764 30.1221C63.4764 30.3872 63.4268 30.6358 63.3279 30.8678C63.2288 31.0998 63.0913 31.3041 62.9152 31.4809C62.7392 31.6577 62.5355 31.7958 62.299 31.8952C62.0624 31.9946 61.8148 32.0444 61.5507 32.0444H58.1175V28.1831V28.1886ZM63.9551 36.7288C63.8505 36.9774 63.702 37.1928 63.5204 37.3752C63.3388 37.563 63.1243 37.7066 62.8822 37.817C62.6401 37.9221 62.376 37.9773 62.0899 37.9773H58.112V33.917H62.1009C62.376 33.917 62.6346 33.9724 62.8822 34.0773C63.1243 34.1822 63.3388 34.3313 63.5204 34.5137C63.702 34.696 63.845 34.9114 63.9551 35.1545C64.0596 35.4031 64.1146 35.6626 64.1146 35.9389C64.1146 36.2151 64.0596 36.4802 63.9551 36.7233" fill="#121212"/>
<path d="M77.9026 34.559C77.9026 35.0505 77.8091 35.5146 77.6275 35.9455C77.4404 36.3818 77.1874 36.7575 76.8683 37.0834C76.5436 37.4094 76.1695 37.6634 75.7348 37.8457C75.3002 38.0336 74.8435 38.1219 74.3539 38.1219C73.8642 38.1219 73.402 38.028 72.9729 37.8457C72.5382 37.6579 72.1641 37.4039 71.8394 37.0834C71.5148 36.7575 71.2617 36.3818 71.0802 35.9455C70.8931 35.509 70.8051 35.0505 70.8051 34.559V26.3169H68.9453V34.559C68.9453 35.0561 69.0114 35.5367 69.138 36.0007C69.2645 36.4647 69.446 36.9011 69.6827 37.3043C69.9193 37.7076 70.1998 38.0722 70.53 38.4036C70.8601 38.7351 71.2287 39.0169 71.6303 39.2544C72.0319 39.4919 72.4612 39.6743 72.9233 39.8012C73.3854 39.9283 73.8642 39.9946 74.3594 39.9946C74.8545 39.9946 75.3387 39.9283 75.8009 39.8012C76.263 39.6743 76.6922 39.4919 77.0938 39.2544C77.4955 39.0169 77.8586 38.7351 78.1942 38.4036C78.5244 38.0722 78.8105 37.7076 79.047 37.3043C79.2836 36.9011 79.4652 36.4703 79.5917 36.0063C79.7182 35.5422 79.7843 35.0616 79.7843 34.559V26.3169H77.9246V34.559H77.9026Z" fill="#121212"/>
<path d="M92.7699 36.8282C92.7314 36.4526 92.6268 36.1377 92.4618 35.8948L85.9253 26.8573C85.7933 26.675 85.6172 26.5424 85.3917 26.4541C85.1661 26.3656 84.902 26.3214 84.5994 26.3214H83.2734V39.8499H85.1331V28.4924C85.1496 28.5974 85.1716 28.7023 85.1992 28.7962C85.2266 28.8846 85.2541 28.973 85.2872 29.0559C85.3202 29.1388 85.3642 29.216 85.4137 29.2879L93.1165 39.8554H94.6296V26.327H92.7699V36.8338V36.8282Z" fill="#121212"/>
<path d="M100.922 29.5161C101.379 29.0576 101.907 28.6985 102.518 28.4334C103.123 28.1682 103.778 28.0357 104.471 28.0357C105.005 28.0357 105.511 28.1129 105.99 28.2731C106.468 28.4278 106.914 28.6488 107.332 28.936C107.569 29.1017 107.833 29.1791 108.114 29.1791C108.334 29.1791 108.526 29.1405 108.697 29.0631C108.867 28.9857 109.021 28.8753 109.164 28.7262L109.511 28.378C109.198 28.0356 108.851 27.7318 108.471 27.4555C108.092 27.1794 107.69 26.9529 107.261 26.7595C106.832 26.5718 106.386 26.4226 105.918 26.3176C105.451 26.2127 104.966 26.163 104.471 26.163C103.839 26.163 103.228 26.2458 102.645 26.4061C102.056 26.5718 101.511 26.8038 100.999 27.1021C100.488 27.4058 100.026 27.7649 99.6075 28.1848C99.1893 28.6046 98.8317 29.0686 98.5291 29.5824C98.2264 30.0961 97.9953 30.6486 97.8358 31.234C97.6708 31.8251 97.5938 32.4328 97.5938 33.0681C97.5938 34.0238 97.7754 34.9241 98.133 35.7583C98.496 36.5979 98.9858 37.3272 99.6075 37.9513C100.229 38.5755 100.961 39.0728 101.792 39.4319C102.628 39.7964 103.519 39.9731 104.471 39.9731C104.966 39.9731 105.451 39.9234 105.918 39.8185C106.386 39.7136 106.837 39.5699 107.261 39.3821C107.684 39.1943 108.092 38.9623 108.471 38.686C108.851 38.4098 109.198 38.106 109.511 37.7635L109.164 37.4155C109.021 37.2719 108.867 37.1614 108.697 37.0841C108.532 37.0067 108.334 36.9681 108.108 36.9681C107.822 36.9681 107.558 37.0454 107.327 37.2056C106.914 37.4873 106.468 37.7083 105.99 37.8684C105.511 38.0232 105.005 38.1061 104.466 38.1061C103.772 38.1061 103.118 37.9735 102.512 37.7083C101.907 37.4432 101.374 37.0841 100.917 36.6256C100.46 36.1671 100.103 35.6368 99.8386 35.0237C99.5744 34.4104 99.4424 33.7586 99.4424 33.057C99.4424 32.3554 99.5744 31.7036 99.8386 31.096C100.103 30.4883 100.46 29.9524 100.917 29.4939" fill="#121212"/>
<path d="M121.532 32.1062H114.275V26.3169H112.41V39.8509H114.275V33.9734H121.532V39.8509H123.393V26.3169H121.532V32.1062Z" fill="#121212"/>
<path d="M127.156 39.8509H135.485V37.9783H129.016V33.9568H134.253V32.0896H129.016V28.1896H135.485V26.3169H127.156V39.8509Z" fill="#121212"/>
<path d="M144.885 32.8848C144.697 32.7412 144.5 32.6142 144.29 32.5091C144.081 32.4042 143.872 32.3048 143.658 32.2108C143.444 32.117 143.229 32.0342 143.004 31.9568C142.777 31.8794 142.558 31.7966 142.337 31.7082C141.892 31.5591 141.512 31.4154 141.204 31.2828C140.896 31.1503 140.642 31.0121 140.445 30.863C140.253 30.7138 140.109 30.5481 140.021 30.3603C139.933 30.1724 139.889 29.9404 139.889 29.6698C139.889 29.4378 139.944 29.2224 140.065 29.0234C140.181 28.8246 140.341 28.6534 140.533 28.5097C140.726 28.3662 140.957 28.25 141.221 28.1672C141.479 28.0843 141.76 28.0457 142.052 28.0457C142.271 28.0457 142.508 28.1009 142.756 28.2059C143.008 28.3108 143.256 28.4545 143.498 28.6313C143.729 28.7804 143.993 28.8522 144.29 28.8522C144.638 28.8522 144.94 28.7362 145.204 28.5097L145.682 28.1506C145.512 27.9408 145.297 27.7254 145.045 27.4878C144.785 27.2558 144.5 27.0403 144.181 26.847C143.862 26.6536 143.52 26.4935 143.157 26.3664C142.794 26.2393 142.425 26.1785 142.057 26.1785C141.551 26.1785 141.055 26.2559 140.572 26.4161C140.087 26.5707 139.658 26.8027 139.284 27.1011C138.91 27.3994 138.607 27.764 138.376 28.2003C138.145 28.6368 138.034 29.1284 138.034 29.6808C138.034 30.283 138.14 30.7912 138.349 31.1944C138.558 31.5977 138.838 31.9457 139.185 32.2219C139.532 32.5036 139.928 32.7412 140.368 32.9345C140.808 33.1279 141.264 33.3156 141.727 33.5035C142.04 33.6306 142.359 33.7521 142.679 33.8736C143.004 33.9952 143.295 34.1387 143.553 34.31C143.812 34.4812 144.026 34.6857 144.186 34.9232C144.351 35.1608 144.429 35.4646 144.429 35.8291C144.429 36.1937 144.341 36.5418 144.169 36.8235C143.999 37.1052 143.778 37.3483 143.51 37.5416C143.24 37.735 142.949 37.8786 142.618 37.978C142.294 38.0775 141.974 38.1272 141.666 38.1272C141.292 38.1272 140.957 38.072 140.665 37.9615C140.373 37.851 140.109 37.6963 139.872 37.4919L139.724 37.3704C139.444 37.0721 139.097 36.9284 138.689 36.9284C138.431 36.9284 138.183 37.0002 137.946 37.1439L137.496 37.3815C137.534 37.4587 137.584 37.5527 137.645 37.6632C137.705 37.7792 137.782 37.9007 137.876 38.0388C137.964 38.1769 138.073 38.3206 138.2 38.4697C138.327 38.6188 138.47 38.7625 138.634 38.906C139.449 39.6297 140.461 39.9944 141.672 39.9944C142.277 39.9944 142.861 39.8894 143.422 39.685C143.977 39.4806 144.472 39.1934 144.896 38.8232C145.319 38.4531 145.661 38.0167 145.913 37.503C146.167 36.9947 146.288 36.4313 146.288 35.8126C146.288 34.5863 145.815 33.6084 144.869 32.8848" fill="#121212"/>
<path d="M196.564 12.7883L184.994 1.16006C184.257 0.419832 183.256 0 182.21 0H161.809C159.635 0 157.875 1.76771 157.875 3.94973V24.4166C157.875 25.4661 158.288 26.4714 159.025 27.2117L170.606 38.8399C171.344 39.5801 172.345 39.9945 173.39 39.9945H193.776C195.948 39.9945 197.709 38.2267 197.709 36.0448V15.5779C197.709 14.5339 197.297 13.5286 196.56 12.7883M188.048 30.3439C188.048 31.7912 186.881 32.9623 185.44 32.9623H180.73C179.734 32.9623 178.826 32.3989 178.376 31.5095L177.776 30.3218C177.776 30.3218 182.061 30.3218 184.296 30.3218C185.021 30.3218 185.604 29.7307 185.604 29.0071V20.1575C185.604 19.4282 185.016 18.8371 184.296 18.8371H177.797L177.225 19.9807C176.769 20.8921 175.844 21.4722 174.826 21.4722H168.857C168.13 21.4722 167.547 20.8811 167.547 20.1519V9.82185C167.547 9.09266 168.136 8.50711 168.857 8.50711H174.826C175.838 8.50711 176.769 9.08162 177.225 9.9931L177.797 11.1421H171.299C170.573 11.1421 169.985 11.7331 169.985 12.4624V17.5224C169.985 18.2517 170.573 18.8371 171.299 18.8371H177.792L178.364 17.6881C178.82 16.7767 179.745 16.2022 180.763 16.2022H185.44C186.881 16.2022 188.048 17.3733 188.048 18.8206V30.3494V30.3439Z" fill="#6F008A"/>
</g>
</svg>
