<svg width="15" height="10" viewBox="0 0 10 10" xmlns="http://www.w3.org/2000/svg" fill="#7462F4">
    <path d="M10.0002 3.83507C9.96866 3.74362 9.91122 3.66329 9.8349 3.60382C9.75857 3.54436 9.66663 3.50832 9.57023 3.50007L6.72523 3.08507L5.45023 0.500073C5.40929 0.415537 5.34536 0.344244 5.26578 0.294359C5.18619 0.244475 5.09416 0.218018 5.00023 0.218018C4.9063 0.218018 4.81428 0.244475 4.73469 0.294359C4.6551 0.344244 4.59118 0.415537 4.55023 0.500073L3.27523 3.08007L0.430233 3.50007C0.337694 3.51323 0.250695 3.55205 0.179108 3.61215C0.107521 3.67225 0.0542128 3.75121 0.0252329 3.84007C-0.00129466 3.92691 -0.00367518 4.01933 0.0183467 4.10742C0.0403687 4.19551 0.0859617 4.27594 0.150233 4.34007L2.21523 6.34007L1.71523 9.18007C1.69738 9.27381 1.70673 9.3707 1.74217 9.4593C1.77761 9.5479 1.83766 9.6245 1.91523 9.68007C1.99084 9.73413 2.08002 9.76603 2.17276 9.77222C2.26549 9.7784 2.35812 9.75861 2.44023 9.71507L5.00023 8.38007L7.55023 9.72007C7.62041 9.75966 7.69966 9.78034 7.78023 9.78007C7.88615 9.78045 7.98944 9.74718 8.07523 9.68507C8.15281 9.6295 8.21286 9.5529 8.2483 9.4643C8.28374 9.3757 8.29308 9.27881 8.27523 9.18507L7.77523 6.34507L9.84023 4.34507C9.91242 4.28391 9.96578 4.20352 9.9941 4.11325C10.0224 4.02297 10.0245 3.92651 10.0002 3.83507ZM6.92523 5.83507C6.86659 5.89179 6.82272 5.96199 6.79745 6.03956C6.77218 6.11713 6.76626 6.1997 6.78023 6.28007L7.14023 8.37507L5.26023 7.37507C5.18789 7.33655 5.10719 7.31641 5.02523 7.31641C4.94327 7.31641 4.86257 7.33655 4.79023 7.37507L2.91023 8.37507L3.27023 6.28007C3.2842 6.1997 3.27829 6.11713 3.25302 6.03956C3.22774 5.96199 3.18387 5.89179 3.12523 5.83507L1.62523 4.33507L3.73023 4.03007C3.81123 4.01881 3.88823 3.98784 3.95448 3.9399C4.02073 3.89195 4.07421 3.82849 4.11023 3.75507L5.00023 1.85007L5.94023 3.76007C5.97625 3.83349 6.02973 3.89695 6.09598 3.9449C6.16223 3.99284 6.23923 4.02381 6.32023 4.03507L8.42523 4.34007L6.92523 5.83507Z"></path>
</svg>