<svg width="15" height="10" viewBox="0 0 10 10" xmlns="http://www.w3.org/2000/svg" fill="#0DA072">
    <path d="M0.5 5.25V7.75C0.5 7.88261 0.552678 8.00979 0.646447 8.10355C0.740215 8.19732 0.867392 8.25 1 8.25H1.5C1.5 8.64782 1.65804 9.02936 1.93934 9.31066C2.22064 9.59196 2.60218 9.75 3 9.75C3.39782 9.75 3.77936 9.59196 4.06066 9.31066C4.34196 9.02936 4.5 8.64782 4.5 8.25H7.5C7.5 8.64782 7.65804 9.02936 7.93934 9.31066C8.22064 9.59196 8.60218 9.75 9 9.75C9.39782 9.75 9.77936 9.59196 10.0607 9.31066C10.342 9.02936 10.5 8.64782 10.5 8.25H11C11.1326 8.25 11.2598 8.19732 11.3536 8.10355C11.4473 8.00979 11.5 7.88261 11.5 7.75V1.75C11.5 1.35218 11.342 0.970644 11.0607 0.68934C10.7794 0.408035 10.3978 0.25 10 0.25H5.5C5.10218 0.25 4.72064 0.408035 4.43934 0.68934C4.15804 0.970644 4 1.35218 4 1.75V2.75H3C2.76713 2.75 2.53746 2.80422 2.32918 2.90836C2.1209 3.0125 1.93972 3.16371 1.8 3.35L0.6 4.95C0.585376 4.97173 0.573612 4.99526 0.565 5.02L0.535 5.075C0.512933 5.13076 0.501078 5.19004 0.5 5.25ZM8.5 8.25C8.5 8.15111 8.52932 8.05444 8.58426 7.97221C8.63921 7.88999 8.7173 7.8259 8.80866 7.78806C8.90002 7.75022 9.00056 7.74031 9.09755 7.75961C9.19454 7.7789 9.28363 7.82652 9.35355 7.89645C9.42348 7.96637 9.4711 8.05546 9.49039 8.15245C9.50969 8.24944 9.49978 8.34998 9.46194 8.44134C9.4241 8.5327 9.36001 8.61079 9.27779 8.66574C9.19556 8.72068 9.09889 8.75 9 8.75C8.86739 8.75 8.74021 8.69732 8.64645 8.60355C8.55268 8.50979 8.5 8.38261 8.5 8.25ZM5 1.75C5 1.61739 5.05268 1.49021 5.14645 1.39645C5.24021 1.30268 5.36739 1.25 5.5 1.25H10C10.1326 1.25 10.2598 1.30268 10.3536 1.39645C10.4473 1.49021 10.5 1.61739 10.5 1.75V7.25H10.11C9.96941 7.09532 9.79804 6.97174 9.60689 6.88717C9.41574 6.8026 9.20902 6.75891 9 6.75891C8.79098 6.75891 8.58426 6.8026 8.39311 6.88717C8.20196 6.97174 8.03059 7.09532 7.89 7.25H5V1.75ZM4 4.75H2L2.6 3.95C2.64657 3.8879 2.70697 3.8375 2.77639 3.80279C2.84582 3.76807 2.92238 3.75 3 3.75H4V4.75ZM2.5 8.25C2.5 8.15111 2.52932 8.05444 2.58427 7.97221C2.63921 7.88999 2.7173 7.8259 2.80866 7.78806C2.90002 7.75022 3.00055 7.74031 3.09755 7.75961C3.19454 7.7789 3.28363 7.82652 3.35355 7.89645C3.42348 7.96637 3.4711 8.05546 3.49039 8.15245C3.50969 8.24944 3.49978 8.34998 3.46194 8.44134C3.4241 8.5327 3.36001 8.61079 3.27779 8.66574C3.19556 8.72068 3.09889 8.75 3 8.75C2.86739 8.75 2.74021 8.69732 2.64645 8.60355C2.55268 8.50979 2.5 8.38261 2.5 8.25ZM1.5 5.75H4V7.14C3.70492 6.87628 3.31757 6.73986 2.92235 6.76046C2.52713 6.78106 2.15606 6.95702 1.89 7.25H1.5V5.75Z"></path>
</svg>