<svg width="16" height="16" viewBox="0 0 16 16" fill="none" xmlns="http://www.w3.org/2000/svg">
<path d="M12.2428 10.3573L11.3002 9.41333L12.2428 8.47066C12.8634 7.8446 13.2108 6.99821 13.2088 6.11668C13.2069 5.23516 12.8559 4.39029 12.2325 3.76696C11.6092 3.14363 10.7643 2.79259 9.88281 2.79066C9.00129 2.78873 8.15489 3.13606 7.52884 3.75666L6.5855 4.69999L5.64284 3.75733L6.5855 2.81466C7.46072 1.93944 8.64776 1.44775 9.8855 1.44775C11.1232 1.44775 12.3103 1.93944 13.1855 2.81466C14.0607 3.68987 14.5524 4.87692 14.5524 6.11466C14.5524 7.3524 14.0607 8.53944 13.1855 9.41466L12.2428 10.3573ZM10.3568 12.2427L9.41417 13.1853C8.53896 14.0605 7.35191 14.5522 6.11417 14.5522C4.87643 14.5522 3.68938 14.0605 2.81417 13.1853C1.93896 12.3101 1.44727 11.1231 1.44727 9.88533C1.44727 8.64759 1.93896 7.46054 2.81417 6.58533L3.7575 5.64266L4.70017 6.58666L3.7575 7.52933C3.14542 8.15704 2.80528 9.00062 2.81077 9.87734C2.81627 10.7541 3.16695 11.5933 3.78685 12.2133C4.40676 12.8333 5.24597 13.1841 6.12269 13.1897C6.99941 13.1953 7.84304 12.8553 8.47084 12.2433L9.41417 11.3007L10.3568 12.2427ZM9.8855 5.17133L10.8288 6.11466L6.11417 10.828L5.1715 9.88533L9.8855 5.17133Z" fill="#1D9E50"/>
</svg>
