<svg width="16" height="16" viewBox="0 0 16 16" fill="none" xmlns="http://www.w3.org/2000/svg">
<path d="M14.166 5.00399V9.40866C14.1662 9.75578 14.098 10.0995 13.9652 10.4203C13.8325 10.741 13.6379 11.0325 13.3924 11.2779C13.147 11.5234 12.8556 11.7181 12.5349 11.8509C12.2142 11.9838 11.8705 12.0521 11.5234 12.052H9.76136L8.30803 13.5053C8.2684 13.5473 8.22061 13.5808 8.16759 13.6036C8.11457 13.6265 8.05744 13.6383 7.9997 13.6383C7.94196 13.6383 7.88483 13.6265 7.83181 13.6036C7.77879 13.5808 7.731 13.5473 7.69136 13.5053L6.23803 12.052H4.4747C4.1276 12.052 3.78391 11.9836 3.46324 11.8508C3.14257 11.7179 2.85122 11.5232 2.60581 11.2777C2.36041 11.0323 2.16577 10.7409 2.033 10.4202C1.90023 10.0995 1.83194 9.75576 1.83203 9.40866V5.00399C1.83203 4.30312 2.11045 3.63094 2.60605 3.13535C3.10165 2.63975 3.77382 2.36133 4.4747 2.36133H11.5227C12.2236 2.36133 12.8957 2.63975 13.3913 3.13535C13.8869 3.63094 14.166 4.30312 14.166 5.00399Z" stroke="#1D9E50" stroke-linecap="round" stroke-linejoin="round"/>
<path d="M8.00023 7.55865C8.05805 7.55865 8.11531 7.54726 8.16874 7.52513C8.22216 7.503 8.2707 7.47056 8.31159 7.42967C8.35248 7.38879 8.38492 7.34024 8.40704 7.28682C8.42917 7.2334 8.44056 7.17614 8.44056 7.11831C8.44056 7.06049 8.42917 7.00323 8.40704 6.9498C8.38492 6.89638 8.35248 6.84784 8.31159 6.80695C8.2707 6.76606 8.22216 6.73363 8.16874 6.7115C8.11531 6.68937 8.05805 6.67798 8.00023 6.67798C7.88345 6.67798 7.77145 6.72437 7.68887 6.80695C7.60629 6.88953 7.5599 7.00153 7.5599 7.11831C7.5599 7.2351 7.60629 7.3471 7.68887 7.42967C7.77145 7.51225 7.88345 7.55865 8.00023 7.55865ZM11.0836 7.55865C11.1414 7.55865 11.1986 7.54726 11.2521 7.52513C11.3055 7.503 11.354 7.47056 11.3949 7.42967C11.4358 7.38879 11.4682 7.34024 11.4904 7.28682C11.5125 7.2334 11.5239 7.17614 11.5239 7.11831C11.5239 7.06049 11.5125 7.00323 11.4904 6.9498C11.4682 6.89638 11.4358 6.84784 11.3949 6.80695C11.354 6.76606 11.3055 6.73363 11.2521 6.7115C11.1986 6.68937 11.1414 6.67798 11.0836 6.67798C10.9668 6.67798 10.8548 6.72437 10.7722 6.80695C10.6896 6.88953 10.6432 7.00153 10.6432 7.11831C10.6432 7.2351 10.6896 7.3471 10.7722 7.42967C10.8548 7.51225 10.9668 7.55865 11.0836 7.55865ZM4.9169 7.55865C4.97472 7.55865 5.03198 7.54726 5.0854 7.52513C5.13883 7.503 5.18737 7.47056 5.22826 7.42967C5.26915 7.38879 5.30158 7.34024 5.32371 7.28682C5.34584 7.2334 5.35723 7.17614 5.35723 7.11831C5.35723 7.06049 5.34584 7.00323 5.32371 6.9498C5.30158 6.89638 5.26915 6.84784 5.22826 6.80695C5.18737 6.76606 5.13883 6.73363 5.0854 6.7115C5.03198 6.68937 4.97472 6.67798 4.9169 6.67798C4.80011 6.67798 4.68811 6.72437 4.60553 6.80695C4.52295 6.88953 4.47656 7.00153 4.47656 7.11831C4.47656 7.2351 4.52295 7.3471 4.60553 7.42967C4.68811 7.51225 4.80011 7.55865 4.9169 7.55865Z" stroke="#1D9E50" stroke-linecap="round" stroke-linejoin="round"/>
</svg>
