<svg width="48" height="49" viewBox="0 0 48 49" fill="none" xmlns="http://www.w3.org/2000/svg">
<path d="M21.125 2.44856L6.34039 10.9845C4.56134 12.0116 3.46539 13.9098 3.46539 15.9641V33.0359C3.46539 35.0902 4.56134 36.9884 6.34039 38.0155L21.125 46.5514C22.9041 47.5786 25.0959 47.5786 26.875 46.5514L41.6596 38.0155C43.4387 36.9884 44.5346 35.0902 44.5346 33.0359V15.9641C44.5346 13.9098 43.4387 12.0116 41.6596 10.9845L26.875 2.44856C25.0959 1.42142 22.9041 1.42142 21.125 2.44856Z" fill="#1D9E50" stroke="white" stroke-width="0.5"/>
<path opacity="0.5" d="M22.8333 12.833H25.1666C27.3669 12.833 28.4659 12.833 29.1496 13.5167C29.8333 14.2003 29.8333 15.2993 29.8333 17.4997V22.1663H18.1666V17.4997C18.1666 15.2993 18.1666 14.2003 18.8503 13.5167C19.5339 12.833 20.6329 12.833 22.8333 12.833Z" fill="white"/>
<path fill-rule="evenodd" clip-rule="evenodd" d="M23.9999 36.1667C21.5246 36.1667 19.1506 35.1833 17.4003 33.433C15.6499 31.6827 14.6666 29.3087 14.6666 26.8333C14.6666 24.358 15.6499 21.984 17.4003 20.2337C19.1506 18.4833 21.5246 17.5 23.9999 17.5C26.4753 17.5 28.8492 18.4833 30.5996 20.2337C32.3499 21.984 33.3333 24.358 33.3333 26.8333C33.3333 29.3087 32.3499 31.6827 30.5996 33.433C28.8492 35.1833 26.4753 36.1667 23.9999 36.1667ZM23.9999 23.3333C24.3313 23.3333 24.5529 23.73 24.9963 24.5268L25.1106 24.7322C25.2366 24.9585 25.2996 25.0705 25.3976 25.1452C25.4968 25.2198 25.6193 25.2478 25.8643 25.3027L26.0859 25.354C26.9469 25.5488 27.3774 25.6457 27.4801 25.9747C27.5828 26.3048 27.2888 26.6478 26.7019 27.3338L26.5503 27.5112C26.3834 27.706 26.2994 27.8028 26.2621 27.9242C26.2248 28.0455 26.2376 28.175 26.2621 28.4352L26.2854 28.672C26.3741 29.5878 26.4184 30.0463 26.1513 30.2493C25.8829 30.4523 25.4793 30.2668 24.6731 29.8958L24.4654 29.8002C24.2356 29.6952 24.1213 29.6415 23.9999 29.6415C23.8786 29.6415 23.7643 29.6952 23.5344 29.8002L23.3268 29.8958C22.5206 30.268 22.1169 30.4523 21.8486 30.2493C21.5803 30.0463 21.6258 29.5878 21.7144 28.672L21.7378 28.4352C21.7623 28.175 21.7751 28.0455 21.7378 27.9242C21.7004 27.804 21.6164 27.706 21.4496 27.5112L21.2979 27.3338C20.7111 26.6478 20.4171 26.3048 20.5198 25.9747C20.6224 25.6457 21.0529 25.5488 21.9139 25.354L22.1356 25.3027C22.3806 25.2478 22.5031 25.221 22.6023 25.1452C22.7003 25.0705 22.7633 24.9585 22.8893 24.7322L23.0036 24.5268C23.4469 23.73 23.6686 23.3333 23.9999 23.3333Z" fill="white"/>
</svg>
