<svg width="85" height="85" viewBox="0 0 85 85" fill="none" xmlns="http://www.w3.org/2000/svg">
    <g clip-path="url(#clip0_972_11524)">
        <path d="M76.022 74.5193C71.0083 77.0185 64.4767 76.0219 60.4595 72.1428C57.7458 69.5209 56.2278 65.9025 53.6826 63.1273C48.9143 57.9297 40.4968 56.5498 34.3179 59.9382C27.0014 63.9637 22.5331 74.5396 13.5578 74.8872C8.5441 75.0866 3.71437 71.0081 3.0704 66.0406C2.42642 61.0576 6.0449 55.8906 10.9513 54.802C18.1723 53.1578 20.0423 49.753 13.0519 42.4748C9.47628 38.7896 7.07868 34.6721 10.8594 29.7029C14.3125 25.2401 21.9001 23.5852 28.3843 27.5563C39.1202 34.1591 30.0151 33.5198 38.6417 21.2702C46.7733 9.61172 55.8785 17.8214 61.5789 18.4643C66.9145 19.093 72.1736 15.7505 77.4786 16.6244C85.694 17.9824 88.9116 28.2413 82.9061 34.0421C79.0577 37.7678 72.9095 37.9825 68.6316 41.1716C65.1567 43.7686 65.6873 47.0497 69.0457 48.2552C90.3959 55.9203 84.1101 70.4505 76.022 74.5193ZM19.7998 9.11267C15.4537 9.18406 13.6778 14.0342 19.097 18.0368C25.0198 22.4115 29.4166 19.1551 29.3648 16.0629C29.3181 13.2843 25.1706 9.02452 19.7998 9.11267Z" fill="#ECEDEF"/>
        <path d="M62.6516 41.7449C59.687 37.7433 55.0059 35.0867 49.695 34.8496V38.9075C49.695 40.4906 47.8267 41.3328 46.6405 40.2845L35.1617 30.1396C34.3341 29.4081 34.3341 28.1172 35.1617 27.3857L46.6498 17.2319C47.836 16.1835 49.7043 17.0257 49.7043 18.6088V22.386C59.6015 22.8246 66.7437 31.4944 65.9667 40.8404C65.8268 42.5252 63.6578 43.1031 62.6516 41.7449Z" fill="white"/>
        <path d="M26.3497 43.2553C29.3142 47.2569 33.9954 49.9135 39.3062 50.1505V46.0926C39.3062 44.5095 41.1746 43.6673 42.3607 44.7157L53.8396 54.8606C54.6671 55.592 54.6671 56.883 53.8396 57.6144L42.3513 67.7683C41.1651 68.8167 39.2967 67.9745 39.2967 66.3913V62.6142C29.3996 62.1755 22.2574 53.5057 23.0344 44.1597C23.1745 42.4748 25.3435 41.8969 26.3497 43.2553Z" fill="#1D9E50"/>
        <path d="M48.9636 16.1767C47.9957 15.7414 46.8973 15.9048 46.1013 16.61L34.6132 26.7639C34.33 27.0142 34.1032 27.3218 33.9478 27.6664C33.7924 28.0109 33.7119 28.3845 33.7117 28.7625C33.7117 29.5265 34.0401 30.2553 34.6132 30.7618L46.0917 40.9067C46.8885 41.6095 47.9844 41.7762 48.9548 41.3392C49.9235 40.9022 50.5258 39.9704 50.5258 38.9074V35.7403C55.092 36.1866 59.2318 38.5227 61.9855 42.2392C62.6627 43.1529 63.8057 43.5353 64.8868 43.2253C65.9544 42.9213 66.7033 42.0122 66.7941 40.9097C67.1937 36.1112 65.5741 31.2584 62.3502 27.5961C59.2892 24.1181 55.1179 22.0113 50.5354 21.6092V18.6092C50.5354 17.5458 49.9331 16.6137 48.9636 16.1767ZM61.1043 28.6928C64.0306 32.0184 65.5019 36.4208 65.1396 40.7723C65.0885 41.3945 64.5851 41.5849 64.4327 41.6287C64.0995 41.7227 63.6327 41.6734 63.3198 41.251C60.0934 36.8971 55.1413 34.2618 49.7329 34.0202C49.7199 34.0199 49.7078 34.0194 49.6955 34.0194C49.5865 34.0194 49.4785 34.0408 49.3778 34.0825C49.2771 34.1242 49.1856 34.1853 49.1085 34.2624C49.0314 34.3395 48.9702 34.431 48.9285 34.5318C48.8868 34.6325 48.8654 34.7405 48.8654 34.8495V38.9074C48.8654 39.3151 48.6433 39.6585 48.2721 39.8258C47.8984 39.9936 47.4963 39.9316 47.1907 39.6624L35.7122 29.5179C35.6045 29.4238 35.5183 29.3076 35.4596 29.1772C35.4008 29.0469 35.3709 28.9054 35.3717 28.7624C35.3709 28.6195 35.4009 28.4782 35.4596 28.3481C35.5184 28.2179 35.6045 28.102 35.7122 28.0081L47.2003 17.8538C47.5059 17.5847 47.9095 17.5226 48.2817 17.6904C48.653 17.8578 48.8751 18.2011 48.8751 18.6088V22.3859C48.8751 22.5997 48.9576 22.8053 49.1054 22.9597C49.2533 23.1142 49.455 23.2057 49.6686 23.2151C54.1069 23.412 58.1681 25.3574 61.1043 28.6928ZM27.0168 42.7611C26.3423 41.8512 25.2009 41.4649 24.1155 41.775C23.0479 42.079 22.299 42.9881 22.2082 44.0906C21.8086 48.8891 23.4282 53.7419 26.6521 57.4042C29.7131 60.8822 33.8844 62.989 38.4669 63.3911V66.3911C38.4669 67.4543 39.0692 68.3865 40.0387 68.8234C41.0053 69.2585 42.103 69.0962 42.901 68.3901L54.3891 58.2363C54.6725 57.986 54.8994 57.6783 55.0548 57.3337C55.2102 56.9891 55.2905 56.6153 55.2905 56.2373C55.2905 55.8592 55.2102 55.4855 55.0548 55.1409C54.8994 54.7962 54.6725 54.4886 54.3891 54.2383L42.9106 44.0941C42.1138 43.3888 41.0171 43.2246 40.0484 43.6604C39.0788 44.0974 38.4765 45.0296 38.4765 46.0927V49.2598C33.9103 48.8136 29.7705 46.4774 27.0168 42.7611ZM39.2692 50.9801C39.5156 50.9899 39.7167 50.9072 39.8805 50.7506C40.0444 50.5941 40.1367 50.3773 40.1367 50.1508V46.0927C40.1367 45.685 40.3588 45.3417 40.73 45.1743C41.1037 45.0057 41.505 45.0672 41.8114 45.338L53.2899 55.4822C53.3976 55.5763 53.4838 55.6925 53.5425 55.8229C53.6013 55.9533 53.6313 56.0948 53.6304 56.2378C53.6313 56.3807 53.6013 56.522 53.5425 56.6523C53.4838 56.7825 53.3976 56.8986 53.2899 56.9925L41.8018 67.1463C41.497 67.4159 41.0949 67.4787 40.7204 67.3097C40.3492 67.1423 40.1271 66.799 40.1271 66.3913V62.6143C40.127 62.4004 40.0445 62.1949 39.8967 62.0404C39.7489 61.8859 39.5471 61.7944 39.3335 61.785C34.8954 61.5885 30.8342 59.6429 27.898 56.3077C24.9717 52.982 23.5004 48.5796 23.8627 44.2282C23.9138 43.606 24.4172 43.4156 24.5696 43.3717C24.966 43.2592 25.4038 43.3732 25.6825 43.7494C28.9087 48.1032 33.8608 50.7385 39.2692 50.9801Z" fill="#1D9E50"/>
    </g>
    <defs>
        <clipPath id="clip0_972_11524">
            <rect width="85" height="85" fill="white"/>
        </clipPath>
    </defs>
</svg>
