<svg width="24" height="24" viewBox="0 0 24 24" fill="none" xmlns="http://www.w3.org/2000/svg">
<path fill-rule="evenodd" clip-rule="evenodd" d="M12.4222 2.64063C13.4456 2.625 14.4612 2.6328 15.4768 2.625C15.5393 3.82031 15.969 5.03904 16.8439 5.88277C17.7188 6.74995 18.9532 7.14839 20.1562 7.28119V10.4296C19.0313 10.3905 17.8985 10.1561 16.8751 9.67179C16.4298 9.46866 16.0158 9.21084 15.6096 8.94523C15.6018 11.2264 15.6174 13.5077 15.594 15.7811C15.5314 16.8748 15.1721 17.9608 14.5393 18.8592C13.5159 20.3592 11.7426 21.3357 9.92231 21.367C8.80519 21.4294 7.68804 21.1248 6.73495 20.5623C5.15691 19.6326 4.04756 17.9295 3.88352 16.1014C3.86789 15.7108 3.86009 15.3202 3.87569 14.9374C4.01632 13.453 4.75066 12.0311 5.89125 11.0624C7.18805 9.93741 9.00047 9.39834 10.6957 9.71866C10.7113 10.8749 10.6645 12.0311 10.6645 13.1874C9.89105 12.9374 8.98486 13.0077 8.30519 13.4764C7.81303 13.7967 7.43805 14.2889 7.24275 14.8436C7.07869 15.242 7.12556 15.6795 7.13337 16.1014C7.32087 17.3826 8.55518 18.4607 9.86763 18.3435C10.7426 18.3357 11.5785 17.8279 12.0316 17.0858C12.18 16.8279 12.3441 16.5623 12.3519 16.2576C12.43 14.8592 12.3988 13.4686 12.4066 12.0702C12.4144 8.92179 12.3988 5.78121 12.4222 2.64063Z" fill="#1D9E50"/>
</svg>
