<svg width="11" height="12" viewBox="0 0 11 12" fill="none" xmlns="http://www.w3.org/2000/svg">
<path fill-rule="evenodd" clip-rule="evenodd" d="M10.3334 4.95312H1.42139C1.21439 4.95312 1.04639 4.78513 1.04639 4.57812C1.04639 4.37112 1.21439 4.20312 1.42139 4.20312H10.3334C10.5404 4.20312 10.7084 4.37112 10.7084 4.57812C10.7084 4.78513 10.5404 4.95312 10.3334 4.95312Z" fill="#707070"/>
<path d="M10.3334 4.95312H1.42139C1.21439 4.95312 1.04639 4.78513 1.04639 4.57812C1.04639 4.37112 1.21439 4.20312 1.42139 4.20312H10.3334C10.5404 4.20312 10.7084 4.37112 10.7084 4.57812C10.7084 4.78513 10.5404 4.95312 10.3334 4.95312" stroke="#707070" stroke-width="0.3"/>
<path fill-rule="evenodd" clip-rule="evenodd" d="M8.10063 6.90625C7.89363 6.90625 7.72363 6.73825 7.72363 6.53125C7.72363 6.32425 7.88913 6.15625 8.09613 6.15625H8.10063C8.30763 6.15625 8.47563 6.32425 8.47563 6.53125C8.47563 6.73825 8.30763 6.90625 8.10063 6.90625Z" fill="#707070"/>
<path d="M8.10063 6.90625C7.89363 6.90625 7.72363 6.73825 7.72363 6.53125C7.72363 6.32425 7.88913 6.15625 8.09613 6.15625H8.10063C8.30763 6.15625 8.47563 6.32425 8.47563 6.53125C8.47563 6.73825 8.30763 6.90625 8.10063 6.90625" stroke="#707070" stroke-width="0.3"/>
<path fill-rule="evenodd" clip-rule="evenodd" d="M5.88188 6.90625C5.67488 6.90625 5.50488 6.73825 5.50488 6.53125C5.50488 6.32425 5.67038 6.15625 5.87738 6.15625H5.88188C6.08888 6.15625 6.25688 6.32425 6.25688 6.53125C6.25688 6.73825 6.08888 6.90625 5.88188 6.90625Z" fill="#707070"/>
<path d="M5.88188 6.90625C5.67488 6.90625 5.50488 6.73825 5.50488 6.53125C5.50488 6.32425 5.67038 6.15625 5.87738 6.15625H5.88188C6.08888 6.15625 6.25688 6.32425 6.25688 6.53125C6.25688 6.73825 6.08888 6.90625 5.88188 6.90625" stroke="#707070" stroke-width="0.3"/>
<path fill-rule="evenodd" clip-rule="evenodd" d="M3.65826 6.90625C3.45126 6.90625 3.28076 6.73825 3.28076 6.53125C3.28076 6.32425 3.44676 6.15625 3.65376 6.15625H3.65826C3.86526 6.15625 4.03326 6.32425 4.03326 6.53125C4.03326 6.73825 3.86526 6.90625 3.65826 6.90625Z" fill="#707070"/>
<path d="M3.65826 6.90625C3.45126 6.90625 3.28076 6.73825 3.28076 6.53125C3.28076 6.32425 3.44676 6.15625 3.65376 6.15625H3.65826C3.86526 6.15625 4.03326 6.32425 4.03326 6.53125C4.03326 6.73825 3.86526 6.90625 3.65826 6.90625" stroke="#707070" stroke-width="0.3"/>
<path fill-rule="evenodd" clip-rule="evenodd" d="M8.10063 8.84766C7.89363 8.84766 7.72363 8.67966 7.72363 8.47266C7.72363 8.26566 7.88913 8.09766 8.09613 8.09766H8.10063C8.30763 8.09766 8.47563 8.26566 8.47563 8.47266C8.47563 8.67966 8.30763 8.84766 8.10063 8.84766Z" fill="#707070"/>
<path d="M8.10063 8.84766C7.89363 8.84766 7.72363 8.67966 7.72363 8.47266C7.72363 8.26566 7.88913 8.09766 8.09613 8.09766H8.10063C8.30763 8.09766 8.47563 8.26566 8.47563 8.47266C8.47563 8.67966 8.30763 8.84766 8.10063 8.84766" stroke="#707070" stroke-width="0.3"/>
<path fill-rule="evenodd" clip-rule="evenodd" d="M5.88188 8.84766C5.67488 8.84766 5.50488 8.67966 5.50488 8.47266C5.50488 8.26566 5.67038 8.09766 5.87738 8.09766H5.88188C6.08888 8.09766 6.25688 8.26566 6.25688 8.47266C6.25688 8.67966 6.08888 8.84766 5.88188 8.84766Z" fill="#707070"/>
<path d="M5.88188 8.84766C5.67488 8.84766 5.50488 8.67966 5.50488 8.47266C5.50488 8.26566 5.67038 8.09766 5.87738 8.09766H5.88188C6.08888 8.09766 6.25688 8.26566 6.25688 8.47266C6.25688 8.67966 6.08888 8.84766 5.88188 8.84766" stroke="#707070" stroke-width="0.3"/>
<path fill-rule="evenodd" clip-rule="evenodd" d="M3.65826 8.84766C3.45126 8.84766 3.28076 8.67966 3.28076 8.47266C3.28076 8.26566 3.44676 8.09766 3.65376 8.09766H3.65826C3.86526 8.09766 4.03326 8.26566 4.03326 8.47266C4.03326 8.67966 3.86526 8.84766 3.65826 8.84766Z" fill="#707070"/>
<path d="M3.65826 8.84766C3.45126 8.84766 3.28076 8.67966 3.28076 8.47266C3.28076 8.26566 3.44676 8.09766 3.65376 8.09766H3.65826C3.86526 8.09766 4.03326 8.26566 4.03326 8.47266C4.03326 8.67966 3.86526 8.84766 3.65826 8.84766" stroke="#707070" stroke-width="0.3"/>
<path fill-rule="evenodd" clip-rule="evenodd" d="M7.89697 2.8955C7.68997 2.8955 7.52197 2.7275 7.52197 2.5205V0.875C7.52197 0.668 7.68997 0.5 7.89697 0.5C8.10397 0.5 8.27197 0.668 8.27197 0.875V2.5205C8.27197 2.7275 8.10397 2.8955 7.89697 2.8955Z" fill="#707070"/>
<path d="M7.89697 2.8955C7.68997 2.8955 7.52197 2.7275 7.52197 2.5205V0.875C7.52197 0.668 7.68997 0.5 7.89697 0.5C8.10397 0.5 8.27197 0.668 8.27197 0.875V2.5205C8.27197 2.7275 8.10397 2.8955 7.89697 2.8955" stroke="#707070" stroke-width="0.3"/>
<path fill-rule="evenodd" clip-rule="evenodd" d="M3.85742 2.8955C3.65042 2.8955 3.48242 2.7275 3.48242 2.5205V0.875C3.48242 0.668 3.65042 0.5 3.85742 0.5C4.06442 0.5 4.23242 0.668 4.23242 0.875V2.5205C4.23242 2.7275 4.06442 2.8955 3.85742 2.8955Z" fill="#707070"/>
<path d="M3.85742 2.8955C3.65042 2.8955 3.48242 2.7275 3.48242 2.5205V0.875C3.48242 0.668 3.65042 0.5 3.85742 0.5C4.06442 0.5 4.23242 0.668 4.23242 0.875V2.5205C4.23242 2.7275 4.06442 2.8955 3.85742 2.8955" stroke="#707070" stroke-width="0.3"/>
<mask id="mask0_1196_4217" style="mask-type:alpha" maskUnits="userSpaceOnUse" x="0" y="1" width="11" height="11">
<path fill-rule="evenodd" clip-rule="evenodd" d="M1 1.28906H10.75V11.2495H1V1.28906Z" fill="white" stroke="white" stroke-width="0.3"/>
</mask>
<g mask="url(#mask0_1196_4217)">
<path fill-rule="evenodd" clip-rule="evenodd" d="M3.7605 2.03906C2.464 2.03906 1.75 2.73056 1.75 3.98606V8.51056C1.75 9.79356 2.464 10.4996 3.7605 10.4996H7.9895C9.286 10.4996 10 9.80656 10 8.54856V3.98606C10.002 3.36856 9.836 2.88856 9.5065 2.55856C9.1675 2.21856 8.645 2.03906 7.994 2.03906H3.7605ZM7.9895 11.2496H3.7605C2.058 11.2496 1 10.2001 1 8.51056V3.98606C1 2.32206 2.058 1.28906 3.7605 1.28906H7.994C8.8485 1.28906 9.555 1.54506 10.0375 2.02856C10.506 2.49906 10.7525 3.17556 10.75 3.98706V8.54856C10.75 10.2146 9.692 11.2496 7.9895 11.2496Z" fill="#707070"/>
<path d="M10 3.98606L9.85 3.98558V3.98606H10ZM9.5065 2.55856L9.40028 2.66447L9.40035 2.66455L9.5065 2.55856ZM10.0375 2.02856L10.1438 1.92272L10.1437 1.92261L10.0375 2.02856ZM10.75 3.98706L10.6 3.9866V3.98706H10.75ZM3.7605 1.88906C3.08671 1.88906 2.5416 2.06901 2.16471 2.434C1.78708 2.79971 1.6 3.33018 1.6 3.98606H1.9C1.9 3.38644 2.06992 2.94341 2.37341 2.6495C2.67765 2.35487 3.13779 2.18906 3.7605 2.18906V1.88906ZM1.6 3.98606V8.51056H1.9V3.98606H1.6ZM1.6 8.51056C1.6 9.17929 1.78654 9.71988 2.16358 10.0928C2.54036 10.4655 3.0859 10.6496 3.7605 10.6496V10.3496C3.1386 10.3496 2.67889 10.1806 2.37455 9.87955C2.07046 9.57875 1.9 9.12483 1.9 8.51056H1.6ZM3.7605 10.6496H7.9895V10.3496H3.7605V10.6496ZM7.9895 10.6496C8.66337 10.6496 9.20853 10.4692 9.5854 10.1035C9.96297 9.73704 10.15 9.20561 10.15 8.54856H9.85C9.85 9.14952 9.68003 9.59359 9.37647 9.88817C9.07222 10.1834 8.61213 10.3496 7.9895 10.3496V10.6496ZM10.15 8.54856V3.98606H9.85V8.54856H10.15ZM10.15 3.98655C10.1521 3.34253 9.97858 2.81906 9.61265 2.45258L9.40035 2.66455C9.69342 2.95806 9.85191 3.3946 9.85 3.98558L10.15 3.98655ZM9.61272 2.45265C9.23674 2.07556 8.6703 1.88906 7.994 1.88906V2.18906C8.6197 2.18906 9.09826 2.36156 9.40028 2.66447L9.61272 2.45265ZM7.994 1.88906H3.7605V2.18906H7.994V1.88906ZM7.9895 11.0996H3.7605V11.3996H7.9895V11.0996ZM3.7605 11.0996C2.94032 11.0996 2.29116 10.8474 1.84746 10.4071C1.40389 9.96706 1.15 9.32356 1.15 8.51056H0.85C0.85 9.38706 1.12511 10.1131 1.63617 10.6201C2.14709 11.127 2.87818 11.3996 3.7605 11.3996V11.0996ZM1.15 8.51056V3.98606H0.85V8.51056H1.15ZM1.15 3.98606C1.15 3.18649 1.40345 2.55377 1.84663 2.12086C2.29021 1.68756 2.93965 1.43906 3.7605 1.43906V1.13906C2.87885 1.13906 2.14804 1.40706 1.637 1.90626C1.12555 2.40585 0.85 3.12163 0.85 3.98606H1.15ZM3.7605 1.43906H7.994V1.13906H3.7605V1.43906ZM7.994 1.43906C8.81915 1.43906 9.48359 1.68586 9.93132 2.13452L10.1437 1.92261C9.62641 1.40427 8.87785 1.13906 7.994 1.13906V1.43906ZM9.93121 2.1344C10.3656 2.57069 10.6024 3.20561 10.6 3.9866L10.9 3.98752C10.9026 3.14552 10.6464 2.42743 10.1438 1.92272L9.93121 2.1344ZM10.6 3.98706V8.54856H10.9V3.98706H10.6ZM10.6 8.54856C10.6 9.34919 10.3465 9.98294 9.90329 10.4166C9.45969 10.8506 8.81027 11.0996 7.9895 11.0996V11.3996C8.87123 11.3996 9.60207 11.131 10.1131 10.631C10.6245 10.1307 10.9 9.41393 10.9 8.54856H10.6Z" fill="#707070"/>
</g>
</svg>
