<svg width="16" height="16" viewBox="0 0 16 16" fill="none" xmlns="http://www.w3.org/2000/svg">
<path d="M4.18182 2.5001C4.50745 2.5001 4.80036 2.6311 5 2.83859C5.17895 2.65257 5.42694 2.53415 5.6958 2.50632C5.96466 2.47849 6.2352 2.54323 6.45491 2.68798C6.67461 2.83274 6.8278 3.04716 6.88471 3.28963C6.94163 3.5321 6.89822 3.7853 6.76291 4.00007H7.45455C7.59921 4.00007 7.73795 4.05275 7.84024 4.14652C7.94253 4.24029 8 4.36746 8 4.50007V5.50005C8 5.63266 7.94253 5.75983 7.84024 5.8536C7.73795 5.94736 7.59921 6.00004 7.45455 6.00004V7.50002C7.45455 7.76523 7.33961 8.01958 7.13503 8.20711C6.93044 8.39464 6.65296 8.5 6.36364 8.5H3.63636C3.34704 8.5 3.06956 8.39464 2.86497 8.20711C2.66039 8.01958 2.54545 7.76523 2.54545 7.50002V6.00004C2.40079 6.00004 2.26205 5.94736 2.15976 5.8536C2.05747 5.75983 2 5.63266 2 5.50005V4.50007C2 4.36746 2.05747 4.24029 2.15976 4.14652C2.26205 4.05275 2.40079 4.00007 2.54545 4.00007H3.23709C3.14134 3.84806 3.09094 3.67562 3.09094 3.50009C3.09094 3.32456 3.14134 3.15212 3.23708 3.0001C3.33283 2.84809 3.47054 2.72185 3.63637 2.63408C3.80221 2.54631 3.99033 2.5001 4.18182 2.5001ZM3.63636 3.50008C3.63636 3.63269 3.69383 3.75986 3.79612 3.85363C3.89842 3.9474 4.03715 4.00007 4.18182 4.00007H4.72727V3.50008C4.72727 3.36748 4.66981 3.2403 4.56751 3.14654C4.46522 3.05277 4.32648 3.00009 4.18182 3.00009C4.03715 3.00009 3.89842 3.05277 3.79612 3.14654C3.69383 3.2403 3.63636 3.36748 3.63636 3.50008ZM5.27273 4.50007V5.50005H7.45455V4.50007H5.27273ZM4.72727 4.50007H2.54545V5.50005H4.72727V4.50007ZM3.09091 6.00004V7.50002C3.09091 7.63262 3.14838 7.7598 3.25067 7.85356C3.35296 7.94733 3.4917 8.00001 3.63636 8.00001H4.72727V6.00004H3.09091ZM5.27273 8.00001H6.36364C6.5083 8.00001 6.64704 7.94733 6.74933 7.85356C6.85162 7.7598 6.90909 7.63262 6.90909 7.50002V6.00004H5.27273V8.00001ZM6.36364 3.50008C6.36364 3.36748 6.30617 3.2403 6.20388 3.14654C6.10158 3.05277 5.96285 3.00009 5.81818 3.00009C5.67352 3.00009 5.53478 3.05277 5.43249 3.14654C5.33019 3.2403 5.27273 3.36748 5.27273 3.50008V4.00007H5.81818C5.96285 4.00007 6.10158 3.9474 6.20388 3.85363C6.30617 3.75986 6.36364 3.63269 6.36364 3.50008Z" fill="#1D9E50"/>
<path opacity="0.95" fill-rule="evenodd" clip-rule="evenodd" d="M7.93395 9.52598C8.62393 9.43941 9.26645 9.5692 9.8615 9.91538C9.8907 9.891 9.92318 9.87153 9.95885 9.85697C11.3606 9.8375 12.7625 9.831 14.1644 9.8375C14.1644 10.0452 14.1644 10.2529 14.1644 10.4605C12.9183 10.4605 11.6722 10.4605 10.4261 10.4605C10.4261 11.0836 10.4261 11.7066 10.4261 12.3297C11.6841 12.4344 12.9432 12.5253 14.2033 12.6023C14.1932 12.8231 14.1803 13.0438 14.1644 13.2643C12.8135 13.1835 11.4636 13.0862 10.1146 12.9722C10.0325 12.9582 9.95464 12.9322 9.88097 12.8943C9.85686 12.8259 9.81142 12.7805 9.74467 12.758C9.1059 12.9356 8.46338 13.0978 7.81713 13.2448C7.39649 13.2878 6.98112 13.2619 6.57104 13.1669C5.20812 12.7126 3.84521 12.2583 2.4823 11.804C2.00555 11.524 1.88227 11.1281 2.11237 10.6163C2.29363 10.4055 2.52077 10.2692 2.79382 10.2074C3.12921 10.1488 3.46671 10.1358 3.80627 10.1685C4.45346 10.3044 5.10248 10.4277 5.75329 10.5384C5.7571 10.1999 5.91287 9.95973 6.22057 9.81803C6.79572 9.71468 7.36682 9.61733 7.93395 9.52598ZM8.01183 10.188C8.66984 10.1 9.26041 10.2558 9.78362 10.6552C9.80959 11.1225 9.80959 11.5898 9.78362 12.0571C9.09422 12.2473 8.39979 12.4225 7.70031 12.5828C7.41219 12.6158 7.1266 12.6028 6.84362 12.5439C5.48071 12.0895 4.11779 11.6353 2.75488 11.1809C2.68234 11.1257 2.66287 11.0543 2.69647 10.9668C3.02443 10.8198 3.36843 10.7744 3.72839 10.8305C4.59026 10.9925 5.44694 11.1742 6.29845 11.3756C6.73957 11.3951 7.18092 11.4016 7.62243 11.3951C7.62243 11.1874 7.62243 10.9797 7.62243 10.7721C7.27173 10.7785 6.92127 10.7721 6.57104 10.7526C6.42735 10.7257 6.3819 10.6413 6.43474 10.4995C6.49281 10.4409 6.56418 10.4085 6.64892 10.4021C7.11067 10.3427 7.56495 10.2713 8.01183 10.188Z" fill="#1D9E50"/>
</svg>
