<svg width="32" height="37" viewBox="0 0 32 37" fill="none" xmlns="http://www.w3.org/2000/svg">
    <path
        d="M18.2857 1.31949C16.8713 0.50288 15.1286 0.50288 13.7142 1.31949L2.44978 7.82299C1.03538 8.6396 0.164062 10.1488 0.164062 11.782V24.7891C0.164062 26.4223 1.03538 27.9315 2.44978 28.7481L13.7142 35.2516C15.1286 36.0682 16.8713 36.0682 18.2857 35.2516L29.5501 28.7481C30.9645 27.9315 31.8358 26.4223 31.8358 24.7891V11.782C31.8358 10.1488 30.9645 8.6396 29.5501 7.82299L18.2857 1.31949Z"
        fill="#1D9E50" />
    <path
        d="M17.5239 2.4044C16.581 1.85999 15.4192 1.85999 14.4763 2.4044L3.0077 9.02581C2.06476 9.57019 1.48389 10.5763 1.48389 11.6651V24.9079C1.48389 25.9968 2.06476 27.0029 3.0077 27.5473L14.4763 34.1687C15.4192 34.713 16.581 34.713 17.5239 34.1687L28.9926 27.5473C29.9355 27.0029 30.5164 25.9968 30.5164 24.9079V11.6651C30.5164 10.5763 29.9355 9.57019 28.9926 9.02581L17.5239 2.4044Z"
        fill="url(#paint0_linear_1532_3047)" />
    <path opacity="0.5"
        d="M15.1112 9.39648H16.889C18.5654 9.39648 19.4027 9.39648 19.9237 9.9174C20.4446 10.4382 20.4446 11.2756 20.4446 12.9521V16.5076H11.5557V12.9521C11.5557 11.2756 11.5557 10.4382 12.0766 9.9174C12.5974 9.39648 13.4347 9.39648 15.1112 9.39648Z"
        fill="white" />
    <path fill-rule="evenodd" clip-rule="evenodd"
        d="M15.9998 27.1734C14.1138 27.1734 12.3051 26.4242 10.9715 25.0906C9.63785 23.757 8.88867 21.9483 8.88867 20.0623C8.88867 18.1763 9.63785 16.3676 10.9715 15.034C12.3051 13.7004 14.1138 12.9512 15.9998 12.9512C17.8858 12.9512 19.6945 13.7004 21.0281 15.034C22.3617 16.3676 23.1109 18.1763 23.1109 20.0623C23.1109 21.9483 22.3617 23.757 21.0281 25.0906C19.6945 26.4242 17.8858 27.1734 15.9998 27.1734ZM15.9998 17.3956C16.2523 17.3956 16.4211 17.6978 16.7589 18.3049L16.846 18.4614C16.942 18.6338 16.99 18.7192 17.0647 18.7761C17.1403 18.8329 17.2336 18.8543 17.4203 18.8961L17.5891 18.9352C18.2451 19.0836 18.5731 19.1574 18.6513 19.4081C18.7296 19.6596 18.5056 19.9209 18.0584 20.4436L17.9429 20.5788C17.8158 20.7272 17.7518 20.8009 17.7233 20.8934C17.6949 20.9858 17.7047 21.0845 17.7233 21.2828L17.7411 21.4632C17.8087 22.1609 17.8424 22.5103 17.6389 22.6649C17.4344 22.8196 17.1269 22.6783 16.5127 22.3956L16.3544 22.3228C16.1793 22.2428 16.0923 22.2018 15.9998 22.2018C15.9073 22.2018 15.8203 22.2428 15.6451 22.3228L15.4869 22.3956C14.8727 22.6792 14.5651 22.8196 14.3607 22.6649C14.1563 22.5103 14.1909 22.1609 14.2584 21.4632L14.2763 21.2828C14.2949 21.0845 14.3047 20.9858 14.2763 20.8934C14.2478 20.8018 14.1838 20.7272 14.0567 20.5788L13.9411 20.4436C13.494 19.9209 13.27 19.6596 13.3483 19.4081C13.4264 19.1574 13.7544 19.0836 14.4104 18.9352L14.5793 18.8961C14.766 18.8543 14.8593 18.8338 14.9349 18.7761C15.0096 18.7192 15.0576 18.6338 15.1536 18.4614L15.2407 18.3049C15.5784 17.6978 15.7473 17.3956 15.9998 17.3956Z"
        fill="white" />
    <defs>
        <linearGradient id="paint0_linear_1532_3047" x1="32.7626" y1="35.0482" x2="-0.761379"
            y2="1.52422" gradientUnits="userSpaceOnUse">
            <stop stop-color="#1D9E50" />
            <stop offset="1" stop-color="#1D9E50" />
        </linearGradient>
    </defs>
</svg>
