<svg width="24" height="25" viewBox="0 0 24 25" fill="none" xmlns="http://www.w3.org/2000/svg">
<path fill-rule="evenodd" clip-rule="evenodd" d="M12 4.07227C7.313 4.07227 3.5 7.88527 3.5 12.5723C3.5 17.2593 7.313 21.0723 12 21.0723C16.687 21.0723 20.5 17.2593 20.5 12.5723C20.5 7.88527 16.687 4.07227 12 4.07227ZM12 22.5723C6.486 22.5723 2 18.0863 2 12.5723C2 7.05827 6.486 2.57227 12 2.57227C17.514 2.57227 22 7.05827 22 12.5723C22 18.0863 17.514 22.5723 12 22.5723Z" fill="#121212"/>
<path fill-rule="evenodd" clip-rule="evenodd" d="M15.4311 16.265C15.3001 16.265 15.1681 16.231 15.0471 16.16L11.2771 13.911C11.0511 13.775 10.9111 13.53 10.9111 13.266V8.41797C10.9111 8.00397 11.2471 7.66797 11.6611 7.66797C12.0761 7.66797 12.4111 8.00397 12.4111 8.41797V12.84L15.8161 14.87C16.1711 15.083 16.2881 15.543 16.0761 15.899C15.9351 16.134 15.6861 16.265 15.4311 16.265Z" fill="#121212"/>
</svg>
