<svg width="20" height="20" viewBox="0 0 20 20" fill="none" xmlns="http://www.w3.org/2000/svg">
    <path d="M17.0827 5H2.91602M15.6935 7.08333L15.3102 12.8333C15.1627 15.045 15.0893 16.1508 14.3685 16.825C13.6477 17.5 12.5385 17.5 10.3218 17.5H9.67685C7.46018 17.5 6.35102 17.5 5.63018 16.825C4.90935 16.1508 4.83518 15.045 4.68852 12.8333L4.30518 7.08333M7.91602 9.16667L8.33268 13.3333M12.0827 9.16667L11.666 13.3333" stroke="#E9443C" stroke-width="1.5" stroke-linecap="round"/>
    <path d="M5.41602 5H5.50768C5.84305 4.99143 6.16803 4.88185 6.44012 4.68559C6.7122 4.48934 6.91873 4.21553 7.03268 3.9L7.06102 3.81417L7.14185 3.57167C7.21102 3.36417 7.24602 3.26083 7.29185 3.1725C7.38202 2.99949 7.51144 2.84999 7.66975 2.73597C7.82805 2.62194 8.01085 2.54655 8.20352 2.51583C8.30102 2.5 8.41018 2.5 8.62852 2.5H11.3702C11.5885 2.5 11.6977 2.5 11.7952 2.51583C11.9878 2.54655 12.1706 2.62194 12.329 2.73597C12.4873 2.84999 12.6167 2.99949 12.7068 3.1725C12.7527 3.26083 12.7877 3.36417 12.8568 3.57167L12.9377 3.81417C13.0433 4.16523 13.2617 4.47167 13.5591 4.68605C13.8565 4.90043 14.2162 5.01077 14.5827 5" stroke="#E9443C" stroke-width="1.5"/>
</svg>
