<svg width="20" height="20" viewBox="0 0 20 20" fill="none" xmlns="http://www.w3.org/2000/svg">
<g clip-path="url(#clip0_1676_3481)">
<path opacity="0.964" fill-rule="evenodd" clip-rule="evenodd" d="M17.9844 10.7973C17.9844 11.1931 17.9844 11.5889 17.9844 11.9848C17.929 12.3499 17.8509 12.7145 17.75 13.0785C17.6213 13.4439 17.4807 13.8032 17.3281 14.1567C17.4354 14.8506 17.55 15.5433 17.6719 16.2348C17.5877 16.6471 17.3377 16.7981 16.9219 16.6879C16.2784 16.5667 15.6326 16.473 14.9844 16.4067C13.6012 17.1055 12.1637 17.2409 10.6719 16.8129C9.27931 16.3625 8.20638 15.5136 7.45312 14.266C6.549 14.2015 5.69481 13.9619 4.89062 13.5473C4.1446 13.6942 3.3946 13.8036 2.64062 13.8754C2.42961 13.7894 2.31502 13.6332 2.29688 13.4067C2.41484 12.7197 2.52942 12.0322 2.64062 11.3442C2.5107 11.0171 2.38049 10.6889 2.25 10.3598C2.13079 9.96634 2.04225 9.57053 1.98438 9.17228C1.98438 8.77643 1.98438 8.38062 1.98438 7.98478C2.33528 5.6284 3.62695 4.02945 5.85938 3.1879C8.13334 2.54673 10.1073 3.05194 11.7812 4.70353C12.0562 5.01491 12.301 5.34825 12.5156 5.70353C14.6344 5.87197 16.2333 6.86156 17.3125 8.67228C17.6602 9.34559 17.8842 10.0539 17.9844 10.7973ZM7.14062 3.89103C9.13425 3.79658 10.6603 4.58825 11.7188 6.26603C12.6166 8.02837 12.5124 9.72631 11.4062 11.3598C10.2758 12.7814 8.80188 13.4012 6.98438 13.2192C6.64366 13.1652 6.31031 13.0819 5.98438 12.9692C5.67181 12.8154 5.35409 12.6748 5.03125 12.5473C4.48654 12.6311 3.94488 12.7249 3.40625 12.8285C3.46194 12.338 3.53485 11.8484 3.625 11.3598C3.64583 11.2556 3.64583 11.1514 3.625 11.0473C2.84701 9.65975 2.74285 8.22225 3.3125 6.73478C4.08412 5.10688 5.36016 4.15896 7.14062 3.89103ZM13.0156 6.76603C14.6901 7.05031 15.8932 7.95656 16.625 9.48478C17.2273 10.9876 17.1335 12.4459 16.3438 13.8598C16.3229 13.9744 16.3229 14.0889 16.3438 14.2035C16.4253 14.6825 16.5034 15.1617 16.5781 15.641C16.0427 15.5527 15.5063 15.4693 14.9688 15.391C14.9115 15.3962 14.8542 15.4014 14.7969 15.4067C13.1863 16.2906 11.5717 16.3011 9.95312 15.4379C9.411 15.1094 8.95269 14.6876 8.57812 14.1723C8.93728 14.0995 9.28625 13.9953 9.625 13.8598C9.69581 13.9053 9.77394 13.9313 9.85938 13.9379C11.5156 13.9587 13.1719 13.9587 14.8281 13.9379C15.2375 13.8222 15.3573 13.567 15.1875 13.1723C15.1269 13.0908 15.0488 13.0336 14.9531 13.0004C13.7031 12.99 12.4531 12.9796 11.2031 12.9692C11.5805 12.6544 11.9138 12.3002 12.2031 11.9067C13.0885 11.8962 13.974 11.8858 14.8594 11.8754C15.2461 11.7424 15.3554 11.4872 15.1875 11.1098C15.1269 11.0283 15.0488 10.9711 14.9531 10.9379C14.2342 10.9327 13.5154 10.9171 12.7969 10.891C12.9597 10.5522 13.0743 10.198 13.1406 9.82853C13.7241 9.83375 14.3074 9.82853 14.8906 9.8129C15.254 9.66387 15.3529 9.40865 15.1875 9.04728C15.1219 8.95456 15.0333 8.89728 14.9219 8.8754C14.3803 8.85978 13.8387 8.85456 13.2969 8.85978C13.3169 8.14603 13.2232 7.44809 13.0156 6.76603Z" fill="#1d9e50"/>
<path opacity="0.959" fill-rule="evenodd" clip-rule="evenodd" d="M7.29695 5.45294C8.4822 5.3731 9.14885 5.91997 9.29695 7.09357C9.26123 7.88913 8.8706 8.4256 8.12507 8.70294C8.11466 9.06754 8.10423 9.4321 8.09382 9.79669C7.98898 10.081 7.78585 10.1903 7.48445 10.1248C7.30951 10.0645 7.20013 9.94469 7.15632 9.76544C7.13548 9.23419 7.13548 8.70294 7.15632 8.17169C7.18645 8.04769 7.25416 7.94872 7.35945 7.87482C7.5207 7.81513 7.68735 7.77344 7.85945 7.74982C8.30235 7.52529 8.42213 7.18672 8.21882 6.73419C7.84195 6.30829 7.45654 6.29788 7.06257 6.70294C7.03132 6.76544 7.00007 6.82794 6.96882 6.89044C6.95373 7.06475 6.91207 7.23141 6.84382 7.39044C6.56376 7.64791 6.29295 7.63747 6.03132 7.35919C5.90648 6.65529 6.14085 6.09797 6.73445 5.68732C6.91657 5.58694 7.10407 5.50882 7.29695 5.45294Z" fill="#1d9e50"/>
<path opacity="0.921" fill-rule="evenodd" clip-rule="evenodd" d="M7.5156 10.7344C8.03204 10.7672 8.20391 11.0276 8.03122 11.5156C7.83463 11.7157 7.61066 11.7522 7.35935 11.625C7.07097 11.3535 7.07097 11.0827 7.35935 10.8125C7.41607 10.7888 7.46813 10.7628 7.5156 10.7344Z" fill="#1d9e50"/>
</g>
<defs>
<clipPath id="clip0_1676_3481">
<rect width="16" height="16" fill="white" transform="translate(2 2)"/>
</clipPath>
</defs>
</svg>
