<svg width="20" height="20" viewBox="0 0 20 20" fill="none" xmlns="http://www.w3.org/2000/svg">
<path d="M7.11119 11.7776C6.99332 11.7776 6.88027 11.7307 6.79692 11.6474C6.71357 11.564 6.66675 11.451 6.66675 11.3331C6.66675 11.2152 6.71357 11.1022 6.79692 11.0188C6.88027 10.9355 6.99332 10.8887 7.11119 10.8887H13.3334C13.4513 10.8887 13.5643 10.9355 13.6477 11.0188C13.731 11.1022 13.7779 11.2152 13.7779 11.3331C13.7779 11.451 13.731 11.564 13.6477 11.6474C13.5643 11.7307 13.4513 11.7776 13.3334 11.7776H7.11119ZM7.11119 14.4442C6.99332 14.4442 6.88027 14.3974 6.79692 14.3141C6.71357 14.2307 6.66675 14.1177 6.66675 13.9998C6.66675 13.8819 6.71357 13.7689 6.79692 13.6855C6.88027 13.6022 6.99332 13.5553 7.11119 13.5553H13.3334C13.4513 13.5553 13.5643 13.6022 13.6477 13.6855C13.731 13.7689 13.7779 13.8819 13.7779 13.9998C13.7779 14.1177 13.731 14.2307 13.6477 14.3141C13.5643 14.3974 13.4513 14.4442 13.3334 14.4442H7.11119Z" fill="#1d9e50"/>
<path fill-rule="evenodd" clip-rule="evenodd" d="M11.2756 2H5.33333C4.97971 2 4.64057 2.14048 4.39052 2.39052C4.14048 2.64057 4 2.97971 4 3.33333V16.6667C4 17.0203 4.14048 17.3594 4.39052 17.6095C4.64057 17.8595 4.97971 18 5.33333 18H15.1111C15.4647 18 15.8039 17.8595 16.0539 17.6095C16.304 17.3594 16.4444 17.0203 16.4444 16.6667V7.51289C16.4444 7.17909 16.3191 6.85746 16.0933 6.61156L12.2587 2.432C12.1337 2.29577 11.9818 2.18702 11.8125 2.11265C11.6433 2.03828 11.4604 1.99992 11.2756 2ZM4.88889 3.33333C4.88889 3.21546 4.93571 3.10241 5.01906 3.01906C5.10241 2.93571 5.21546 2.88889 5.33333 2.88889H11.2756C11.3372 2.88882 11.3982 2.90159 11.4547 2.92638C11.5112 2.95117 11.5619 2.98744 11.6036 3.03289L15.4382 7.21244C15.5136 7.29437 15.5554 7.40158 15.5556 7.51289V16.6667C15.5556 16.7845 15.5087 16.8976 15.4254 16.9809C15.342 17.0643 15.229 17.1111 15.1111 17.1111H5.33333C5.21546 17.1111 5.10241 17.0643 5.01906 16.9809C4.93571 16.8976 4.88889 16.7845 4.88889 16.6667V3.33333Z" fill="#1d9e50"/>
<path d="M11.1111 7.33333H15.9999C16.1178 7.33333 16.2309 7.38016 16.3142 7.46351C16.3976 7.54686 16.4444 7.6599 16.4444 7.77778C16.4444 7.89565 16.3976 8.0087 16.3142 8.09205C16.2309 8.1754 16.1178 8.22222 15.9999 8.22222H10.6666C10.5487 8.22222 10.4357 8.1754 10.3523 8.09205C10.269 8.0087 10.2222 7.89565 10.2222 7.77778V2.44444C10.2222 2.32657 10.269 2.21352 10.3523 2.13017C10.4357 2.04683 10.5487 2 10.6666 2C10.7845 2 10.8975 2.04683 10.9809 2.13017C11.0642 2.21352 11.1111 2.32657 11.1111 2.44444V7.33333Z" fill="#1d9e50"/>
</svg>
