<svg width="51" height="50" viewBox="0 0 51 50" fill="none" xmlns="http://www.w3.org/2000/svg">
<path opacity="0.965" fill-rule="evenodd" clip-rule="evenodd" d="M40.4897 2.00218C42.0673 1.80556 42.7345 2.48915 42.4917 4.05296C42.0671 4.87473 41.3998 5.15143 40.4897 4.88304C39.6679 4.45847 39.3913 3.79115 39.6596 2.88109C39.8245 2.47237 40.1012 2.17941 40.4897 2.00218Z" fill="#1D9E50"/>
<path opacity="0.95" fill-rule="evenodd" clip-rule="evenodd" d="M10.8029 2.97858C11.9575 2.81487 12.4296 3.30315 12.2189 4.44343C11.8619 4.90969 11.39 5.05617 10.8029 4.88288C10.3366 4.52594 10.1901 4.05394 10.3634 3.46687C10.4968 3.28506 10.6433 3.1223 10.8029 2.97858Z" fill="#1D9E50"/>
<path opacity="0.94" fill-rule="evenodd" clip-rule="evenodd" d="M45.9591 7.8614C47.1138 7.69769 47.5859 8.18597 47.3751 9.32624C47.0182 9.79255 46.5462 9.93903 45.9591 9.76569C45.4928 9.40875 45.3463 8.93675 45.5197 8.34968C45.6531 8.16787 45.7996 8.00512 45.9591 7.8614Z" fill="#ECECF1"/>
<path opacity="0.993" fill-rule="evenodd" clip-rule="evenodd" d="M16.858 31.2014C17.8671 32.4058 18.9739 33.5126 20.1783 34.5217C24.6272 37.6932 29.51 38.5883 34.8268 37.2073C40.4587 35.4165 44.2185 31.7218 46.1061 26.1233C47.5377 21.0093 46.8216 16.2242 43.9576 11.7678C39.7915 6.21153 34.2413 3.88406 27.3073 4.78538C20.4172 6.25546 15.9902 10.3733 14.026 17.1389C12.8701 22.2649 13.8142 26.9524 16.858 31.2014ZM41.8095 16.9435C39.3148 11.3077 34.9691 8.60592 28.7724 8.83799C27.2464 9.08067 25.7816 9.55268 24.3779 10.254C19.7665 12.9826 17.6019 17.0353 17.8837 22.4122C18.6643 27.815 21.6428 31.3795 26.8193 33.1056C31.9276 34.2673 36.2408 32.9163 39.7587 29.0528C42.5393 25.3773 43.2229 21.3409 41.8095 16.9435Z" fill="black"/>
<path opacity="0.963" fill-rule="evenodd" clip-rule="evenodd" d="M4.35692 12.7444C5.93444 12.5478 6.60177 13.2314 6.35888 14.7951C5.93431 15.6169 5.26699 15.8936 4.35692 15.6252C3.53516 15.2006 3.25846 14.5333 3.52685 13.6233C3.69167 13.2146 3.96837 12.9216 4.35692 12.7444Z" fill="#ECECF1"/>
<path fill-rule="evenodd" clip-rule="evenodd" d="M24.6699 14.6972C25.0245 14.664 25.35 14.7454 25.6465 14.9413C27.194 16.5052 28.7565 18.0514 30.334 19.58C31.9114 18.0514 33.4739 16.5052 35.0215 14.9413C35.861 14.4989 36.4145 14.7267 36.6816 15.6249C36.6393 15.8821 36.5579 16.1263 36.4375 16.3573C34.8736 17.9049 33.3274 19.4674 31.7988 21.0448C33.3274 22.6223 34.8736 24.1848 36.4375 25.7323C36.7584 26.2132 36.7421 26.6851 36.3887 27.1483C35.9297 27.462 35.4739 27.462 35.0215 27.1483C33.4739 25.5845 31.9114 24.0383 30.334 22.5097C28.7565 24.0383 27.194 25.5845 25.6465 27.1483C24.7763 27.5918 24.2229 27.3476 23.9863 26.4159C24.012 26.169 24.0934 25.9412 24.2305 25.7323C25.7943 24.1848 27.3405 22.6223 28.8691 21.0448C27.3405 19.4674 25.7943 17.9049 24.2305 16.3573C23.8171 15.6426 23.9636 15.0892 24.6699 14.6972Z" fill="#1D9E50"/>
<path opacity="0.954" fill-rule="evenodd" clip-rule="evenodd" d="M5.92004 24.4629C7.07477 24.2993 7.54677 24.7876 7.33606 25.9278C6.97911 26.3941 6.50711 26.5406 5.92004 26.3672C5.45378 26.0103 5.3073 25.5383 5.48059 24.9512C5.61396 24.7694 5.76044 24.6067 5.92004 24.4629Z" fill="#1D9E50"/>
<path opacity="0.989" fill-rule="evenodd" clip-rule="evenodd" d="M16.8575 31.2012C17.8666 32.4056 18.9735 33.5124 20.1779 34.5215C21.0907 36.0902 20.8954 37.5062 19.5919 38.7696C18.2642 39.5966 16.962 39.5478 15.6857 38.6231C14.832 37.6225 13.9205 36.6622 12.9513 35.7422C12.8933 35.6969 12.8281 35.6806 12.756 35.6934C11.8021 34.4203 11.7532 33.1181 12.6095 31.7871C13.8729 30.4836 15.2889 30.2883 16.8575 31.2012Z" fill="#1D9E50"/>
<path opacity="0.991" fill-rule="evenodd" clip-rule="evenodd" d="M12.7551 35.6932C12.8272 35.6804 12.8924 35.6967 12.9504 35.742C13.9196 36.662 14.831 37.6223 15.6847 38.6229C13.9949 41.1774 12.3185 43.7489 10.6554 46.3377C9.28594 47.9433 7.60951 48.3502 5.62615 47.5584C3.87275 46.5293 3.17288 45.0156 3.52654 43.0174C3.75242 42.0591 4.25698 41.2942 5.04021 40.7225C7.62895 39.0594 10.2006 37.383 12.7551 35.6932Z" fill="#1D9E50"/>
<path opacity="0.971" fill-rule="evenodd" clip-rule="evenodd" d="M28.771 43.0178C30.3485 42.8212 31.0158 43.5048 30.7729 45.0686C30.3483 45.8904 29.681 46.167 28.771 45.8987C27.9492 45.474 27.6725 44.8068 27.9409 43.8967C28.1057 43.488 28.3824 43.195 28.771 43.0178Z" fill="#1D9E50"/>
<path opacity="0.94" fill-rule="evenodd" clip-rule="evenodd" d="M45.9591 43.0176C47.1138 42.854 47.5859 43.3422 47.3751 44.4825C47.0182 44.9488 46.5462 45.0953 45.9591 44.9219C45.4928 44.565 45.3463 44.093 45.5197 43.5059C45.6531 43.3241 45.7996 43.1614 45.9591 43.0176Z" fill="#ECECF1"/>
</svg>
