<svg width="33" height="33" viewBox="0 0 33 33" fill="none" xmlns="http://www.w3.org/2000/svg">
<g clip-path="url(#clip0_1165_4952)">
<rect x="0.5" y="0.5" width="32" height="32" rx="16" fill="#F1F5F9"/>
<path opacity="0.951" fill-rule="evenodd" clip-rule="evenodd" d="M8.27798 10.5351C8.32225 10.5111 8.37284 10.5027 8.4232 10.5026C11.0623 10.4956 13.7014 10.5029 16.3405 10.5245C16.3655 10.5247 16.3906 10.5272 16.4151 10.5324C17.3391 10.7258 17.9582 11.2455 18.2724 12.0916C18.3344 12.2586 18.4864 12.3802 18.6645 12.3832C19.4191 12.396 20.1736 12.4088 20.9281 12.4216C20.9541 12.4221 20.9801 12.4249 21.0054 12.4308C21.5297 12.551 21.9709 12.8097 22.3288 13.2067C22.3478 13.2278 22.3641 13.2511 22.3779 13.276C22.9628 14.3346 23.504 15.4158 24.0014 16.5197C24.023 16.5676 24.0348 16.6193 24.0363 16.6718C24.0634 17.6602 24.0627 18.6486 24.034 19.637C23.9512 20.1845 23.6607 20.5695 23.1623 20.792C23.1406 20.8017 23.1178 20.809 23.0945 20.8142C22.8616 20.8654 22.6264 20.9013 22.3888 20.9218C22.2238 20.9361 22.0809 21.043 22.0175 21.196C21.4788 22.4952 20.4816 22.9831 19.0256 22.6597C18.2929 22.3977 17.8068 21.9188 17.5675 21.2229C17.5069 21.0467 17.3492 20.9159 17.163 20.9151C16.0845 20.911 15.0061 20.9173 13.9277 20.9341C13.7569 20.9367 13.6088 21.049 13.5445 21.2073C13.085 22.3383 12.2154 22.8527 10.9358 22.7504C10.9164 22.7488 10.8966 22.7456 10.8776 22.741C9.67117 22.4452 9.01956 21.6775 8.92275 20.4378C8.92128 20.4189 8.92128 20.3995 8.92277 20.3806C9.01925 19.1566 9.65597 18.3891 10.8329 18.0781C10.8522 18.073 10.8725 18.0694 10.8924 18.0676C12.189 17.9458 13.0733 18.4557 13.5453 19.5973C13.6091 19.7516 13.7528 19.8616 13.9196 19.8669C14.9458 19.8996 15.9722 19.9124 16.9988 19.9054C17.2174 19.9039 17.3935 19.7262 17.394 19.5076C17.3994 17.2144 17.3919 14.9212 17.3713 12.628C17.371 12.594 17.3666 12.56 17.3569 12.5273C17.189 11.9637 16.8158 11.6221 16.2371 11.5026C16.2136 11.4978 16.1894 11.4955 16.1654 11.4954C13.58 11.481 10.9947 11.4665 8.40942 11.4521C8.33959 11.4517 8.26961 11.4348 8.21394 11.3927C8.00898 11.2375 7.95129 11.0313 8.04086 10.7741C8.05268 10.7401 8.07086 10.7086 8.09477 10.6817C8.14917 10.6207 8.21024 10.5718 8.27798 10.5351ZM18.4079 13.7672C18.4079 13.5478 18.5847 13.3692 18.8041 13.3685C19.4393 13.3666 20.0745 13.3744 20.7095 13.392C20.7342 13.3927 20.7587 13.3956 20.7827 13.4013C21.1678 13.4931 21.472 13.7036 21.6953 14.0329C21.9477 14.5377 22.2001 15.0425 22.4525 15.5473C22.5831 15.8085 22.3989 16.1169 22.1069 16.1242C21.0061 16.1514 19.905 16.1614 18.8038 16.1543C18.5845 16.1529 18.4079 15.9744 18.4079 15.755C18.4079 15.0924 18.4079 14.4298 18.4079 13.7672ZM18.4025 17.5087C18.4013 17.2929 18.5791 17.1218 18.7948 17.1218C20.0781 17.1218 21.3614 17.1218 22.6447 17.1218C22.8642 17.1218 23.0428 17.2987 23.0436 17.5183C23.0458 18.1933 23.0384 18.8683 23.0215 19.5431C23.02 19.6049 23.0059 19.6667 22.9699 19.7169C22.8481 19.8869 22.6733 19.9486 22.4455 19.9018C22.4177 19.8981 22.3899 19.8943 22.3621 19.8906C22.2106 19.8704 22.0856 19.7649 22.0282 19.6232C21.5553 18.4546 20.6574 17.937 19.3345 18.0705C19.2398 18.0896 19.1473 18.114 19.0572 18.1437C18.7677 18.2389 18.417 18.0731 18.4074 17.7685C18.4046 17.6819 18.403 17.5953 18.4025 17.5087ZM10.9832 19.0369C11.0198 19.0246 11.0588 19.019 11.0974 19.0194C12.2309 19.0332 12.75 19.6025 12.6546 20.7276C12.6514 20.7649 12.6424 20.8022 12.6276 20.8367C12.3088 21.5826 11.7473 21.8837 10.9432 21.7399C10.9188 21.7355 10.8945 21.7284 10.8716 21.7189C10.1763 21.4304 9.87043 20.9086 9.95395 20.1536C9.95623 20.1329 9.96042 20.1122 9.96643 20.0924C10.1269 19.5616 10.4659 19.2097 10.9832 19.0369ZM19.4555 19.0369C19.4922 19.0246 19.5311 19.019 19.5697 19.0194C20.7032 19.0332 21.2223 19.6025 21.1269 20.7276C21.1238 20.7649 21.1147 20.8022 21.1 20.8367C20.7812 21.5826 20.2197 21.8837 19.4156 21.7399C19.3911 21.7355 19.3668 21.7284 19.3439 21.7189C18.6486 21.4304 18.3428 20.9086 18.4263 20.1536C18.4286 20.1329 18.4328 20.1122 18.4388 20.0924C18.5992 19.5616 18.9382 19.2097 19.4555 19.0369Z" fill="black"/>
</g>
<defs>
<clipPath id="clip0_1165_4952">
<rect x="0.5" y="0.5" width="32" height="32" rx="16" fill="white"/>
</clipPath>
</defs>
</svg>
