<svg width="24" height="24" viewBox="0 0 24 24" fill="none" xmlns="http://www.w3.org/2000/svg">
<path d="M14.9122 7.50314L13.3702 7.27139L12.6866 5.88689C12.6232 5.75845 12.5252 5.65031 12.4036 5.57468C12.282 5.49906 12.1417 5.45898 11.9985 5.45898C11.8553 5.45898 11.7149 5.49906 11.5933 5.57468C11.4717 5.65031 11.3737 5.75845 11.3103 5.88689L10.6132 7.28151L9.08471 7.50389C8.9433 7.5248 8.81054 7.5848 8.7014 7.67712C8.59227 7.76945 8.51109 7.89043 8.46704 8.02642C8.42298 8.16241 8.41779 8.30801 8.45205 8.44679C8.48632 8.58558 8.55868 8.71203 8.66096 8.81189L9.77209 9.90576L9.50959 11.4286C9.48555 11.5698 9.50146 11.7149 9.55552 11.8475C9.60957 11.9801 9.69961 12.0949 9.81549 12.179C9.93136 12.2631 10.0684 12.3132 10.2113 12.3235C10.3541 12.3339 10.4969 12.3041 10.6237 12.2375L12.0071 11.5186L13.374 12.2375C13.5007 12.3041 13.6436 12.3339 13.7864 12.3235C13.9292 12.3132 14.0663 12.2631 14.1822 12.179C14.2981 12.0949 14.3881 11.9801 14.4422 11.8475C14.4962 11.7149 14.5121 11.5698 14.4881 11.4286L14.232 9.89114L15.336 8.81189C15.4383 8.712 15.5108 8.58549 15.5451 8.44664C15.5794 8.30779 15.5742 8.16211 15.5301 8.02604C15.4861 7.88996 15.4049 7.76891 15.2957 7.67651C15.1865 7.58412 15.0537 7.52407 14.9122 7.50314ZM13.7085 9.35301C13.6192 9.43981 13.5524 9.54703 13.5139 9.66542C13.4753 9.7838 13.4662 9.9098 13.4872 10.0325L13.7227 11.5738L12.3555 10.8549C12.2455 10.7973 12.1233 10.7673 11.9992 10.7673C11.8751 10.7673 11.7529 10.7973 11.643 10.8549L10.2506 11.555L10.5131 10.0325C10.5342 9.90989 10.5251 9.78398 10.4866 9.66566C10.4481 9.54733 10.3814 9.44016 10.2922 9.35339L9.19609 8.24526L10.7242 8.02289C10.8474 8.00506 10.9644 7.95755 11.0651 7.88445C11.1659 7.81135 11.2473 7.71485 11.3025 7.60326L11.9985 6.20826C12.0018 6.20766 12.0053 6.20832 12.0082 6.21012C12.0111 6.21192 12.0132 6.21473 12.0142 6.21801L12.6978 7.60326C12.7528 7.71508 12.8341 7.81185 12.9347 7.88522C13.0354 7.95859 13.1524 8.00635 13.2757 8.02439L14.8132 8.27676L13.7085 9.35301Z" fill="black"/>
<path d="M20.4638 9.21425C20.4634 8.89002 20.3697 8.57275 20.1937 8.30042C20.0177 8.02809 19.767 7.81221 19.4716 7.67863C19.682 7.44942 19.8248 7.16633 19.884 6.86083C19.9432 6.55534 19.9165 6.23941 19.8069 5.94818C19.6972 5.65695 19.509 5.40184 19.263 5.21121C19.0171 5.02058 18.7231 4.9019 18.4137 4.86838C18.4976 4.56857 18.4966 4.25138 18.4108 3.95211C18.3251 3.65284 18.158 3.38324 17.9281 3.17332C17.6982 2.96341 17.4145 2.82142 17.1087 2.76317C16.8029 2.70491 16.4869 2.73268 16.196 2.84338C16.1827 2.53262 16.0835 2.23164 15.9093 1.97391C15.7352 1.71619 15.4929 1.51183 15.2096 1.38358C14.9262 1.25532 14.6128 1.2082 14.3042 1.24744C13.9957 1.28669 13.7041 1.41077 13.4618 1.60588C13.3093 1.33437 13.0844 1.11055 12.8121 0.959392C12.5399 0.808229 12.231 0.73566 11.9199 0.749775C11.6088 0.763891 11.3078 0.864137 11.0503 1.03934C10.7929 1.21453 10.5891 1.4578 10.4618 1.742C10.2326 1.53154 9.94953 1.38877 9.64404 1.32958C9.33854 1.27039 9.02261 1.29709 8.73138 1.40672C8.44016 1.51635 8.18504 1.7046 7.99441 1.95055C7.80378 2.19651 7.68511 2.49051 7.65158 2.79988C7.35189 2.716 7.03479 2.71695 6.7356 2.8026C6.43641 2.88826 6.16686 3.05526 5.95695 3.28503C5.74705 3.5148 5.60503 3.79831 5.5467 4.10401C5.48837 4.4097 5.51603 4.72559 5.62658 5.0165C5.31581 5.03003 5.01488 5.12946 4.75722 5.30374C4.49956 5.47802 4.29527 5.72033 4.16705 6.00374C4.03882 6.28714 3.99169 6.60055 4.03089 6.90914C4.07009 7.21773 4.19408 7.5094 4.38908 7.75175C4.11757 7.90426 3.89376 8.12918 3.74259 8.40144C3.59143 8.6737 3.51886 8.9826 3.53298 9.29369C3.54709 9.60478 3.64734 9.90583 3.82254 10.1633C3.99774 10.4207 4.241 10.6245 4.52521 10.7518C4.31519 10.9812 4.17291 11.2644 4.11419 11.5699C4.05546 11.8754 4.08258 12.1912 4.19254 12.4822C4.30251 12.7732 4.491 13.028 4.73707 13.2183C4.98315 13.4086 5.27716 13.5269 5.58646 13.5601C5.51339 13.8209 5.50449 14.0955 5.56051 14.3605C5.61653 14.6255 5.7358 14.873 5.90816 15.0819C6.08052 15.2908 6.30086 15.4549 6.55037 15.5602C6.79988 15.6655 7.07116 15.709 7.34108 15.6868L4.74983 21.377C4.71882 21.4451 4.7089 21.521 4.72137 21.5948C4.73383 21.6686 4.76811 21.737 4.81978 21.7912C4.87145 21.8454 4.93815 21.8828 5.01129 21.8988C5.08444 21.9147 5.16068 21.9084 5.23021 21.8806L7.35158 21.0328L8.06408 23.0019C8.08965 23.0727 8.13595 23.1342 8.19695 23.1783C8.25794 23.2225 8.33082 23.2472 8.40608 23.2494H8.41658C8.49006 23.2494 8.56194 23.2279 8.62327 23.1874C8.68461 23.1469 8.7327 23.0893 8.76158 23.0218L11.1462 17.444C11.4036 17.598 11.6979 17.6793 11.9978 17.6793C12.2978 17.6793 12.5921 17.598 12.8495 17.444L15.2326 23.0221C15.2614 23.0896 15.3095 23.1472 15.3707 23.1877C15.432 23.2281 15.5038 23.2497 15.5772 23.2498H15.5881C15.6633 23.2476 15.7362 23.2228 15.7972 23.1787C15.8582 23.1346 15.9045 23.0731 15.9301 23.0023L16.6426 21.0328L18.7677 21.8806C18.8372 21.9084 18.9135 21.9147 18.9866 21.8988C19.0598 21.8828 19.1265 21.8454 19.1781 21.7912C19.2298 21.737 19.2641 21.6686 19.2765 21.5948C19.289 21.521 19.2791 21.4451 19.2481 21.377L16.6553 15.68C16.9382 15.7042 17.2226 15.6562 17.4819 15.5407C17.7413 15.4251 17.9671 15.2458 18.1383 15.0193C18.3095 14.7928 18.4206 14.5267 18.4611 14.2457C18.5016 13.9647 18.4702 13.678 18.3698 13.4124C18.5733 13.403 18.7733 13.357 18.9605 13.2766C19.199 13.1745 19.4106 13.0185 19.5788 12.8209C19.747 12.6233 19.8671 12.3895 19.9298 12.1377C19.9925 11.8859 19.9961 11.623 19.9402 11.3696C19.8843 11.1162 19.7705 10.8792 19.6077 10.6771C19.8668 10.5305 20.0824 10.3179 20.2328 10.061C20.3831 9.80406 20.4628 9.51194 20.4638 9.21425ZM8.44583 21.8518L7.92533 20.4125C7.90825 20.3652 7.88181 20.3218 7.8476 20.2849C7.81339 20.248 7.77209 20.2183 7.72618 20.1977C7.68028 20.1771 7.63069 20.1659 7.58038 20.1649C7.53006 20.1638 7.48006 20.1729 7.43333 20.1916L5.82083 20.8366L7.94146 16.1743C8.04249 16.4131 8.19765 16.6252 8.3947 16.7939C8.59175 16.9625 8.8253 17.083 9.07691 17.146C9.32853 17.2089 9.59132 17.2124 9.84455 17.1564C10.0978 17.1003 10.3345 16.9862 10.5361 16.823C10.547 16.8421 10.5608 16.8605 10.5736 16.8781L8.44583 21.8518ZM16.5605 20.1916C16.5138 20.173 16.4638 20.164 16.4135 20.165C16.3632 20.1661 16.3137 20.1773 16.2678 20.1979C16.222 20.2185 16.1807 20.2481 16.1465 20.285C16.1123 20.3218 16.0859 20.3652 16.0688 20.4125L15.5483 21.851L13.427 16.886C13.468 16.8222 13.5046 16.7557 13.5365 16.6869C13.7758 16.9059 14.0732 17.0513 14.393 17.1056C14.7129 17.1599 15.0416 17.1209 15.3398 16.9933C15.6655 16.8525 15.9378 16.6114 16.1168 16.3051L18.1793 20.8389L16.5605 20.1916ZM18.794 10.1469C18.7078 10.1482 18.6247 10.1792 18.5587 10.2346C18.4926 10.29 18.4477 10.3665 18.4315 10.4512C18.4152 10.5358 18.4287 10.6235 18.4695 10.6994C18.5103 10.7753 18.576 10.8349 18.6556 10.868C18.7701 10.915 18.8741 10.9844 18.9616 11.072C19.049 11.1597 19.1181 11.2639 19.1648 11.3785C19.2115 11.4932 19.2349 11.616 19.2336 11.7398C19.2323 11.8636 19.2063 11.9859 19.1573 12.0995C19.1082 12.2132 19.037 12.3159 18.9477 12.4017C18.8585 12.4876 18.7531 12.5547 18.6376 12.5994C18.5221 12.644 18.3989 12.6651 18.2751 12.6616C18.1514 12.6581 18.0296 12.6299 17.9168 12.5788L17.8677 12.5521C17.785 12.5091 17.6892 12.4985 17.5991 12.5223C17.509 12.5461 17.4309 12.6026 17.3802 12.6808L17.3123 12.7933C17.2602 12.8706 17.2387 12.9645 17.2521 13.0568C17.2655 13.1491 17.3127 13.2331 17.3847 13.2924L17.4548 13.3471C17.6265 13.5211 17.7231 13.7554 17.7239 13.9997C17.7247 14.2441 17.6296 14.4791 17.4591 14.6541C17.2886 14.8292 17.0562 14.9303 16.8119 14.9359C16.5676 14.9415 16.3308 14.8511 16.1525 14.684L16.1442 14.6776C16.0822 14.6181 16.0016 14.5817 15.916 14.5745C15.8303 14.5673 15.7448 14.5898 15.6737 14.6381C15.6026 14.6864 15.5503 14.7577 15.5255 14.84C15.5007 14.9223 15.5049 15.0106 15.5375 15.0901C15.5828 15.2038 15.6053 15.3253 15.6037 15.4477C15.602 15.5701 15.5763 15.6909 15.528 15.8034C15.4797 15.9158 15.4096 16.0176 15.322 16.103C15.2343 16.1884 15.1306 16.2557 15.017 16.301C14.9033 16.3463 14.7818 16.3688 14.6594 16.3672C14.537 16.3656 14.4162 16.3399 14.3037 16.2915C14.1913 16.2432 14.0895 16.1732 14.0041 16.0855C13.9187 15.9978 13.8514 15.8942 13.8061 15.7805L13.79 15.7261C13.7618 15.6372 13.7015 15.562 13.6209 15.5151C13.5402 15.4682 13.445 15.4531 13.3538 15.4726L13.2256 15.4989C13.1338 15.5166 13.0519 15.5679 12.996 15.6428C12.9401 15.7177 12.9142 15.8108 12.9233 15.9039L12.9346 15.9939C12.9366 16.2415 12.8402 16.4798 12.6665 16.6564C12.4929 16.8329 12.2562 16.9333 12.0085 16.9353C11.7609 16.9374 11.5226 16.8409 11.346 16.6673C11.1695 16.4936 11.0691 16.2569 11.0671 16.0093C11.0657 15.9231 11.0347 15.8401 10.9793 15.7741C10.9239 15.7082 10.8475 15.6633 10.763 15.647C10.7396 15.6425 10.7159 15.6403 10.6921 15.6403C10.6182 15.6403 10.5459 15.6622 10.4844 15.7031C10.4229 15.7441 10.3749 15.8023 10.3463 15.8705C10.2512 16.0961 10.0717 16.2755 9.84606 16.3705C9.62043 16.4654 9.3666 16.4684 9.13883 16.3786C9.02203 16.3323 8.91584 16.2628 8.82667 16.1743C8.7375 16.0858 8.66722 15.9801 8.62007 15.8637C8.57292 15.7472 8.54988 15.6224 8.55236 15.4968C8.55483 15.3712 8.58276 15.2474 8.63446 15.1329L8.66258 15.0815C8.70546 14.9987 8.71593 14.9028 8.69193 14.8127C8.66794 14.7225 8.61122 14.6446 8.53283 14.594C8.51011 14.5793 8.48698 14.5653 8.46346 14.552L8.42071 14.5261C8.3436 14.4741 8.24989 14.4525 8.15779 14.4657C8.06568 14.4789 7.98176 14.5258 7.92233 14.5974L7.86646 14.669C7.6915 14.8398 7.45653 14.9353 7.21199 14.9348C6.96746 14.9343 6.73287 14.8379 6.55859 14.6664C6.38431 14.4949 6.28424 14.2619 6.27987 14.0174C6.2755 13.7729 6.36717 13.5364 6.53521 13.3588C6.59518 13.2968 6.63199 13.2161 6.63943 13.1302C6.64687 13.0444 6.6245 12.9585 6.57607 12.8872C6.52764 12.8159 6.45612 12.7634 6.37355 12.7387C6.29097 12.7139 6.20239 12.7184 6.12271 12.7513C6.00905 12.7966 5.88756 12.8192 5.76519 12.8176C5.64282 12.816 5.52195 12.7904 5.40949 12.7421C5.29704 12.6938 5.19519 12.6239 5.10977 12.5362C5.02435 12.4486 4.95702 12.345 4.91164 12.2313C4.86626 12.1177 4.84372 11.9962 4.84529 11.8738C4.84686 11.7514 4.87251 11.6306 4.92079 11.5181C4.96907 11.4056 5.03903 11.3038 5.12667 11.2184C5.21431 11.133 5.31792 11.0656 5.43158 11.0203L5.48783 11.0038C5.57655 10.9754 5.65153 10.915 5.69818 10.8344C5.74483 10.7538 5.75981 10.6587 5.74021 10.5676L5.71433 10.4394C5.69664 10.3475 5.64525 10.2656 5.57025 10.2097C5.49525 10.1537 5.40205 10.1279 5.30896 10.1371L5.21858 10.148C4.97393 10.1454 4.74008 10.0469 4.56731 9.87365C4.39455 9.70041 4.29669 9.46628 4.29477 9.22162C4.29285 8.97696 4.38704 8.74133 4.55707 8.5654C4.72709 8.38947 4.95938 8.28731 5.20396 8.28088C5.29014 8.27954 5.37323 8.24856 5.43925 8.19313C5.50527 8.13771 5.55018 8.06124 5.56642 7.97659C5.58266 7.89194 5.56925 7.80428 5.52844 7.72836C5.48762 7.65244 5.4219 7.5929 5.34233 7.55975C5.22647 7.51372 5.12102 7.4449 5.03224 7.35737C4.94345 7.26984 4.87313 7.16539 4.82544 7.0502C4.77775 6.93501 4.75366 6.81142 4.7546 6.68674C4.75553 6.56207 4.78147 6.43886 4.83089 6.32439C4.8803 6.20993 4.95218 6.10655 5.04227 6.02036C5.13236 5.93418 5.23883 5.86695 5.35537 5.82266C5.47191 5.77837 5.59616 5.75791 5.72075 5.7625C5.84534 5.76709 5.96774 5.79663 6.08071 5.84938L6.13021 5.87638C6.21292 5.91936 6.30867 5.93 6.3988 5.90622C6.48893 5.88244 6.56697 5.82595 6.61771 5.74775L6.68558 5.63525C6.7376 5.5581 6.75908 5.46436 6.74585 5.37226C6.73261 5.28015 6.6856 5.19626 6.61396 5.13688L6.54383 5.08213C6.3671 4.90843 6.26661 4.67164 6.26446 4.42384C6.26232 4.17605 6.35869 3.93755 6.53239 3.76082C6.70609 3.58408 6.94289 3.48359 7.19068 3.48144C7.43848 3.4793 7.67697 3.57568 7.85371 3.74938C7.91563 3.80935 7.99633 3.84616 8.08222 3.8536C8.1681 3.86105 8.25393 3.83867 8.32525 3.79024C8.39657 3.74182 8.44903 3.6703 8.47379 3.58772C8.49855 3.50515 8.49411 3.41656 8.46121 3.33688C8.41234 3.22254 8.38684 3.09958 8.3862 2.97523C8.38557 2.85089 8.40982 2.72768 8.45752 2.61284C8.50523 2.49801 8.57542 2.39389 8.66398 2.30659C8.75253 2.2193 8.85765 2.1506 8.97315 2.10455C9.08865 2.05849 9.2122 2.03601 9.33652 2.03842C9.46084 2.04083 9.58343 2.06809 9.69706 2.11859C9.81069 2.16909 9.91306 2.24181 9.99816 2.33247C10.0833 2.42314 10.1494 2.52991 10.1926 2.6465L10.2083 2.70088C10.2365 2.79012 10.297 2.8656 10.378 2.9125C10.459 2.95941 10.5545 2.97434 10.646 2.95438L10.7742 2.92775C10.8655 2.90958 10.9468 2.8581 11.0023 2.78331C11.0577 2.70852 11.0834 2.61578 11.0742 2.52313L11.063 2.43313C11.0609 2.18548 11.1573 1.94717 11.331 1.77062C11.5047 1.59406 11.7414 1.49373 11.989 1.49169C12.2367 1.48965 12.475 1.58607 12.6515 1.75974C12.8281 1.93341 12.9284 2.17011 12.9305 2.41775C12.9319 2.50381 12.9629 2.58675 13.0183 2.65265C13.0736 2.71855 13.15 2.7634 13.2345 2.77967C13.319 2.79594 13.4066 2.78264 13.4825 2.74201C13.5583 2.70137 13.6179 2.63587 13.6512 2.5565C13.6997 2.44403 13.7699 2.34221 13.8578 2.25687C13.9457 2.17152 14.0495 2.10433 14.1634 2.05911C14.2772 2.01389 14.3989 1.99154 14.5214 1.99334C14.6439 1.99513 14.7648 2.02103 14.8773 2.06957C14.9897 2.1181 15.0916 2.18831 15.1769 2.27619C15.2622 2.36407 15.3294 2.4679 15.3747 2.58175C15.4199 2.6956 15.4422 2.81724 15.4404 2.93973C15.4386 3.06222 15.4127 3.18315 15.3642 3.29563L15.3365 3.3455C15.2935 3.42826 15.2829 3.52404 15.3068 3.61417C15.3306 3.70431 15.3872 3.78232 15.4655 3.833C15.4883 3.848 15.512 3.8615 15.5356 3.875L15.578 3.90088C15.6551 3.95294 15.7488 3.97448 15.8409 3.96132C15.933 3.94815 16.0169 3.90121 16.0763 3.82963L16.1322 3.758C16.3059 3.58147 16.5426 3.48117 16.7903 3.47916C17.0379 3.47716 17.2762 3.57362 17.4528 3.74732C17.6293 3.92102 17.7296 4.15773 17.7316 4.40538C17.7336 4.65304 17.6372 4.89134 17.4635 5.06788C17.4032 5.12976 17.3662 5.21052 17.3587 5.29653C17.3511 5.38253 17.3734 5.46852 17.4219 5.53996C17.4704 5.6114 17.5421 5.66393 17.6248 5.68867C17.7075 5.71341 17.7962 5.70885 17.876 5.67575C17.9896 5.63037 18.1111 5.60782 18.2335 5.60939C18.3558 5.61096 18.4767 5.63662 18.5892 5.6849C18.7016 5.73318 18.8035 5.80314 18.8889 5.89078C18.9743 5.97842 19.0416 6.08203 19.087 6.19569C19.1324 6.30935 19.1549 6.43083 19.1534 6.55321C19.1518 6.67558 19.1262 6.79645 19.0779 6.90891C19.0296 7.02136 18.9596 7.12321 18.872 7.20863C18.7843 7.29405 18.6807 7.36137 18.5671 7.40675L18.5108 7.42325C18.4221 7.45162 18.3471 7.51199 18.3005 7.59261C18.2538 7.67323 18.2388 7.76832 18.2585 7.85938L18.2843 7.98763C18.302 8.0795 18.3534 8.16143 18.4284 8.21736C18.5034 8.27328 18.5966 8.29914 18.6897 8.28988L18.7801 8.279C19.0247 8.2816 19.2586 8.38012 19.4313 8.55336C19.6041 8.7266 19.702 8.96073 19.7039 9.20539C19.7058 9.45004 19.6116 9.68568 19.4416 9.8616C19.2716 10.0375 19.0393 10.1397 18.7947 10.1461L18.794 10.1469Z" fill="black"/>
<path d="M12 3.02539C10.7762 3.02539 9.57994 3.38828 8.56241 4.06817C7.54488 4.74806 6.75182 5.71442 6.2835 6.84504C5.81518 7.97565 5.69265 9.21975 5.93139 10.42C6.17014 11.6203 6.75944 12.7228 7.62478 13.5881C8.49012 14.4535 9.59262 15.0428 10.7929 15.2815C11.9931 15.5202 13.2372 15.3977 14.3679 14.9294C15.4985 14.4611 16.4648 13.668 17.1447 12.6505C17.8246 11.633 18.1875 10.4367 18.1875 9.21289C18.1854 7.5725 17.5329 5.9999 16.3729 4.83997C15.213 3.68004 13.6404 3.02747 12 3.02539ZM12 14.6504C10.9246 14.6504 9.87328 14.3315 8.97909 13.734C8.0849 13.1365 7.38796 12.2873 6.97641 11.2937C6.56486 10.3002 6.45718 9.20686 6.66698 8.15209C6.87679 7.09731 7.39466 6.12845 8.15511 5.368C8.91556 4.60755 9.88443 4.08968 10.9392 3.87987C11.994 3.67006 13.0873 3.77774 14.0808 4.1893C15.0744 4.60085 15.9236 5.29779 16.5211 6.19198C17.1186 7.08617 17.4375 8.13745 17.4375 9.21289C17.4361 10.6547 16.8628 12.0371 15.8435 13.0568C14.8241 14.0764 13.4418 14.6501 12 14.6519V14.6504Z" fill="black"/>
</svg>
