<svg width="24" height="24" viewBox="0 0 24 24" fill="none" xmlns="http://www.w3.org/2000/svg">
<path d="M9.71438 18.7261L15.3441 13.0964M20.9944 14.5056C20.9944 5.92044 13.4121 1.94672 9.84124 1.01758C11.1784 4.36044 11.1047 6.83415 9.37838 9.88215C9.31242 9.99529 9.2203 10.091 9.10974 10.1612C8.99918 10.2314 8.87341 10.2741 8.74296 10.2856C8.61251 10.2972 8.48118 10.2774 8.35998 10.2278C8.23879 10.1781 8.13125 10.1002 8.04638 10.0004L5.8521 7.51129C0.109239 13.6107 3.41438 23.4216 12.5052 22.9656C19.4601 22.537 20.9944 17.905 20.9944 14.5056Z" stroke="black" stroke-linecap="round" stroke-linejoin="round"/>
<path d="M10.3973 13.9157C10.2837 13.9157 10.1746 13.8706 10.0943 13.7902C10.0139 13.7098 9.96875 13.6008 9.96875 13.4872C9.96875 13.3735 10.0139 13.2645 10.0943 13.1841C10.1746 13.1037 10.2837 13.0586 10.3973 13.0586M10.3973 13.9157C10.511 13.9157 10.62 13.8706 10.7004 13.7902C10.7807 13.7098 10.8259 13.6008 10.8259 13.4872C10.8259 13.3735 10.7807 13.2645 10.7004 13.1841C10.62 13.1037 10.511 13.0586 10.3973 13.0586M14.9556 18.7655C14.8419 18.7655 14.7329 18.7203 14.6526 18.6399C14.5722 18.5596 14.527 18.4505 14.527 18.3369C14.527 18.2232 14.5722 18.1142 14.6526 18.0338C14.7329 17.9535 14.8419 17.9083 14.9556 17.9083M14.9556 18.7655C15.0693 18.7655 15.1783 18.7203 15.2587 18.6399C15.339 18.5596 15.3842 18.4505 15.3842 18.3369C15.3842 18.2232 15.339 18.1142 15.2587 18.0338C15.1783 17.9535 15.0693 17.9083 14.9556 17.9083" stroke="black" stroke-linecap="round" stroke-linejoin="round"/>
</svg>
