<svg width="25" height="25" viewBox="0 0 25 25" fill="none" xmlns="http://www.w3.org/2000/svg">
<path d="M3.74219 10.327C3.74219 9.045 3.99785 7.85233 4.50919 6.749C5.01985 5.64567 5.71452 4.69333 6.59319 3.892L7.26819 4.627C6.48619 5.33433 5.86952 6.176 5.41819 7.152C4.96819 8.12733 4.74319 9.18567 4.74319 10.327H3.74219ZM20.2822 10.327C20.2822 9.18567 20.0565 8.124 19.6052 7.142C19.1545 6.16 18.5382 5.31533 17.7562 4.608L18.4312 3.892C19.3099 4.69333 20.0045 5.64567 20.5152 6.749C21.0259 7.85233 21.2812 9.045 21.2812 10.327H20.2822ZM5.51219 19.269V18.269H7.12719V10.346C7.12719 9.03933 7.54052 7.89033 8.36719 6.899C9.19519 5.90767 10.2435 5.29 11.5122 5.046V4.5C11.5122 4.22467 11.6099 3.989 11.8052 3.793C12.0012 3.59767 12.2369 3.5 12.5122 3.5C12.7875 3.5 13.0232 3.59767 13.2192 3.793C13.4152 3.98833 13.5129 4.224 13.5122 4.5V5.046C14.7815 5.29 15.8295 5.90767 16.6562 6.899C17.4829 7.89033 17.8962 9.03933 17.8962 10.346V18.269H19.5122V19.269H5.51219ZM12.5122 21.885C12.0649 21.885 11.6839 21.7277 11.3692 21.413C11.0545 21.0977 10.8972 20.7163 10.8972 20.269H14.1272C14.1272 20.7163 13.9699 21.0977 13.6552 21.413C13.3405 21.7283 12.9595 21.8857 12.5122 21.885ZM8.12719 18.269H16.8972V10.346C16.8972 9.13067 16.4702 8.096 15.6162 7.242C14.7622 6.388 13.7275 5.96133 12.5122 5.962C11.2969 5.96267 10.2622 6.38933 9.40819 7.242C8.55419 8.09467 8.12752 9.12933 8.12819 10.346L8.12719 18.269Z" fill="white"/>
</svg>
