<svg
    width="23"
    height="17"
    className="d-md-none"
    viewBox="0 0 23 17"
    fill="none"
    xmlns="http://www.w3.org/2000/svg"
>
    <path
        fillRule="evenodd"
        clipRule="evenodd"
        d="M18.3033 4.12201C17.9561 4.03514 17.6013 3.9914 17.2453 3.99162C14.4266 3.99162 12.1422 6.69503 12.1422 10.0285C12.1422 13.363 14.4266 16.0664 17.2453 16.0664C20.0641 16.0664 22.3494 13.364 22.3494 10.0285C22.3494 9.93095 22.3476 9.83241 22.3431 9.73486H22.3494C22.3494 4.7033 18.889 0.609375 14.6357 0.609375V2.63593C16.0153 2.63593 17.2877 3.19135 18.3033 4.12201ZM6.8823 4.12201C6.54167 4.03641 6.18843 3.99162 5.82617 3.99162C3.00742 3.99162 0.722147 6.69503 0.722147 10.0285C0.722147 13.363 3.00742 16.0664 5.82617 16.0664C8.64492 16.0664 10.9293 13.364 10.9293 10.0285C10.9293 9.93095 10.9275 9.83241 10.923 9.73486H10.9293C10.9293 4.7033 7.46894 0.609375 3.21559 0.609375V2.63593C4.59612 2.63593 5.86672 3.19135 6.8823 4.12201Z"
        fill="#9D9D9D"
    />
</svg>
