<svg width="24" height="24" viewBox="0 0 24 24" fill="none" xmlns="http://www.w3.org/2000/svg">
<path d="M10.996 10H11.011M11 16H11.015M7 13H15" stroke="black" stroke-width="1.5" stroke-linecap="round" stroke-linejoin="round"/>
<path d="M17.5 5C18.3284 5 19 5.67157 19 6.5C19 7.32843 18.3284 8 17.5 8C16.6716 8 16 7.32843 16 6.5C16 5.67157 16.6716 5 17.5 5Z" stroke="black" stroke-width="1.5" stroke-linecap="round" stroke-linejoin="round"/>
<path d="M2.77389 11.1435C1.77089 12.2635 1.74989 13.9535 2.66989 15.1435C4.4569 17.4633 6.5361 19.5425 8.85589 21.3295C10.0459 22.2495 11.7359 22.2285 12.8559 21.2255C15.8835 18.5173 18.7284 15.6116 21.3719 12.5275C21.6388 12.2207 21.8031 11.8382 21.8419 11.4335C22.0059 9.63749 22.3449 4.46349 20.9399 3.05949C19.5349 1.65549 14.3619 1.99349 12.5659 2.15849C12.1611 2.19727 11.7786 2.3616 11.4719 2.62849C8.38776 5.2717 5.48207 8.11626 2.77389 11.1435Z" stroke="black" stroke-width="1.5" stroke-linecap="round" stroke-linejoin="round"/>
</svg>
