<svg width="24" height="24" viewBox="0 0 24 24" fill="none" xmlns="http://www.w3.org/2000/svg">
<path d="M16.2495 10.3935L13.5442 10.0001L12.3356 7.54873C12.3011 7.49035 12.2519 7.44198 12.193 7.40837C12.1341 7.37477 12.0674 7.3571 11.9996 7.3571C11.9318 7.3571 11.8651 7.37477 11.8062 7.40837C11.7473 7.44198 11.6981 7.49035 11.6636 7.54873L10.4535 10.0001L7.74824 10.3935C7.67895 10.4035 7.61384 10.4327 7.56028 10.4778C7.50673 10.5229 7.46686 10.5821 7.4452 10.6486C7.42354 10.7152 7.42095 10.7865 7.43773 10.8545C7.4545 10.9225 7.48997 10.9844 7.54012 11.0332L9.49799 12.9412L9.03562 15.6371C9.0238 15.7061 9.03151 15.777 9.05788 15.8418C9.08425 15.9066 9.12823 15.9627 9.18484 16.0038C9.24145 16.045 9.30843 16.0694 9.37822 16.0745C9.44801 16.0795 9.51781 16.0649 9.57974 16.0324L11.9981 14.7589L14.4176 16.0312C14.4794 16.0634 14.549 16.0777 14.6184 16.0725C14.6879 16.0674 14.7546 16.043 14.811 16.002C14.8673 15.9611 14.9112 15.9053 14.9376 15.8408C14.9641 15.7764 14.972 15.7058 14.9606 15.6371L14.4986 12.9424L16.4565 11.0344C16.5066 10.9855 16.5421 10.9236 16.5589 10.8556C16.5757 10.7876 16.5731 10.7163 16.5514 10.6498C16.5297 10.5832 16.4899 10.524 16.4363 10.4789C16.3828 10.4338 16.3177 10.4046 16.2484 10.3946L16.2495 10.3935ZM13.8356 12.5419C13.7921 12.5843 13.7596 12.6367 13.7409 12.6945C13.7221 12.7523 13.7177 12.8138 13.728 12.8737L14.0951 15.0139L12.1736 14.0032C12.1197 13.9751 12.0597 13.9605 11.9989 13.9605C11.938 13.9605 11.8781 13.9751 11.8241 14.0032L9.90187 15.0139L10.269 12.8737C10.2793 12.8138 10.2749 12.7523 10.2561 12.6945C10.2374 12.6367 10.2049 12.5843 10.1614 12.5419L8.60624 11.0265L10.755 10.7141C10.8152 10.7054 10.8723 10.6821 10.9215 10.6464C10.9707 10.6107 11.0105 10.5635 11.0374 10.509L11.9981 8.56198L12.9589 10.509C12.9858 10.5635 13.0255 10.6107 13.0747 10.6464C13.1239 10.6821 13.1811 10.7054 13.2412 10.7141L15.39 11.0265L13.8356 12.5419ZM1.06912 13.4786C1.00031 13.489 0.935751 13.5183 0.882652 13.5633C0.829554 13.6082 0.790014 13.6671 0.768455 13.7332C0.746896 13.7994 0.744168 13.8702 0.760576 13.9379C0.776985 14.0055 0.811883 14.0672 0.861366 14.1161L2.38949 15.606L2.02874 17.7094C2.01921 17.7633 2.02161 17.8187 2.03578 17.8716C2.04995 17.9245 2.07553 17.9737 2.11074 18.0156C2.14595 18.0576 2.18993 18.0913 2.23957 18.1145C2.28922 18.1376 2.34334 18.1496 2.39812 18.1496C2.45889 18.1497 2.51877 18.1349 2.57249 18.1065L4.46062 17.1135L6.34912 18.1065C6.41106 18.1391 6.48091 18.1538 6.55076 18.1488C6.6206 18.1438 6.68766 18.1194 6.74433 18.0783C6.801 18.0371 6.84502 17.9809 6.8714 17.9161C6.89779 17.8512 6.90548 17.7802 6.89362 17.7112L6.53287 15.6079L8.06137 14.1184C8.11151 14.0695 8.14698 14.0076 8.16375 13.9396C8.18053 13.8716 8.17794 13.8003 8.15628 13.7338C8.13462 13.6672 8.09476 13.608 8.0412 13.5629C7.98765 13.5178 7.92253 13.4886 7.85324 13.4786L5.74124 13.1715L4.79699 11.259C4.76248 11.2005 4.71333 11.1521 4.65437 11.1184C4.59541 11.0847 4.52869 11.067 4.4608 11.067C4.39291 11.067 4.3262 11.0847 4.26724 11.1184C4.20828 11.1521 4.15912 11.2005 4.12462 11.259L3.17999 13.1715L1.06912 13.4786ZM3.76649 13.6804L4.46062 12.2715L5.15624 13.6804C5.18315 13.7349 5.22292 13.782 5.27211 13.8178C5.3213 13.8535 5.37845 13.8767 5.43862 13.8855L6.99337 14.1105L5.86837 15.2074C5.82488 15.2498 5.79236 15.3022 5.77361 15.36C5.75486 15.4178 5.75044 15.4793 5.76074 15.5392L6.02624 17.088L4.63574 16.3567C4.58191 16.3284 4.522 16.3136 4.46118 16.3136C4.40036 16.3136 4.34045 16.3284 4.28662 16.3567L2.89574 17.088L3.16124 15.5392C3.17149 15.4793 3.16702 15.4178 3.1482 15.36C3.12939 15.3022 3.0968 15.2498 3.05324 15.2074L1.92824 14.1105L3.48374 13.8855C3.54398 13.8768 3.6012 13.8536 3.65046 13.8179C3.69972 13.7821 3.73954 13.7349 3.76649 13.6804ZM15.8389 13.734C15.8175 13.8007 15.8152 13.8721 15.8323 13.94C15.8494 14.0079 15.8852 14.0697 15.9356 14.1184L17.4641 15.6079L17.1034 17.7112C17.0915 17.7802 17.0992 17.8512 17.1256 17.9161C17.152 17.9809 17.196 18.0371 17.2527 18.0783C17.3093 18.1194 17.3764 18.1438 17.4462 18.1488C17.5161 18.1538 17.5859 18.1391 17.6479 18.1065L19.5356 17.1135L21.4249 18.1065C21.4786 18.1349 21.5385 18.1497 21.5992 18.1496C21.6538 18.1496 21.7078 18.1376 21.7572 18.1146C21.8067 18.0916 21.8506 18.058 21.8858 18.0162C21.921 17.9745 21.9466 17.9256 21.9609 17.8729C21.9752 17.8202 21.9778 17.765 21.9686 17.7112L21.6079 15.6079L23.1356 14.118C23.1851 14.0691 23.22 14.0073 23.2364 13.9397C23.2528 13.8721 23.2501 13.8013 23.2285 13.7351C23.207 13.6689 23.1674 13.6101 23.1143 13.5651C23.0612 13.5202 22.9967 13.4909 22.9279 13.4805L20.8159 13.1734L19.8712 11.2609C19.8367 11.2024 19.7876 11.1539 19.7286 11.1203C19.6697 11.0866 19.6029 11.0689 19.5351 11.0689C19.4672 11.0689 19.4004 11.0866 19.3415 11.1203C19.2825 11.1539 19.2334 11.2024 19.1989 11.2609L18.2546 13.1734L16.1426 13.4805C16.0734 13.4902 16.0083 13.5191 15.9546 13.5639C15.9009 13.6087 15.8608 13.6676 15.8389 13.734ZM18.5565 13.884C18.6167 13.8752 18.6738 13.852 18.723 13.8163C18.7722 13.7805 18.812 13.7334 18.8389 13.6789L19.5356 12.2715L20.2309 13.6804C20.2578 13.7349 20.2975 13.782 20.3467 13.8178C20.3959 13.8535 20.4531 13.8767 20.5132 13.8855L22.0687 14.1105L20.9437 15.2074C20.9002 15.2498 20.8676 15.3022 20.8488 15.36C20.83 15.4178 20.8255 15.4793 20.8357 15.5392L21.1012 17.088L19.7104 16.3567C19.6565 16.3284 19.5966 16.3136 19.5358 16.3136C19.475 16.3136 19.4151 16.3284 19.3612 16.3567L17.9707 17.088L18.2362 15.5392C18.2465 15.4793 18.2421 15.4178 18.2234 15.36C18.2046 15.3022 18.1721 15.2498 18.1286 15.2074L17.0036 14.1105L18.5565 13.884ZM3.46124 9.22836C3.46124 9.32782 3.50075 9.4232 3.57108 9.49352C3.6414 9.56385 3.73678 9.60336 3.83624 9.60336H4.75199C4.85145 9.60336 4.94683 9.56385 5.01716 9.49352C5.08748 9.4232 5.12699 9.32782 5.12699 9.22836C5.12699 9.1289 5.08748 9.03352 5.01716 8.96319C4.94683 8.89287 4.85145 8.85336 4.75199 8.85336H3.83624C3.73678 8.85336 3.6414 8.89287 3.57108 8.96319C3.50075 9.03352 3.46124 9.1289 3.46124 9.22836ZM5.32799 8.15323C5.40215 8.15322 5.47463 8.13122 5.53629 8.09001C5.59794 8.0488 5.64599 7.99024 5.67437 7.92173C5.70275 7.85322 5.71017 7.77783 5.69571 7.7051C5.68125 7.63236 5.64555 7.56555 5.59312 7.51311L4.86974 6.79011C4.83515 6.75429 4.79377 6.72572 4.74802 6.70607C4.70227 6.68642 4.65306 6.67607 4.60327 6.67564C4.55347 6.67521 4.50409 6.6847 4.45801 6.70355C4.41192 6.72241 4.37005 6.75025 4.33484 6.78546C4.29963 6.82067 4.27179 6.86254 4.25293 6.90863C4.23408 6.95471 4.22459 7.00409 4.22502 7.05388C4.22546 7.10368 4.2358 7.15288 4.25545 7.19864C4.27511 7.24439 4.30367 7.28577 4.33949 7.32036L5.06287 8.04336C5.09759 8.0783 5.13891 8.106 5.18442 8.12486C5.22993 8.14372 5.27873 8.15337 5.32799 8.15323ZM7.11149 7.71486V6.22461C7.11149 6.12515 7.07198 6.02977 7.00166 5.95944C6.93133 5.88912 6.83595 5.84961 6.73649 5.84961C6.63704 5.84961 6.54165 5.88912 6.47133 5.95944C6.401 6.02977 6.36149 6.12515 6.36149 6.22461V7.71486C6.36149 7.81432 6.401 7.9097 6.47133 7.98002C6.54165 8.05035 6.63704 8.08986 6.73649 8.08986C6.83595 8.08986 6.93133 8.05035 7.00166 7.98002C7.07198 7.9097 7.11149 7.81432 7.11149 7.71486ZM18.8692 9.22836C18.8692 9.32782 18.9088 9.4232 18.9791 9.49352C19.0494 9.56385 19.1448 9.60336 19.2442 9.60336H20.16C20.2594 9.60336 20.3548 9.56385 20.4252 9.49352C20.4955 9.4232 20.535 9.32782 20.535 9.22836C20.535 9.1289 20.4955 9.03352 20.4252 8.96319C20.3548 8.89287 20.2594 8.85336 20.16 8.85336H19.2442C19.1448 8.85336 19.0494 8.89287 18.9791 8.96319C18.9088 9.03352 18.8692 9.1289 18.8692 9.22836ZM19.1265 6.79011L18.4031 7.51311C18.3673 7.5477 18.3387 7.58908 18.3191 7.63483C18.2994 7.68058 18.2891 7.72979 18.2886 7.77958C18.2882 7.82938 18.2977 7.87876 18.3166 7.92484C18.3354 7.97093 18.3633 8.0128 18.3985 8.04801C18.4337 8.08322 18.4755 8.11106 18.5216 8.12992C18.5677 8.14877 18.6171 8.15826 18.6669 8.15783C18.7167 8.1574 18.7659 8.14705 18.8116 8.1274C18.8574 8.10774 18.8988 8.07918 18.9334 8.04336L19.6567 7.32036C19.6926 7.28577 19.7211 7.24439 19.7408 7.19864C19.7604 7.15288 19.7708 7.10368 19.7712 7.05388C19.7716 7.00409 19.7622 6.95471 19.7433 6.90863C19.7244 6.86254 19.6966 6.82067 19.6614 6.78546C19.6262 6.75025 19.5843 6.72241 19.5382 6.70355C19.4921 6.6847 19.4428 6.67521 19.393 6.67564C19.3432 6.67607 19.294 6.68642 19.2482 6.70607C19.2025 6.72572 19.1611 6.75429 19.1265 6.79011ZM17.6347 7.71486V6.22461C17.6347 6.12515 17.5952 6.02977 17.5249 5.95944C17.4546 5.88912 17.3592 5.84961 17.2597 5.84961C17.1603 5.84961 17.0649 5.88912 16.9946 5.95944C16.9243 6.02977 16.8847 6.12515 16.8847 6.22461V7.71486C16.8847 7.81432 16.9243 7.9097 16.9946 7.98002C17.0649 8.05035 17.1603 8.08986 17.2597 8.08986C17.3592 8.08986 17.4546 8.05035 17.5249 7.98002C17.5952 7.9097 17.6347 7.81432 17.6347 7.71486Z" fill="black"/>
</svg>
