<svg width="24" height="24" viewBox="0 0 24 24" fill="none" xmlns="http://www.w3.org/2000/svg">
<path d="M17.7137 6.24679C17.6001 6.24679 17.4911 6.20164 17.4107 6.12127C17.3303 6.04089 17.2852 5.93188 17.2852 5.81822C17.2852 5.70456 17.3303 5.59555 17.4107 5.51517C17.4911 5.4348 17.6001 5.38965 17.7137 5.38965M17.7137 6.24679C17.8274 6.24679 17.9364 6.20164 18.0168 6.12127C18.0971 6.04089 18.1423 5.93188 18.1423 5.81822C18.1423 5.70456 18.0971 5.59555 18.0168 5.51517C17.9364 5.4348 17.8274 5.38965 17.7137 5.38965" stroke="#1D9E50" stroke-width="1.5" stroke-linecap="round" stroke-linejoin="round"/>
<path d="M1.47046 5.88156C1.47046 4.71173 1.93518 3.58981 2.76237 2.76261C3.58957 1.93542 4.71149 1.4707 5.88132 1.4707H17.6447C18.224 1.4707 18.7976 1.58479 19.3327 1.80646C19.8679 2.02813 20.3541 2.35303 20.7637 2.76261C21.1733 3.1722 21.4982 3.65845 21.7199 4.1936C21.9415 4.72875 22.0556 5.30232 22.0556 5.88156V17.645C22.0556 18.8148 21.5909 19.9367 20.7637 20.7639C19.9365 21.5911 18.8146 22.0558 17.6447 22.0558H5.87961C4.70978 22.0558 3.58786 21.5911 2.76066 20.7639C1.93346 19.9367 1.46875 18.8148 1.46875 17.645V5.87985L1.47046 5.88156Z" stroke="#1D9E50" stroke-width="1.5" stroke-linecap="round" stroke-linejoin="round"/>
<path d="M7.39258 11.763C7.39258 12.3371 7.50565 12.9055 7.72533 13.4359C7.94502 13.9663 8.26702 14.4482 8.67294 14.8541C9.07886 15.26 9.56077 15.582 10.0911 15.8017C10.6215 16.0214 11.1899 16.1345 11.764 16.1345C12.3381 16.1345 12.9065 16.0214 13.4369 15.8017C13.9672 15.582 14.4491 15.26 14.8551 14.8541C15.261 14.4482 15.583 13.9663 15.8027 13.4359C16.0224 12.9055 16.1354 12.3371 16.1354 11.763C16.1354 10.6037 15.6749 9.49177 14.8551 8.67196C14.0353 7.85216 12.9234 7.3916 11.764 7.3916C10.6046 7.3916 9.49274 7.85216 8.67294 8.67196C7.85314 9.49177 7.39258 10.6037 7.39258 11.763Z" stroke="#1D9E50" stroke-width="1.5" stroke-linecap="round" stroke-linejoin="round"/>
</svg>
