<svg width="24" height="24" viewBox="0 0 24 24" fill="none" xmlns="http://www.w3.org/2000/svg">
<path fill-rule="evenodd" clip-rule="evenodd" d="M21 6.6738C21 8.7024 19.3548 10.3476 17.3262 10.3476C15.2976 10.3476 13.6533 8.7024 13.6533 6.6738C13.6533 4.6452 15.2976 3 17.3262 3C19.3548 3 21 4.6452 21 6.6738Z" fill="#1D9E50" stroke="#1D9E50" stroke-width="1.5" stroke-linecap="round" stroke-linejoin="round"/>
<path fill-rule="evenodd" clip-rule="evenodd" d="M10.3467 6.6738C10.3467 8.7024 8.7024 10.3476 6.6729 10.3476C4.6452 10.3476 3 8.7024 3 6.6738C3 4.6452 4.6452 3 6.6729 3C8.7024 3 10.3467 4.6452 10.3467 6.6738Z" fill="#1D9E50" stroke="#1D9E50" stroke-width="1.5" stroke-linecap="round" stroke-linejoin="round"/>
<path fill-rule="evenodd" clip-rule="evenodd" d="M21 17.2622C21 19.2908 19.3548 20.9351 17.3262 20.9351C15.2976 20.9351 13.6533 19.2908 13.6533 17.2622C13.6533 15.2336 15.2976 13.5884 17.3262 13.5884C19.3548 13.5884 21 15.2336 21 17.2622Z" fill="#1D9E50" stroke="#1D9E50" stroke-width="1.5" stroke-linecap="round" stroke-linejoin="round"/>
<path fill-rule="evenodd" clip-rule="evenodd" d="M10.3467 17.2622C10.3467 19.2908 8.7024 20.9351 6.6729 20.9351C4.6452 20.9351 3 19.2908 3 17.2622C3 15.2336 4.6452 13.5884 6.6729 13.5884C8.7024 13.5884 10.3467 15.2336 10.3467 17.2622Z" fill="#1D9E50" stroke="#1D9E50" stroke-width="1.5" stroke-linecap="round" stroke-linejoin="round"/>
</svg>
