<svg width="20" height="20" viewBox="0 0 20 20" fill="none" xmlns="http://www.w3.org/2000/svg">
<g clip-path="url(#clip0_1076_7917)">
<path d="M11 6.25V2H4.75C4.33437 2 4 2.33437 4 2.75V17.25C4 17.6656 4.33437 18 4.75 18H15.25C15.6656 18 16 17.6656 16 17.25V7H11.75C11.3375 7 11 6.6625 11 6.25ZM13 13.625C13 13.8313 12.8313 14 12.625 14H7.375C7.16875 14 7 13.8313 7 13.625V13.375C7 13.1687 7.16875 13 7.375 13H12.625C12.8313 13 13 13.1687 13 13.375V13.625ZM13 11.625C13 11.8313 12.8313 12 12.625 12H7.375C7.16875 12 7 11.8313 7 11.625V11.375C7 11.1687 7.16875 11 7.375 11H12.625C12.8313 11 13 11.1687 13 11.375V11.625ZM13 9.375V9.625C13 9.83125 12.8313 10 12.625 10H7.375C7.16875 10 7 9.83125 7 9.625V9.375C7 9.16875 7.16875 9 7.375 9H12.625C12.8313 9 13 9.16875 13 9.375ZM16 5.80938V6H12V2H12.1906C12.3906 2 12.5813 2.07812 12.7219 2.21875L15.7812 5.28125C15.9219 5.42188 16 5.6125 16 5.80938Z" fill="#1D9E50"/>
</g>
<defs>
<clipPath id="clip0_1076_7917">
<rect width="12" height="16" fill="white" transform="translate(4 2)"/>
</clipPath>
</defs>
</svg>
