<svg width="22" height="22" viewBox="0 0 22 22" fill="none" xmlns="http://www.w3.org/2000/svg">
<path d="M19.866 13.1688C20.0026 12.9021 20.0961 12.6115 20.1392 12.3053C20.2427 11.5775 20.0576 10.8533 19.6167 10.2648C18.7073 9.05392 16.9794 8.80642 15.7667 9.71575C15.3019 10.0641 14.9435 10.4931 14.6667 10.9404C14.3898 10.494 14.0314 10.0641 13.5667 9.71575C12.9791 9.27575 12.2549 9.08967 11.528 9.19325C10.8011 9.29683 10.1576 9.67725 9.71575 10.2658C9.27575 10.8533 9.08967 11.5775 9.19417 12.3053C9.23817 12.6106 9.33075 12.9012 9.46733 13.1688C8.20875 13.75 7.33333 15.0242 7.33333 16.5V18.3333C7.33333 19.0007 7.513 19.6268 7.82558 20.1667H4.58333C3.06717 20.1667 1.83333 18.9328 1.83333 17.4167V8.25C1.83333 6.73383 3.06717 5.5 4.58333 5.5H10.0833C11.3392 5.5 12.4337 6.34792 12.7472 7.56158C12.8737 8.052 13.3714 8.34625 13.8637 8.22158C14.3541 8.09508 14.6483 7.59458 14.5228 7.10508C14.0021 5.08017 12.1761 3.66667 10.0843 3.66667H9.54708L10.7323 2.48142C11.0908 2.123 11.0908 1.54367 10.7323 1.18525C10.3739 0.826833 9.79458 0.826833 9.43617 1.18525L8.25092 2.3705V0.916667C8.25092 0.40975 7.84025 0 7.33425 0C6.82825 0 6.41758 0.40975 6.41758 0.916667V2.3705L5.23233 1.18525C4.87392 0.826833 4.29458 0.826833 3.93617 1.18525C3.57775 1.54367 3.57775 2.123 3.93617 2.48142L5.12142 3.66667H4.58425C2.05608 3.66667 0 5.72275 0 8.25V17.4167C0 19.9439 2.05608 22 4.58333 22H18.3333C20.3555 22 22 20.3555 22 18.3333V16.5C22 15.0251 21.1246 13.7509 19.866 13.1688ZM16.8667 11.1833C17.0619 11.0367 17.3021 10.9734 17.5468 11.0092C17.7888 11.044 18.0033 11.1714 18.15 11.3667C18.2976 11.5628 18.359 11.8048 18.3242 12.0468C18.2893 12.2888 18.1628 12.5033 17.9658 12.6509C17.8732 12.7197 17.7696 12.7811 17.6578 12.8333H15.8006C15.9821 12.2742 16.3038 11.605 16.8667 11.1833V11.1833ZM11.1833 11.3667C11.3309 11.1705 11.5454 11.0431 11.7874 11.0083C12.0294 10.9734 12.2705 11.0358 12.4676 11.1824C13.0304 11.6041 13.3522 12.2732 13.5337 12.8324H11.6774C11.5647 12.7802 11.4602 12.7188 11.3667 12.6482C11.1714 12.5024 11.044 12.287 11.0092 12.0459C10.9743 11.803 11.0358 11.5619 11.1824 11.3667H11.1833ZM9.16667 18.3333V16.5C9.16667 15.4889 9.98892 14.6667 11 14.6667H13.75V20.1667H11C9.98892 20.1667 9.16667 19.3444 9.16667 18.3333ZM20.1667 18.3333C20.1667 19.3444 19.3444 20.1667 18.3333 20.1667H15.5833L15.5806 14.6667H18.3333C19.3444 14.6667 20.1667 15.4889 20.1667 16.5V18.3333Z" fill="#1C8B89"/>
</svg>
