<svg width="24" height="24" viewBox="0 0 24 24" fill="none" xmlns="http://www.w3.org/2000/svg">
<g clip-path="url(#clip0_4915_73599)">
<path d="M5.34834 6.20436C5.44252 6.20436 5.53283 6.16695 5.59942 6.10036C5.66601 6.03377 5.70342 5.94345 5.70342 5.84928C5.70342 5.75511 5.66601 5.66479 5.59942 5.5982C5.53283 5.53161 5.44252 5.4942 5.34834 5.4942H3.15483C3.06066 5.4942 2.97034 5.53161 2.90375 5.5982C2.83716 5.66479 2.79975 5.75511 2.79975 5.84928C2.79975 5.94345 2.83716 6.03377 2.90375 6.10036C2.97034 6.16695 3.06066 6.20436 3.15483 6.20436H5.34834ZM5.35992 7.70684H4.25841C4.16423 7.70684 4.07392 7.74425 4.00733 7.81084C3.94074 7.87743 3.90333 7.96775 3.90333 8.06192C3.90333 8.15609 3.94074 8.24641 4.00733 8.313C4.07392 8.37959 4.16423 8.417 4.25841 8.417H5.35992C5.45409 8.417 5.54441 8.37959 5.611 8.313C5.67759 8.24641 5.715 8.15609 5.715 8.06192C5.715 7.96775 5.67759 7.87743 5.611 7.81084C5.54441 7.74425 5.45409 7.70684 5.35992 7.70684ZM0.28125 10.2744C0.281262 10.3685 0.318676 10.4589 0.385264 10.5254C0.451851 10.592 0.542159 10.6294 0.636328 10.6295H5.31764C5.41181 10.6295 5.50213 10.592 5.56872 10.5255C5.63531 10.4589 5.67272 10.3685 5.67272 10.2744C5.67272 10.1802 5.63531 10.0899 5.56872 10.0233C5.50213 9.9567 5.41181 9.9193 5.31764 9.9193H0.636281C0.542117 9.91931 0.451813 9.95672 0.385233 10.0233C0.318653 10.0899 0.28125 10.1802 0.28125 10.2744ZM3.94725 12.1318C3.85308 12.1318 3.76276 12.1692 3.69617 12.2358C3.62958 12.3024 3.59217 12.3927 3.59217 12.4869C3.59217 12.581 3.62958 12.6714 3.69617 12.738C3.76276 12.8045 3.85308 12.842 3.94725 12.842H5.33123C5.42541 12.842 5.51572 12.8045 5.58231 12.738C5.6489 12.6714 5.68631 12.581 5.68631 12.4869C5.68631 12.3927 5.6489 12.3024 5.58231 12.2358C5.51572 12.1692 5.42541 12.1318 5.33123 12.1318H3.94725ZM5.68772 14.6994C5.68771 14.6053 5.65029 14.5149 5.5837 14.4484C5.51712 14.3818 5.42681 14.3444 5.33264 14.3443H3.38114C3.28697 14.3443 3.19665 14.3818 3.13006 14.4483C3.06347 14.5149 3.02606 14.6052 3.02606 14.6994C3.02606 14.7936 3.06347 14.8839 3.13006 14.9505C3.19665 15.0171 3.28697 15.0545 3.38114 15.0545H5.33264C5.42681 15.0545 5.51713 15.0171 5.58372 14.9505C5.65031 14.8839 5.68772 14.7936 5.68772 14.6994ZM23.7157 14.943V5.6097C23.7157 5.4928 23.6458 5.36323 23.5357 5.29901L15.527 0.630405C15.4727 0.598725 15.411 0.582031 15.3481 0.582031C15.2852 0.582031 15.2235 0.598725 15.1692 0.630405L7.16072 5.29901C7.05581 5.36014 6.98062 5.47578 6.98062 5.6097V14.943C6.9806 15.0051 6.99688 15.0661 7.02783 15.1199C7.05879 15.1738 7.10333 15.2185 7.15701 15.2497L8.5072 16.0364C8.47758 16.2695 8.49806 16.0892 8.49173 19.705C8.49173 20.6617 9.27005 21.4401 10.2269 21.4401H13.5286L14.7766 23.075C14.9424 23.2923 15.1941 23.4169 15.4676 23.4169C15.7408 23.4169 15.9928 23.2922 16.1587 23.0747L17.4047 21.4401H20.7062C21.663 21.4401 22.4414 20.6607 22.4414 19.7027C22.4295 16.1062 22.4681 16.2131 22.4066 15.9098L23.5394 15.2497C23.5931 15.2185 23.6376 15.1737 23.6686 15.1199C23.6995 15.0661 23.7158 15.0051 23.7157 14.943ZM22.6517 5.60576L19.6202 7.37295L12.3166 3.11539L15.3481 1.34816L22.6517 5.60576ZM15.3481 9.86337L8.04469 5.60576L11.6115 3.52648L18.915 7.78405L15.3481 9.86337ZM7.69073 14.739V6.22156L14.993 10.4785V14.5187H10.2292C9.60159 14.5187 9.05231 14.8543 8.74692 15.3544L7.69073 14.739ZM21.7312 19.7027C21.7312 20.2692 21.2714 20.73 20.7062 20.73H17.2288C17.1741 20.73 17.1202 20.7426 17.0712 20.7669C17.0222 20.7911 16.9795 20.8264 16.9463 20.8699L15.594 22.6442C15.5524 22.6987 15.497 22.7068 15.4674 22.7068C15.4429 22.707 15.4187 22.7014 15.3968 22.6906C15.3749 22.6797 15.3558 22.6639 15.3412 22.6443L13.9865 20.8696C13.9534 20.8262 13.9107 20.791 13.8617 20.7668C13.8128 20.7426 13.7589 20.73 13.7043 20.73H10.2269C9.66164 20.73 9.20189 20.2702 9.20189 19.705V16.2561C9.20189 15.6897 9.66281 15.2288 10.2292 15.2288H20.7063C21.2715 15.2288 21.7312 15.6897 21.7312 16.2561L21.7312 19.7027ZM22.1213 15.2541C21.8067 14.81 21.2902 14.5187 20.7062 14.5187H15.7031V10.4785L19.2786 8.39422V10.2744C19.2801 10.3676 19.3181 10.4564 19.3846 10.5218C19.451 10.5871 19.5405 10.6238 19.6336 10.6238C19.7268 10.6238 19.8163 10.5871 19.8827 10.5218C19.9491 10.4564 19.9872 10.3676 19.9887 10.2744V7.98026L23.0056 6.22156V14.7388L22.1213 15.2541Z" fill="black"/>
<path d="M12.1023 16.4238H10.734C10.6398 16.4238 10.5495 16.4612 10.4829 16.5278C10.4163 16.5944 10.3789 16.6847 10.3789 16.7789V19.1807C10.3804 19.2739 10.4185 19.3627 10.4849 19.4281C10.5513 19.4934 10.6408 19.53 10.734 19.53C10.8272 19.53 10.9166 19.4934 10.983 19.4281C11.0495 19.3627 11.0875 19.2739 11.0891 19.1807V18.5459H11.9088C12.0029 18.5459 12.0933 18.5085 12.1598 18.4419C12.2264 18.3753 12.2638 18.285 12.2638 18.1908C12.2638 18.0967 12.2264 18.0063 12.1598 17.9397C12.0933 17.8732 12.0029 17.8358 11.9088 17.8358H11.0891V17.1339H12.1023C12.1957 17.1329 12.285 17.095 12.3507 17.0285C12.4164 16.962 12.4533 16.8723 12.4533 16.7789C12.4533 16.6854 12.4164 16.5957 12.3507 16.5293C12.285 16.4628 12.1957 16.4249 12.1023 16.4238ZM17.491 17.134C17.5851 17.134 17.6755 17.0966 17.742 17.03C17.8086 16.9634 17.846 16.8731 17.846 16.7789C17.846 16.6847 17.8086 16.5944 17.742 16.5278C17.6755 16.4612 17.5851 16.4238 17.491 16.4238H16.1227C16.0285 16.4238 15.9382 16.4612 15.8716 16.5278C15.805 16.5944 15.7676 16.6847 15.7676 16.7789V19.1807C15.7676 19.2749 15.805 19.3652 15.8716 19.4318C15.9382 19.4983 16.0285 19.5358 16.1227 19.5358H17.491C17.5851 19.5358 17.6755 19.4984 17.742 19.4318C17.8086 19.3652 17.846 19.2749 17.846 19.1807C17.846 19.0865 17.8086 18.9962 17.742 18.9296C17.6755 18.863 17.5851 18.8256 17.491 18.8256H16.4778V18.3348H17.2975C17.3916 18.3348 17.482 18.2974 17.5485 18.2308C17.6151 18.1642 17.6525 18.0739 17.6525 17.9797C17.6525 17.8856 17.6151 17.7953 17.5485 17.7287C17.482 17.6621 17.3916 17.6247 17.2975 17.6247H16.4778V17.1339H17.491V17.134ZM20.2002 17.134C20.2944 17.134 20.3847 17.0966 20.4513 17.03C20.5179 16.9634 20.5553 16.8731 20.5553 16.7789C20.5553 16.6847 20.5179 16.5944 20.4513 16.5278C20.3847 16.4612 20.2944 16.4238 20.2002 16.4238H18.8319C18.7378 16.4238 18.6474 16.4612 18.5808 16.5278C18.5143 16.5944 18.4768 16.6847 18.4768 16.7789V19.1807C18.4769 19.2749 18.5143 19.3652 18.5809 19.4318C18.6474 19.4983 18.7378 19.5358 18.8319 19.5358H20.2002C20.2944 19.5358 20.3847 19.4984 20.4513 19.4318C20.5179 19.3652 20.5553 19.2749 20.5553 19.1807C20.5553 19.0865 20.5179 18.9962 20.4513 18.9296C20.3847 18.863 20.2944 18.8256 20.2002 18.8256H19.187V18.3348H20.0067C20.1009 18.3348 20.1912 18.2974 20.2578 18.2308C20.3244 18.1642 20.3618 18.0739 20.3618 17.9797C20.3618 17.8856 20.3244 17.7953 20.2578 17.7287C20.1912 17.6621 20.1009 17.6247 20.0067 17.6247H19.187V17.1339H20.2002V17.134ZM14.4946 18.2581C14.7931 18.0893 14.9974 17.7728 14.9974 17.4062C14.9974 16.8645 14.5566 16.4239 14.015 16.4239H13.274C13.1799 16.4239 13.0896 16.4613 13.023 16.5279C12.9564 16.5945 12.919 16.6848 12.919 16.779V19.1807C12.9205 19.2739 12.9586 19.3628 13.025 19.4281C13.0914 19.4935 13.1809 19.5301 13.274 19.5301C13.3672 19.5301 13.4567 19.4935 13.5231 19.4281C13.5895 19.3628 13.6276 19.2739 13.6291 19.1807V18.3885H13.7258L14.3947 19.3794C14.5051 19.5427 14.7262 19.5842 14.8876 19.475C14.9263 19.449 14.9594 19.4155 14.9852 19.3766C15.0109 19.3378 15.0287 19.2942 15.0376 19.2484C15.0465 19.2026 15.0463 19.1555 15.037 19.1098C15.0276 19.0641 15.0094 19.0207 14.9833 18.9821L14.4946 18.2581ZM13.6291 17.134H14.015C14.1652 17.134 14.2873 17.256 14.2873 17.4062C14.2873 17.5563 14.1652 17.6784 14.015 17.6784H13.6291V17.134Z" fill="black"/>
</g>
<defs>
<clipPath id="clip0_4915_73599">
<rect width="24" height="24" fill="white"/>
</clipPath>
</defs>
</svg>
