<svg width="24" height="25" viewBox="0 0 24 25" fill="none" xmlns="http://www.w3.org/2000/svg">
<path d="M14.1926 4.57575C15.1685 1.81948 18.9033 1.7994 19.8832 4.56772C19.9002 4.61591 19.9345 4.64001 19.9863 4.64001C20.9171 4.64179 21.8925 4.64179 22.9126 4.64001C24.0584 4.63867 24.0678 6.29592 22.9179 6.30261C21.9648 6.30707 20.9925 6.30752 20.001 6.30395C19.9752 6.30394 19.9501 6.31194 19.9292 6.32683C19.9083 6.34172 19.8927 6.36275 19.8845 6.38695C18.914 9.14724 15.2193 9.11377 14.2046 6.39632C14.1948 6.37002 14.1771 6.34734 14.1539 6.33131C14.1307 6.31529 14.1031 6.30667 14.0748 6.30663C9.80184 6.29859 5.83364 6.30127 2.1702 6.31466C1.81412 6.31555 1.56201 6.27628 1.41387 6.19686C0.830218 5.88228 0.859668 4.92113 1.52899 4.7056C1.67357 4.6592 1.82662 4.63599 1.98815 4.63599C6.05675 4.64224 10.0946 4.64358 14.1016 4.64001C14.1471 4.64001 14.1774 4.61859 14.1926 4.57575ZM18.325 5.47399C18.325 5.30294 18.2913 5.13357 18.2259 4.97554C18.1604 4.81751 18.0645 4.67393 17.9435 4.55298C17.8226 4.43203 17.679 4.33609 17.521 4.27063C17.3629 4.20517 17.1936 4.17148 17.0225 4.17148C16.6771 4.17148 16.3458 4.30871 16.1015 4.55298C15.8572 4.79724 15.72 5.12854 15.72 5.47399C15.72 5.81943 15.8572 6.15073 16.1015 6.395C16.3458 6.63926 16.6771 6.77649 17.0225 6.77649C17.1936 6.77649 17.3629 6.7428 17.521 6.67734C17.679 6.61189 17.8226 6.51595 17.9435 6.395C18.0645 6.27405 18.1604 6.13046 18.2259 5.97243C18.2913 5.81441 18.325 5.64503 18.325 5.47399Z" fill="#64748B"/>
<path d="M9.98134 11.3355C13.8572 11.3346 18.1761 11.3337 22.9381 11.3328C24.0532 11.3328 24.0465 12.9967 22.9368 12.9981C18.6602 12.9999 14.34 12.9999 9.97599 12.9981C9.94621 12.998 9.91711 13.0073 9.89267 13.0245C9.86823 13.0418 9.84964 13.0662 9.83945 13.0945C8.85554 15.8427 5.19166 15.7999 4.16626 13.0971C4.14216 13.0329 4.09576 13.0007 4.02704 13.0007C3.40055 12.9945 2.7339 12.9963 2.0271 13.0061C1.80756 13.0097 1.61747 12.9775 1.45683 12.9097C0.960195 12.6982 0.861135 12.0155 1.1958 11.6206C1.35911 11.4278 1.59427 11.3319 1.90127 11.3328C2.64823 11.3355 3.36441 11.3355 4.0498 11.3328C4.07403 11.3328 4.09763 11.3253 4.11731 11.3114C4.13698 11.2975 4.15175 11.2778 4.15956 11.2552C5.1341 8.52297 8.82475 8.49218 9.83142 11.2311C9.8573 11.3007 9.90727 11.3355 9.98134 11.3355ZM8.28929 12.1641C8.28929 11.8179 8.15178 11.486 7.90702 11.2412C7.66225 10.9964 7.33027 10.8589 6.98411 10.8589C6.63796 10.8589 6.30598 10.9964 6.06121 11.2412C5.81644 11.486 5.67893 11.8179 5.67893 12.1641C5.67893 12.5102 5.81644 12.8422 6.06121 13.087C6.30598 13.3318 6.63796 13.4693 6.98411 13.4693C7.33027 13.4693 7.66225 13.3318 7.90702 13.087C8.15178 12.8422 8.28929 12.5102 8.28929 12.1641Z" fill="#64748B"/>
<path d="M15.8568 20.4669C14.9117 23.2165 11.1796 23.1415 10.1916 20.4588C10.1815 20.4309 10.163 20.4068 10.1389 20.3898C10.1147 20.3728 10.0859 20.3637 10.0564 20.3638C7.2908 20.362 4.56442 20.362 1.87731 20.3638C0.708666 20.3638 0.711343 18.6985 1.8666 18.6985C4.72506 18.6958 7.45813 18.6967 10.0658 18.7012C10.0892 18.7012 10.1119 18.6941 10.131 18.6809C10.1501 18.6678 10.1648 18.6492 10.1729 18.6276C10.6022 17.5022 11.3728 16.8293 12.4848 16.6089C13.9773 16.3144 15.3562 17.1845 15.8635 18.6155C15.8717 18.6383 15.8867 18.6579 15.9063 18.6718C15.926 18.6857 15.9493 18.6932 15.9733 18.6932C17.9991 18.7003 20.2681 18.6994 22.7803 18.6905C23.0213 18.6896 23.2158 18.7293 23.3639 18.8096C24.0855 19.2019 23.8244 20.3584 22.953 20.3598C20.4087 20.3634 18.0919 20.3643 16.0027 20.3625C15.9286 20.3616 15.88 20.3964 15.8568 20.4669ZM14.312 19.5271C14.312 19.1813 14.1746 18.8497 13.9301 18.6052C13.6856 18.3607 13.354 18.2233 13.0082 18.2233C12.6624 18.2233 12.3307 18.3607 12.0862 18.6052C11.8417 18.8497 11.7043 19.1813 11.7043 19.5271C11.7043 19.8729 11.8417 20.2046 12.0862 20.4491C12.3307 20.6936 12.6624 20.831 13.0082 20.831C13.354 20.831 13.6856 20.6936 13.9301 20.4491C14.1746 20.2046 14.312 19.8729 14.312 19.5271Z" fill="#64748B"/>
</svg>
