<svg width="36" height="36" viewBox="0 0 36 36" fill="none" xmlns="http://www.w3.org/2000/svg">
<rect width="36" height="36" rx="6" fill="#FDFDFD"/>
<rect x="0.5" y="0.5" width="35" height="35" rx="5.5" stroke="#EEEEEE" stroke-opacity="0.933333"/>
<path d="M23.3648 19.8473V23.2073C23.3646 23.6827 23.1756 24.1386 22.8395 24.4748C22.5033 24.8109 22.0474 24.9999 21.572 25.0001H12.7928C12.5565 25 12.3226 24.9532 12.1044 24.8624C11.8862 24.7716 11.6882 24.6386 11.5216 24.471C11.355 24.3034 11.2232 24.1046 11.1337 23.8859C11.0441 23.6672 10.9987 23.433 11 23.1967V14.4273C10.9986 14.1914 11.0441 13.9576 11.1337 13.7393C11.2233 13.5211 11.3554 13.3228 11.5222 13.156C11.689 12.9892 11.8873 12.8571 12.1055 12.7675C12.3238 12.6778 12.5576 12.6324 12.7936 12.6338H16.1528" stroke="#1D9E50" stroke-width="1.5" stroke-linecap="round" stroke-linejoin="round"/>
<path d="M23.364 15.7259L20.2726 12.6337M14.0898 20.8779V19.2395C14.0914 18.9694 14.1988 18.7098 14.3888 18.5183L21.6022 11.3049C21.698 11.2083 21.812 11.1316 21.9376 11.0793C22.0632 11.0269 22.198 11 22.334 11C22.4701 11 22.6048 11.0269 22.7304 11.0793C22.856 11.1316 22.97 11.2083 23.0658 11.3049L24.6936 12.9327C24.7904 13.0284 24.8672 13.1423 24.9197 13.268C24.9721 13.3936 24.9991 13.5283 24.9991 13.6645C24.9991 13.8006 24.9721 13.9353 24.9197 14.061C24.8672 14.1866 24.7904 14.3005 24.6936 14.3962L17.4801 21.6097C17.2883 21.8001 17.0293 21.9075 16.7589 21.9086H15.1206C14.8472 21.9086 14.585 21.8 14.3917 21.6067C14.1984 21.4134 14.0898 21.1513 14.0898 20.8779Z" stroke="#1D9E50" stroke-width="1.5" stroke-linecap="round" stroke-linejoin="round"/>
</svg>
