<svg width="77" height="76" viewBox="0 0 77 76" fill="none" xmlns="http://www.w3.org/2000/svg">
<path d="M38.5008 51.7516C41.8528 51.7516 44.5784 54.4716 44.5728 57.8292C44.5728 61.1836 41.8528 63.8964 38.5008 63.8964C35.1472 63.8964 32.4288 61.182 32.4288 57.8292C32.4288 54.4764 35.1472 51.7572 38.5008 51.7516ZM35.9408 12.1012H41.0656C43.4704 12.1012 45.4056 14.334 45.4056 17.1092L43.884 41.7076C43.884 44.482 41.9424 46.7156 38.5008 46.7156C35.0592 46.7156 33.1232 44.4828 33.1232 41.7076L31.6 17.1092C31.6024 14.3356 33.5384 12.1012 35.9424 12.1012H35.9408ZM38.5008 0.00195312C17.5168 0.00195313 0.5 17.0124 0.5 38.0028C0.5 58.9868 17.5144 75.9972 38.5008 75.9972C59.4848 76.0036 76.5 58.9868 76.5 38.0028C76.5 17.0124 59.4856 0.00195312 38.5008 0.00195312Z" fill="#1d9e50"/>
</svg>
