<svg width="24" height="24" viewBox="0 0 24 24" fill="none" xmlns="http://www.w3.org/2000/svg">
<g clip-path="url(#clip0_4912_65968)">
<path d="M20.1436 6.34041C20.1349 6.24744 20.0919 6.16105 20.0229 6.09815C19.9539 6.03525 19.8639 6.00035 19.7705 6.00029H18.0001V4.50029C18.0015 3.79387 17.821 3.09899 17.4762 2.48246C17.1313 1.86594 16.6337 1.3485 16.031 0.979916C15.4284 0.611329 14.7411 0.403986 14.0351 0.377825C13.3292 0.351664 12.6284 0.507565 12.0001 0.830538C11.3719 0.507565 10.6711 0.351664 9.96513 0.377825C9.2592 0.403986 8.57187 0.611329 7.96923 0.979916C7.3666 1.3485 6.86893 1.86594 6.52407 2.48246C6.17922 3.09899 5.99879 3.79387 6.00012 4.50029V6.00029H3.85513C3.76168 6.00026 3.6716 6.03511 3.60251 6.09802C3.53343 6.16094 3.49032 6.24738 3.48163 6.34041L1.87663 23.5904C1.87177 23.6424 1.87782 23.6948 1.89438 23.7443C1.91095 23.7938 1.93766 23.8393 1.97282 23.8779C2.00798 23.9164 2.0508 23.9473 2.09855 23.9683C2.1463 23.9894 2.19793 24.0003 2.25013 24.0003H21.3751C21.4273 24.0003 21.4789 23.9894 21.5267 23.9683C21.5744 23.9473 21.6173 23.9164 21.6524 23.8779C21.6876 23.8393 21.7143 23.7938 21.7309 23.7443C21.7474 23.6948 21.7535 23.6424 21.7486 23.5904L20.1436 6.34041ZM13.8751 1.12529C14.7699 1.12628 15.6278 1.48218 16.2605 2.1149C16.8932 2.74762 17.2491 3.60549 17.2501 4.50029V6.00029H14.2501V4.50029C14.2502 3.89272 14.1159 3.29266 13.8567 2.74314C13.5976 2.19361 13.2201 1.70822 12.7512 1.32179C13.1119 1.19255 13.492 1.12609 13.8751 1.12529ZM12.0001 1.69604C12.4614 2.00413 12.8396 2.42121 13.1013 2.91034C13.3629 3.39947 13.4999 3.94557 13.5001 4.50029V6.00029H10.5001V4.50029C10.5004 3.94557 10.6374 3.39947 10.899 2.91034C11.1606 2.42121 11.5388 2.00413 12.0001 1.69604ZM6.75012 4.50029C6.74862 3.96004 6.87718 3.42736 7.12496 2.94728C7.37274 2.4672 7.73245 2.05382 8.17369 1.74209C8.61492 1.43035 9.12472 1.22941 9.66 1.15625C10.1953 1.0831 10.7403 1.13988 11.249 1.32179C10.7802 1.70822 10.4026 2.19361 10.1435 2.74314C9.88437 3.29266 9.75003 3.89272 9.75012 4.50029V6.00029H6.75012V4.50029ZM4.19637 6.75029H6.00012V7.87529H5.62513C5.52567 7.87529 5.43029 7.9148 5.35996 7.98512C5.28963 8.05545 5.25013 8.15083 5.25013 8.25029C5.25013 8.34974 5.28963 8.44513 5.35996 8.51545C5.43029 8.58578 5.52567 8.62529 5.62513 8.62529H7.12512C7.22458 8.62529 7.31996 8.58578 7.39029 8.51545C7.46062 8.44513 7.50012 8.34974 7.50012 8.25029C7.50012 8.15083 7.46062 8.05545 7.39029 7.98512C7.31996 7.9148 7.22458 7.87529 7.12512 7.87529H6.75012V6.75029H13.5001V7.87529H13.1251C13.0257 7.87529 12.9303 7.9148 12.86 7.98512C12.7896 8.05545 12.7501 8.15083 12.7501 8.25029C12.7501 8.34974 12.7896 8.44513 12.86 8.51545C12.9303 8.58578 13.0257 8.62529 13.1251 8.62529H14.6251C14.7246 8.62529 14.82 8.58578 14.8903 8.51545C14.9606 8.44513 15.0001 8.34974 15.0001 8.25029C15.0001 8.15083 14.9606 8.05545 14.8903 7.98512C14.82 7.9148 14.7246 7.87529 14.6251 7.87529H14.2501V6.75029H16.0539L17.5888 23.2503H2.6615L4.19637 6.75029ZM18.3418 23.2503L16.8069 6.75029H19.4289L20.9638 23.2503H18.3418Z" fill="black"/>
<path d="M11.25 12V14.625C11.25 14.7245 11.2895 14.8198 11.3598 14.8902C11.4302 14.9605 11.5255 15 11.625 15C11.7245 15 11.8198 14.9605 11.8902 14.8902C11.9605 14.8198 12 14.7245 12 14.625V12H12.375C12.4745 12 12.5698 11.9605 12.6402 11.8902C12.7105 11.8198 12.75 11.7245 12.75 11.625C12.75 11.5255 12.7105 11.4302 12.6402 11.3598C12.5698 11.2895 12.4745 11.25 12.375 11.25H10.875C10.7755 11.25 10.6802 11.2895 10.6098 11.3598C10.5395 11.4302 10.5 11.5255 10.5 11.625C10.5 11.7245 10.5395 11.8198 10.6098 11.8902C10.6802 11.9605 10.7755 12 10.875 12H11.25ZM9.65625 12C9.75571 12 9.85109 11.9605 9.92142 11.8902C9.99174 11.8198 10.0312 11.7245 10.0312 11.625C10.0312 11.5255 9.99174 11.4302 9.92142 11.3598C9.85109 11.2895 9.75571 11.25 9.65625 11.25H8.15625C8.05679 11.25 7.96141 11.2895 7.89108 11.3598C7.82076 11.4302 7.78125 11.5255 7.78125 11.625V14.625C7.78125 14.7245 7.82076 14.8198 7.89108 14.8902C7.96141 14.9605 8.05679 15 8.15625 15H9.65625C9.75571 15 9.85109 14.9605 9.92142 14.8902C9.99174 14.8198 10.0312 14.7245 10.0312 14.625C10.0312 14.5255 9.99174 14.4302 9.92142 14.3598C9.85109 14.2895 9.75571 14.25 9.65625 14.25H8.53125V13.5H9.65625C9.75571 13.5 9.85109 13.4605 9.92142 13.3902C9.99174 13.3198 10.0312 13.2245 10.0312 13.125C10.0312 13.0255 9.99174 12.9302 9.92142 12.8598C9.85109 12.7895 9.75571 12.75 9.65625 12.75H8.53125V12H9.65625ZM6.75 17.625C6.84946 17.625 6.94484 17.5855 7.01517 17.5152C7.08549 17.4448 7.125 17.3495 7.125 17.25C7.125 17.1505 7.08549 17.0552 7.01517 16.9848C6.94484 16.9145 6.84946 16.875 6.75 16.875H5.25C5.15054 16.875 5.05516 16.9145 4.98484 16.9848C4.91451 17.0552 4.875 17.1505 4.875 17.25V20.25C4.875 20.3495 4.91451 20.4448 4.98484 20.5152C5.05516 20.5855 5.15054 20.625 5.25 20.625C5.34946 20.625 5.44484 20.5855 5.51516 20.5152C5.58549 20.4448 5.625 20.3495 5.625 20.25V19.125H6.75C6.84946 19.125 6.94484 19.0855 7.01517 19.0152C7.08549 18.9448 7.125 18.8495 7.125 18.75C7.125 18.6505 7.08549 18.5552 7.01517 18.4848C6.94484 18.4145 6.84946 18.375 6.75 18.375H5.625V17.625H6.75ZM15.375 19.125C15.4745 19.125 15.5698 19.0855 15.6402 19.0152C15.7105 18.9448 15.75 18.8495 15.75 18.75C15.75 18.6505 15.7105 18.5552 15.6402 18.4848C15.5698 18.4145 15.4745 18.375 15.375 18.375H14.25V17.625H15.375C15.4745 17.625 15.5698 17.5855 15.6402 17.5152C15.7105 17.4448 15.75 17.3495 15.75 17.25C15.75 17.1505 15.7105 17.0552 15.6402 16.9848C15.5698 16.9145 15.4745 16.875 15.375 16.875H13.875C13.7755 16.875 13.6802 16.9145 13.6098 16.9848C13.5395 17.0552 13.5 17.1505 13.5 17.25V20.25C13.5 20.3495 13.5395 20.4448 13.6098 20.5152C13.6802 20.5855 13.7755 20.625 13.875 20.625H15.375C15.4745 20.625 15.5698 20.5855 15.6402 20.5152C15.7105 20.4448 15.75 20.3495 15.75 20.25C15.75 20.1505 15.7105 20.0552 15.6402 19.9848C15.5698 19.9145 15.4745 19.875 15.375 19.875H14.25V19.125H15.375ZM12.5002 17.625C12.5997 17.625 12.6951 17.5855 12.7654 17.5152C12.8357 17.4448 12.8752 17.3495 12.8752 17.25C12.8752 17.1505 12.8357 17.0552 12.7654 16.9848C12.6951 16.9145 12.5997 16.875 12.5002 16.875H11.0002C10.9008 16.875 10.8054 16.9145 10.7351 16.9848C10.6648 17.0552 10.6252 17.1505 10.6252 17.25V20.25C10.6252 20.3495 10.6648 20.4448 10.7351 20.5152C10.8054 20.5855 10.9008 20.625 11.0002 20.625H12.5002C12.5997 20.625 12.6951 20.5855 12.7654 20.5152C12.8357 20.4448 12.8752 20.3495 12.8752 20.25C12.8752 20.1505 12.8357 20.0552 12.7654 19.9848C12.6951 19.9145 12.5997 19.875 12.5002 19.875H11.3752V19.125H12.5002C12.5997 19.125 12.6951 19.0855 12.7654 19.0152C12.8357 18.9448 12.8752 18.8495 12.8752 18.75C12.8752 18.6505 12.8357 18.5552 12.7654 18.4848C12.6951 18.4145 12.5997 18.375 12.5002 18.375H11.3752V17.625H12.5002ZM9.99975 18C9.99945 17.7017 9.88083 17.4157 9.66992 17.2048C9.459 16.9939 9.17303 16.8753 8.87475 16.875H8.12475C8.02529 16.875 7.92991 16.9145 7.85958 16.9848C7.78926 17.0552 7.74975 17.1505 7.74975 17.25V20.25C7.74975 20.3495 7.78926 20.4448 7.85958 20.5152C7.92991 20.5855 8.02529 20.625 8.12475 20.625C8.22421 20.625 8.31959 20.5855 8.38991 20.5152C8.46024 20.4448 8.49975 20.3495 8.49975 20.25V19.6553L9.36 20.5151C9.43073 20.5834 9.52545 20.6212 9.62378 20.6204C9.7221 20.6195 9.81615 20.5801 9.88568 20.5106C9.95521 20.441 9.99465 20.347 9.9955 20.2487C9.99636 20.1503 9.95856 20.0556 9.89025 19.9849L9.01612 19.1108C9.28712 19.0769 9.53649 18.9455 9.71755 18.741C9.89861 18.5365 9.99894 18.2731 9.99975 18ZM8.87475 18.375H8.49975V17.625H8.87475C8.97421 17.625 9.06959 17.6645 9.13991 17.7348C9.21024 17.8052 9.24975 17.9005 9.24975 18C9.24975 18.0995 9.21024 18.1948 9.13991 18.2652C9.06959 18.3355 8.97421 18.375 8.87475 18.375ZM5.75025 12H6.25012C6.28321 12.0001 6.31492 12.0133 6.33832 12.0367C6.36171 12.0601 6.3749 12.0918 6.375 12.1249C6.375 12.2243 6.41451 12.3197 6.48483 12.39C6.55516 12.4604 6.65054 12.4999 6.75 12.4999C6.84946 12.4999 6.94484 12.4604 7.01517 12.39C7.08549 12.3197 7.125 12.2243 7.125 12.1249C7.1247 11.8929 7.03238 11.6705 6.86829 11.5064C6.70421 11.3424 6.48176 11.2502 6.24975 11.25H5.74988C5.51794 11.2503 5.29558 11.3426 5.13157 11.5066C4.96757 11.6706 4.8753 11.8929 4.875 12.1249V14.1251C4.8753 14.3571 4.96762 14.5795 5.13171 14.7436C5.29579 14.9076 5.51824 14.9998 5.75025 15H6.25012C6.48206 14.9997 6.70442 14.9074 6.86843 14.7434C7.03243 14.5794 7.1247 14.3571 7.125 14.1251V13.125C7.125 13.0255 7.08549 12.9302 7.01517 12.8598C6.94484 12.7895 6.84946 12.75 6.75 12.75H6.24975C6.15029 12.75 6.05491 12.7895 5.98458 12.8598C5.91426 12.9302 5.87475 13.0255 5.87475 13.125C5.87475 13.2245 5.91426 13.3198 5.98458 13.3902C6.05491 13.4605 6.15029 13.5 6.24975 13.5H6.375V14.1251C6.3749 14.1583 6.36166 14.19 6.33818 14.2134C6.3147 14.2369 6.2829 14.25 6.24975 14.25H5.74988C5.71679 14.2499 5.68508 14.2367 5.66168 14.2133C5.63829 14.1899 5.6251 14.1582 5.625 14.1251V12.1249C5.6251 12.0917 5.63834 12.06 5.66182 12.0366C5.6853 12.0131 5.7171 12 5.75025 12ZM14.1401 12.6401L14.25 12.5303V14.625C14.25 14.7245 14.2895 14.8198 14.3598 14.8902C14.4302 14.9605 14.5255 15 14.625 15C14.7245 15 14.8198 14.9605 14.8902 14.8902C14.9605 14.8198 15 14.7245 15 14.625V11.625C15 11.5508 14.978 11.4784 14.9368 11.4167C14.8956 11.355 14.837 11.307 14.7685 11.2786C14.7 11.2502 14.6246 11.2428 14.5519 11.2573C14.4791 11.2717 14.4123 11.3074 14.3599 11.3599L13.6099 12.1099C13.5416 12.1806 13.5038 12.2753 13.5046 12.3737C13.5055 12.472 13.5449 12.566 13.6144 12.6356C13.684 12.7051 13.778 12.7445 13.8763 12.7454C13.9747 12.7462 14.0694 12.7084 14.1401 12.6401Z" fill="black"/>
</g>
<defs>
<clipPath id="clip0_4912_65968">
<rect width="24" height="24" fill="white"/>
</clipPath>
</defs>
</svg>
