<svg width="20" height="20" viewBox="0 0 20 20" fill="none" xmlns="http://www.w3.org/2000/svg">
<g clip-path="url(#clip0_1676_3800)">
<path d="M11 13.5L10.5 13.5V9.03125C10.5 9.026 10.4985 9.021 10.4985 9.0155C10.4985 9.01 10.5 9.00527 10.5 9.00002C10.5 8.72402 10.276 8.50002 10 8.50002H9C8.724 8.50002 8.5 8.72402 8.5 9.00002C8.5 9.27602 8.724 9.50002 9 9.50002H9.5V13.5H9C8.724 13.5 8.5 13.724 8.5 14C8.5 14.276 8.724 14.5 9 14.5H11C11.276 14.5 11.5 14.276 11.5 14C11.5 13.724 11.276 13.5 11 13.5ZM10 7.5C10.5522 7.5 11 7.05225 11 6.5C11 5.94775 10.5522 5.5 10 5.5C9.44775 5.5 9 5.94775 9 6.5C9 7.05225 9.44775 7.5 10 7.5ZM10 2C5.58175 2 2 5.58175 2 10C2 14.4185 5.58175 18 10 18C14.4185 18 18 14.4185 18 10C18 5.58175 14.4185 2 10 2ZM10 17.0157C6.14025 17.0157 3 13.8598 3 9.99997C3 6.14022 6.14025 2.99997 10 2.99997C13.8597 2.99997 17 6.14023 17 9.99997C17 13.8597 13.8597 17.0157 10 17.0157Z" fill="#1d9e50"/>
</g>
<defs>
<clipPath id="clip0_1676_3800">
<rect width="16" height="16" fill="white" transform="translate(2 2)"/>
</clipPath>
</defs>
</svg>
