<svg width="20" height="20" viewBox="0 0 20 20" fill="none" xmlns="http://www.w3.org/2000/svg">
<path opacity="0.4" d="M17.9546 17H12.0454C11.4688 17 11 17.4486 11 18C11 18.5526 11.4688 19 12.0454 19H17.9546C18.531 19 19 18.5526 19 18C19 17.4486 18.531 17 17.9546 17Z" fill="#1D9E50"/>
<path d="M8.412 5.06645L13.8839 9.41073C14.0159 9.51455 14.0385 9.70526 13.9355 9.83807L7.44835 18.1431C7.04057 18.6561 6.43961 18.9465 5.79573 18.9571L2.25439 19C2.06552 19.0022 1.90026 18.8736 1.85734 18.6894L1.05248 15.2512C0.912982 14.6193 1.05248 13.9659 1.46028 13.4626L7.97955 5.11786C8.08473 4.98398 8.27895 4.96042 8.412 5.06645Z" fill="#1D9E50"/>
<path opacity="0.4" d="M16.4207 6.60207L15.3143 7.88611C15.2028 8.01682 15.0024 8.03808 14.864 7.93396C13.519 6.92202 10.0748 4.32523 9.11919 3.60561C8.97965 3.49932 8.9605 3.31012 9.07303 3.17831L10.1401 1.94635C11.1081 0.78774 12.7964 0.681442 14.1583 1.69124L15.7228 2.84985C16.3644 3.31755 16.7921 3.93407 16.9384 4.58246C17.1072 5.29571 16.9271 5.99618 16.4207 6.60207Z" fill="#1D9E50"/>
</svg>
