<svg width="24" height="24" viewBox="0 0 24 24" fill="none" xmlns="http://www.w3.org/2000/svg">
<path d="M21.0702 16.17C20.7302 15.24 18.6702 15.11 17.7102 12.98C17.6502 12.82 17.6603 12.71 17.8203 12.61C18.5603 12.12 19.0802 11.85 19.3802 11.28C19.6002 10.87 19.6302 10.39 19.4602 9.95C19.2302 9.34 18.6503 8.95 17.9403 8.95C17.6903 8.95 17.4903 9 17.3903 9.02C17.4003 8.6 17.3903 8.16 17.3503 7.72C17.2203 6.19 16.6803 5.38 16.1203 4.74C15.7903 4.37 14.4803 3 12.0003 3C9.52025 3 8.21025 4.37 7.88025 4.74C7.32025 5.38 6.78025 6.19 6.65025 7.72C6.62025 8.16 6.61025 8.6 6.61025 9.02C6.50025 8.99 6.31025 8.95 6.06025 8.95C5.36025 8.95 4.77025 9.33 4.54025 9.95C4.37025 10.38 4.40025 10.87 4.62025 11.28C4.93025 11.86 5.44025 12.12 6.18025 12.61C6.34025 12.72 6.35025 12.82 6.29025 12.98C5.32025 15.11 3.27025 15.24 2.93025 16.17C2.78025 16.57 2.88025 17.02 3.25025 17.4C3.82025 17.99 4.88025 18.17 5.09025 18.31C5.26025 18.45 5.24025 18.87 5.72025 19.21C6.10025 19.47 6.52025 19.49 6.97025 19.5C8.28025 19.55 8.57025 19.77 9.07025 20.08C9.70025 20.47 10.5603 21 12.0003 21C13.4403 21 14.3003 20.47 14.9303 20.08C15.4303 19.77 15.7203 19.55 17.0303 19.5C17.4803 19.48 17.9003 19.47 18.2803 19.21C18.7703 18.87 18.7502 18.45 18.9102 18.31C19.1202 18.17 20.1803 17.99 20.7502 17.4C21.1203 17.02 21.2202 16.57 21.0702 16.17ZM20.0403 16.7C19.6702 17.09 18.7803 17.2 18.3103 17.52C17.8303 17.94 17.9102 18.26 17.7203 18.39C17.5903 18.48 17.3603 18.49 17.0003 18.51C15.6003 18.56 15.0903 18.82 14.4803 19.2C13.0503 20.08 12.2503 20 12.0003 20C11.7503 20 10.9503 20.08 9.53025 19.19C8.92025 18.81 8.42025 18.56 7.01025 18.5C6.65025 18.49 6.42025 18.47 6.29025 18.38C6.10025 18.25 6.17025 17.93 5.70025 17.51C5.22025 17.19 4.34025 17.08 3.97025 16.69C3.91025 16.63 3.86025 16.55 3.85025 16.54C3.92025 16.44 4.26025 16.24 4.51025 16.1C5.29025 15.64 6.49025 14.96 7.22025 13.35C7.48025 12.65 7.25025 12.09 6.74025 11.76C5.59025 11.03 5.61025 11 5.50025 10.8C5.46075 10.7233 5.43768 10.6393 5.43251 10.5532C5.42734 10.4671 5.4402 10.3808 5.47025 10.3C5.59025 9.98 5.92025 9.95 6.05025 9.95C6.24025 9.95 6.23025 9.96 7.62025 10.32C7.60025 8.92 7.58025 8.47 7.64025 7.81C7.75025 6.5 8.21025 5.88 8.62025 5.41C8.90025 5.11 9.99025 3.98 12.0003 4C14.0103 3.98 15.1003 5.11 15.3703 5.41C15.7803 5.88 16.2403 6.5 16.3503 7.81C16.4103 8.47 16.3903 8.92 16.3703 10.32C17.7703 9.96 17.7503 9.95 17.9403 9.95C18.0803 9.95 18.4003 9.98 18.5203 10.3C18.5903 10.47 18.5803 10.65 18.4903 10.8C18.3803 11 18.4003 11.02 17.2603 11.77C16.7503 12.1 16.5203 12.66 16.7803 13.36C17.5103 14.97 18.7102 15.65 19.4902 16.11C19.7402 16.26 20.0802 16.45 20.1502 16.55C20.1502 16.56 20.0903 16.64 20.0403 16.7Z" fill="#1D9E50" stroke="#1D9E50"/>
</svg>
