<svg width="24" height="24" viewBox="0 0 24 24" fill="none" xmlns="http://www.w3.org/2000/svg">
<path d="M20.028 14.0939C19.9873 14.1299 19.9542 14.1736 19.9307 14.2226C19.9072 14.2715 19.8937 14.3247 19.891 14.3789C19.8423 15.3922 19.7589 16.4034 19.641 17.4109C19.487 18.7289 18.421 19.7779 17.091 19.9269C13.707 20.302 10.292 20.302 6.908 19.9269C6.26207 19.8551 5.65917 19.5678 5.19654 19.1113C4.73391 18.6548 4.43852 18.0558 4.358 17.4109C3.95705 13.9826 3.95705 10.5192 4.358 7.09093C4.43848 6.44591 4.73383 5.84679 5.19645 5.39016C5.65907 4.93353 6.26199 4.646 6.908 4.57393C9.14056 4.3266 11.3882 4.24237 13.633 4.32193C13.796 4.32693 13.933 4.20393 13.945 4.04193L13.995 3.33893C13.997 3.29776 14.001 3.25671 14.007 3.21593C14.031 3.02193 13.897 2.82993 13.7 2.82293C11.3774 2.73988 9.0519 2.82678 6.742 3.08293C4.73 3.30893 3.105 4.89293 2.869 6.91593C2.45439 10.4605 2.45439 14.0413 2.869 17.5859C3.105 19.6079 4.729 21.1929 6.742 21.4179C10.2367 21.8049 13.7633 21.8049 17.258 21.4179C19.27 21.1929 20.895 19.6079 21.131 17.5849C21.2997 16.1415 21.3999 14.6909 21.431 13.2379C21.435 13.0549 21.211 12.9649 21.084 13.0939C20.744 13.4399 20.392 13.7729 20.028 14.0939Z" fill="black"/>
<path d="M7.86701 15.5498C7.75951 15.5202 7.665 15.4555 7.5985 15.366C7.532 15.2765 7.49734 15.1673 7.50001 15.0558L7.56001 12.5928C7.60073 10.8964 8.30321 9.28323 9.51738 8.09784C10.7316 6.91244 12.3611 6.24885 14.058 6.24881H15.315C15.3412 5.62497 15.3768 5.00157 15.422 4.37881L15.49 3.44881C15.4993 3.31883 15.5422 3.19349 15.6146 3.08509C15.6869 2.97669 15.7862 2.88894 15.9026 2.83046C16.0191 2.77198 16.1487 2.74477 16.2789 2.75149C16.409 2.75821 16.5352 2.79864 16.645 2.86881C18.716 4.19227 20.5163 5.89758 21.95 7.89381L22.406 8.52881C22.467 8.61378 22.4998 8.71573 22.4998 8.82031C22.4998 8.92489 22.467 9.02684 22.406 9.11181L21.95 9.74681C20.5162 11.7427 18.7159 13.4476 16.645 14.7708C16.5556 14.828 16.4551 14.8657 16.3501 14.8813C16.2451 14.897 16.1379 14.8903 16.0357 14.8617C15.9335 14.8331 15.8384 14.7832 15.7568 14.7153C15.6752 14.6475 15.6088 14.5631 15.562 14.4678C15.5212 14.3814 15.4968 14.2881 15.49 14.1928L15.422 13.2618C15.3681 12.5193 15.3278 11.7758 15.301 11.0318L14.947 10.9778C13.8448 10.8117 12.7182 10.9843 11.7163 11.4729C10.7145 11.9615 9.88471 12.743 9.33701 13.7138L8.43501 15.3138C8.38017 15.4108 8.29449 15.4867 8.19159 15.5295C8.08868 15.5722 7.97444 15.5794 7.86701 15.5498Z" fill="black"/>
</svg>
