<svg width="36" height="36" viewBox="0 0 36 36" fill="none" xmlns="http://www.w3.org/2000/svg">
<rect x="0.5" y="0.5" width="35" height="35" rx="5.5" fill="#1D9E50"/>
<rect x="0.5" y="0.5" width="35" height="35" rx="5.5" stroke="#1D9E50"/>
<path d="M14.8182 9.00026C15.6865 9.00026 16.4676 9.34959 17 9.90292C17.4772 9.40686 18.1385 9.09107 18.8555 9.01685C19.5724 8.94263 20.2939 9.11529 20.8798 9.50129C21.4656 9.88729 21.8741 10.4591 22.0259 11.1057C22.1777 11.7523 22.0619 12.4275 21.7011 13.0002H23.5455C23.9312 13.0002 24.3012 13.1407 24.574 13.3907C24.8468 13.6408 25 13.9799 25 14.3335V17.0001C25 17.3537 24.8468 17.6929 24.574 17.9429C24.3012 18.193 23.9312 18.3334 23.5455 18.3334V22.3334C23.5455 23.0406 23.239 23.7189 22.6934 24.219C22.1478 24.7191 21.4079 25 20.6364 25H13.3636C12.5921 25 11.8522 24.7191 11.3066 24.219C10.761 23.7189 10.4545 23.0406 10.4545 22.3334V18.3334C10.0688 18.3334 9.69881 18.193 9.42603 17.9429C9.15325 17.6929 9 17.3537 9 17.0001V14.3335C9 13.9799 9.15325 13.6408 9.42603 13.3907C9.69881 13.1407 10.0688 13.0002 10.4545 13.0002H12.2989C12.0436 12.5948 11.9092 12.135 11.9092 11.6669C11.9092 11.1988 12.0436 10.739 12.2989 10.3336C12.5542 9.92823 12.9214 9.5916 13.3637 9.35755C13.8059 9.1235 14.3075 9.00028 14.8182 9.00026ZM13.3636 11.6669C13.3636 12.0205 13.5169 12.3596 13.7897 12.6097C14.0624 12.8597 14.4324 13.0002 14.8182 13.0002H16.2727V11.6669C16.2727 11.3133 16.1195 10.9741 15.8467 10.7241C15.5739 10.474 15.204 10.3336 14.8182 10.3336C14.4324 10.3336 14.0624 10.474 13.7897 10.7241C13.5169 10.9741 13.3636 11.3133 13.3636 11.6669ZM17.7273 14.3335V17.0001H23.5455V14.3335H17.7273ZM16.2727 14.3335H10.4545V17.0001H16.2727V14.3335ZM11.9091 18.3334V22.3334C11.9091 22.687 12.0623 23.0261 12.3351 23.2762C12.6079 23.5262 12.9779 23.6667 13.3636 23.6667H16.2727V18.3334H11.9091ZM17.7273 23.6667H20.6364C21.0221 23.6667 21.3921 23.5262 21.6649 23.2762C21.9377 23.0261 22.0909 22.687 22.0909 22.3334V18.3334H17.7273V23.6667ZM20.6364 11.6669C20.6364 11.3133 20.4831 10.9741 20.2103 10.7241C19.9376 10.474 19.5676 10.3336 19.1818 10.3336C18.796 10.3336 18.4261 10.474 18.1533 10.7241C17.8805 10.9741 17.7273 11.3133 17.7273 11.6669V13.0002H19.1818C19.5676 13.0002 19.9376 12.8597 20.2103 12.6097C20.4831 12.3596 20.6364 12.0205 20.6364 11.6669Z" fill="white"/>
<rect x="19" y="19" width="8" height="8" rx="4" fill="white"/>
<path d="M25 25L21 21" stroke="#1D9E50" stroke-width="0.5" stroke-linecap="round" stroke-linejoin="round"/>
<path d="M21 25L25 21" stroke="#1D9E50" stroke-width="0.5" stroke-linecap="round" stroke-linejoin="round"/>
</svg>
