<svg width="20" height="20" viewBox="0 0 20 20" fill="none" xmlns="http://www.w3.org/2000/svg">
<g clip-path="url(#clip0_1676_3719)">
<path opacity="0.969" fill-rule="evenodd" clip-rule="evenodd" d="M9.60352 2.98633C9.75847 2.98633 9.9134 2.98633 10.0684 2.98633C12.2334 4.05973 14.3935 5.14892 16.5488 6.25391C16.7652 6.40036 16.911 6.59633 16.9863 6.8418C16.9863 8.93816 16.9863 11.0345 16.9863 13.1309C16.911 13.3763 16.7652 13.5723 16.5488 13.7188C14.3938 14.8236 12.2337 15.9128 10.0684 16.9863C9.9134 16.9863 9.75847 16.9863 9.60352 16.9863C7.54748 15.9218 5.49671 14.8417 3.45117 13.7461C3.21926 13.5956 3.06431 13.3906 2.98633 13.1309C2.98633 11.0345 2.98633 8.93816 2.98633 6.8418C3.06431 6.58209 3.21926 6.37701 3.45117 6.22656C5.49671 5.13094 7.54748 4.05086 9.60352 2.98633ZM9.76758 3.83398C9.81403 3.8296 9.85962 3.83416 9.9043 3.84766C11.8184 4.8138 13.7324 5.77996 15.6465 6.74609C14.9158 7.12964 14.1776 7.49879 13.4316 7.85352C11.5632 6.86457 9.69465 5.87566 7.82617 4.88672C8.47501 4.53503 9.12213 4.18412 9.76758 3.83398ZM6.86914 5.36523C8.74481 6.33955 10.6133 7.32849 12.4746 8.33203C11.5929 8.7706 10.7134 9.21264 9.83594 9.6582C7.99239 8.68403 6.14669 7.71332 4.29883 6.74609C5.16164 6.29197 6.01842 5.83169 6.86914 5.36523ZM16.1387 7.44336C16.1569 8.34565 16.166 9.25256 16.166 10.1641C16.1703 11.0999 16.1566 12.0342 16.125 12.9668C14.1788 13.9673 12.2282 14.9608 10.2734 15.9473C10.2552 14.097 10.2552 12.2468 10.2734 10.3965C11.1418 9.95548 12.0122 9.51798 12.8848 9.08398C12.8998 9.59556 12.9226 10.106 12.9531 10.6152C13.11 10.8688 13.3242 10.928 13.5957 10.793C13.667 10.74 13.7171 10.6716 13.7461 10.5879C13.7552 9.94075 13.7643 9.29363 13.7734 8.64648C14.5656 8.24811 15.3541 7.84706 16.1387 7.44336ZM3.80664 7.4707C5.66528 8.43648 7.52465 9.40265 9.38477 10.3691C9.42122 12.2194 9.42122 14.0697 9.38477 15.9199C7.53255 14.946 5.68685 13.9616 3.84766 12.9668C3.80692 11.1364 3.79325 9.30432 3.80664 7.4707Z" fill="#1d9e50"/>
</g>
<defs>
<clipPath id="clip0_1676_3719">
<rect width="14" height="14" fill="white" transform="translate(3 3)"/>
</clipPath>
</defs>
</svg>
