<svg width="24" height="24" viewBox="0 0 24 24" fill="none" xmlns="http://www.w3.org/2000/svg">
<path d="M8.06599 4.06498H3.64799C3.31548 4.0337 2.98102 4.09934 2.68499 4.25398C2.48304 4.38577 2.31946 4.56854 2.21077 4.78381C2.10208 4.99908 2.05214 5.23922 2.06599 5.47998V10.065C2.06599 10.1976 2.11867 10.3248 2.21244 10.4185C2.30621 10.5123 2.43338 10.565 2.56599 10.565C2.6986 10.565 2.82578 10.5123 2.91955 10.4185C3.01331 10.3248 3.06599 10.1976 3.06599 10.065V5.78498C3.04565 5.61254 3.05037 5.43806 3.07999 5.26698C3.15699 5.03098 3.39899 5.06698 3.59399 5.06698H8.06599C8.1986 5.06698 8.32578 5.0143 8.41955 4.92053C8.51331 4.82676 8.56599 4.69958 8.56599 4.56698C8.56599 4.43437 8.51331 4.30719 8.41955 4.21342C8.32578 4.11965 8.1986 4.06698 8.06599 4.06698V4.06498ZM2.06299 13.937V18.355C2.03172 18.6875 2.09736 19.0219 2.25199 19.318C2.38387 19.5201 2.5668 19.6838 2.78226 19.7925C2.99772 19.9012 3.23807 19.951 3.47899 19.937H8.06299C8.1956 19.937 8.32278 19.8843 8.41655 19.7905C8.51031 19.6968 8.56299 19.5696 8.56299 19.437C8.56299 19.3044 8.51031 19.1772 8.41655 19.0834C8.32278 18.9897 8.1956 18.937 8.06299 18.937H3.78299C3.61055 18.9573 3.43608 18.9526 3.26499 18.923C3.02899 18.846 3.06499 18.604 3.06499 18.409V13.937C3.06499 13.8044 3.01231 13.6772 2.91855 13.5834C2.82478 13.4897 2.6976 13.437 2.56499 13.437C2.43238 13.437 2.30521 13.4897 2.21144 13.5834C2.11767 13.6772 2.06499 13.8044 2.06499 13.937H2.06299ZM15.934 19.935H20.352C20.6845 19.9663 21.019 19.9006 21.315 19.746C21.5169 19.6142 21.6805 19.4314 21.7892 19.2161C21.8979 19.0009 21.9478 18.7607 21.934 18.52V13.935C21.934 13.8024 21.8813 13.6752 21.7875 13.5814C21.6938 13.4877 21.5666 13.435 21.434 13.435C21.3014 13.435 21.1742 13.4877 21.0804 13.5814C20.9867 13.6752 20.934 13.8024 20.934 13.935V18.215C20.9543 18.3874 20.9496 18.5619 20.92 18.733C20.843 18.969 20.601 18.933 20.406 18.933H15.934C15.8014 18.933 15.6742 18.9857 15.5804 19.0794C15.4867 19.1732 15.434 19.3004 15.434 19.433C15.434 19.5656 15.4867 19.6928 15.5804 19.7865C15.6742 19.8803 15.8014 19.933 15.934 19.933V19.935ZM21.937 10.063V5.64498C21.9683 5.31246 21.9026 4.978 21.748 4.68198C21.6161 4.47987 21.4332 4.31619 21.2177 4.20749C21.0023 4.0988 20.7619 4.04894 20.521 4.06298H15.937C15.8044 4.06298 15.6772 4.11565 15.5834 4.20942C15.4897 4.30319 15.437 4.43037 15.437 4.56298C15.437 4.69558 15.4897 4.82276 15.5834 4.91653C15.6772 5.0103 15.8044 5.06298 15.937 5.06298H20.217C20.3894 5.04263 20.5639 5.04735 20.735 5.07698C20.971 5.15398 20.935 5.39598 20.935 5.59098V10.063C20.935 10.1956 20.9877 10.3228 21.0814 10.4165C21.1752 10.5103 21.3024 10.563 21.435 10.563C21.5676 10.563 21.6948 10.5103 21.7885 10.4165C21.8823 10.3228 21.935 10.1956 21.935 10.063H21.937Z" fill="#9FA4B2"/>
<path d="M11.999 8.143C11.999 7.86686 11.7751 7.64301 11.499 7.64301C11.2229 7.64301 10.999 7.86686 10.999 8.143V15.852C10.999 16.1281 11.2229 16.352 11.499 16.352C11.7751 16.352 11.999 16.1281 11.999 15.852V8.143Z" fill="#9FA4B2"/>
<path d="M15.249 8.143C15.249 7.86686 15.0252 7.64301 14.749 7.64301C14.4729 7.64301 14.249 7.86686 14.249 8.143V15.852C14.249 16.1281 14.4729 16.352 14.749 16.352C15.0252 16.352 15.249 16.1281 15.249 15.852V8.143Z" fill="#9FA4B2"/>
<path d="M17.499 8.143C17.499 7.86686 17.2752 7.64301 16.999 7.64301C16.7229 7.64301 16.499 7.86686 16.499 8.143V15.852C16.499 16.1281 16.7229 16.352 16.999 16.352C17.2752 16.352 17.499 16.1281 17.499 15.852V8.143Z" fill="#9FA4B2"/>
<path d="M7.49899 8.143C7.49899 7.86686 7.27514 7.64301 6.99899 7.64301C6.72285 7.64301 6.49899 7.86686 6.49899 8.143V15.852C6.49899 16.1281 6.72285 16.352 6.99899 16.352C7.27514 16.352 7.49899 16.1281 7.49899 15.852V8.143Z" fill="#9FA4B2"/>
<path d="M9.99899 8.393C9.99899 7.97879 9.66321 7.64301 9.24899 7.64301C8.83478 7.64301 8.49899 7.97879 8.49899 8.393V15.602C8.49899 16.0162 8.83478 16.352 9.24899 16.352C9.66321 16.352 9.99899 16.0162 9.99899 15.602V8.393Z" fill="#9FA4B2"/>
</svg>
