<svg width="24" height="24" viewBox="0 0 24 24" fill="none" xmlns="http://www.w3.org/2000/svg">
<g clip-path="url(#clip0_4915_73609)">
<path d="M23.5583 14.41L20.9333 10.66C20.8874 10.5945 20.8217 10.5453 20.7458 10.5198L17.9558 9.5493C17.986 9.49242 18.001 9.42873 17.9994 9.36437C17.9979 9.3 17.9797 9.23713 17.9468 9.1818L17.0149 7.62855L18.5686 6.6963C18.624 6.66296 18.6699 6.61584 18.7017 6.55953C18.7336 6.50321 18.7503 6.43962 18.7503 6.37492C18.7503 6.31022 18.7336 6.24663 18.7017 6.19031C18.6699 6.134 18.624 6.08688 18.5686 6.05354L17.0149 5.12129L17.9468 3.56805C17.981 3.5112 17.9994 3.44633 18.0003 3.38002C18.0012 3.31372 17.9845 3.24836 17.952 3.19061C17.9194 3.13286 17.872 3.08479 17.8148 3.05129C17.7576 3.01779 17.6925 3.00007 17.6262 2.99992H15.7512V1.49992C15.7512 1.43864 15.7362 1.37829 15.7075 1.32414C15.6788 1.27 15.6373 1.22372 15.5865 1.18934C15.5358 1.15496 15.4774 1.13354 15.4165 1.12696C15.3556 1.12037 15.294 1.12881 15.2371 1.15154L13.5916 1.80967L12.2663 0.484795C12.196 0.414493 12.1006 0.375 12.0012 0.375C11.9018 0.375 11.8064 0.414493 11.7361 0.484795L10.4108 1.80967L8.76531 1.15154C8.70841 1.12881 8.64679 1.12037 8.58587 1.12696C8.52494 1.13354 8.46656 1.15496 8.41583 1.18934C8.3651 1.22372 8.32357 1.27 8.29486 1.32414C8.26616 1.37829 8.25117 1.43864 8.25119 1.49992V2.99992H6.37619C6.30982 2.99993 6.24463 3.01756 6.1873 3.05101C6.12997 3.08445 6.08254 3.13251 6.04986 3.19028C6.01718 3.24806 6.00042 3.31347 6.00129 3.37983C6.00216 3.4462 6.02063 3.51115 6.05481 3.56805L6.98669 5.12129L5.43306 6.05354C5.37762 6.08688 5.33174 6.134 5.29989 6.19031C5.26805 6.24663 5.25131 6.31022 5.25131 6.37492C5.25131 6.43962 5.26805 6.50321 5.29989 6.55953C5.33174 6.61584 5.37762 6.66296 5.43306 6.6963L6.98669 7.62855L6.05481 9.1818C6.02189 9.23713 6.00377 9.3 6.00219 9.36437C6.00062 9.42873 6.01564 9.49242 6.04581 9.5493L3.25506 10.5202C3.17925 10.5456 3.11355 10.5946 3.06756 10.66L0.442565 14.41C0.409395 14.4575 0.387679 14.5121 0.379118 14.5694C0.370557 14.6266 0.375385 14.6851 0.393223 14.7403C0.41106 14.7954 0.441423 14.8456 0.481929 14.887C0.522436 14.9284 0.571984 14.9599 0.62669 14.9789L3.00119 15.8043V20.6249C3.00117 20.7053 3.027 20.7836 3.07487 20.8483C3.12275 20.9129 3.19012 20.9604 3.26706 20.9838L11.8921 23.6088C11.9632 23.6303 12.0392 23.6303 12.1103 23.6088L20.7353 20.9838C20.8123 20.9604 20.8796 20.9129 20.9275 20.8483C20.9754 20.7836 21.0012 20.7053 21.0012 20.6249V15.8043L23.3742 14.9793C23.4289 14.9602 23.4784 14.9288 23.5189 14.8874C23.5595 14.846 23.5898 14.7957 23.6077 14.7406C23.6255 14.6855 23.6303 14.627 23.6218 14.5697C23.6132 14.5124 23.5915 14.4579 23.5583 14.4104V14.41ZM12.0012 13.1077L4.58594 10.8509L7.75131 9.74992H8.25119V11.2499C8.25117 11.3112 8.26616 11.3716 8.29486 11.4257C8.32357 11.4798 8.3651 11.5261 8.41583 11.5605C8.46656 11.5949 8.52494 11.6163 8.58587 11.6229C8.64679 11.6295 8.70841 11.621 8.76531 11.5983L10.4108 10.9402L11.7361 12.265C11.8064 12.3353 11.9018 12.3748 12.0012 12.3748C12.1006 12.3748 12.196 12.3353 12.2663 12.265L13.5916 10.9402L15.2371 11.5983C15.294 11.621 15.3556 11.6295 15.4165 11.6229C15.4774 11.6163 15.5358 11.5949 15.5865 11.5605C15.6373 11.5261 15.6788 11.4798 15.7075 11.4257C15.7362 11.3716 15.7512 11.3112 15.7512 11.2499V9.74992H16.2511L19.4164 10.8509L12.0012 13.1077ZM6.35481 6.37492L7.69431 5.5713C7.77953 5.52006 7.84092 5.43708 7.86497 5.3406C7.88902 5.24412 7.87377 5.14203 7.82256 5.0568L7.03881 3.74992H8.62619C8.72565 3.74992 8.82103 3.71041 8.89135 3.64009C8.96168 3.56976 9.00119 3.47438 9.00119 3.37492V2.0538L10.3621 2.59829C10.4302 2.62548 10.5048 2.63209 10.5767 2.61729C10.6485 2.60249 10.7145 2.56694 10.7663 2.51504L12.0012 1.28017L13.2361 2.51504C13.2879 2.56694 13.3539 2.60249 13.4257 2.61729C13.4976 2.63209 13.5722 2.62548 13.6403 2.59829L15.0012 2.0538V3.37492C15.0012 3.47438 15.0407 3.56976 15.111 3.64009C15.1813 3.71041 15.2767 3.74992 15.3762 3.74992H16.9636L16.1798 5.0568C16.1286 5.14203 16.1134 5.24412 16.1374 5.3406C16.1615 5.43708 16.2228 5.52006 16.3081 5.5713L17.6476 6.37492L16.3081 7.17855C16.2228 7.22978 16.1615 7.31276 16.1374 7.40924C16.1134 7.50572 16.1286 7.60781 16.1798 7.69305L16.9636 8.99992H15.3762C15.2767 8.99992 15.1813 9.03943 15.111 9.10976C15.0407 9.18008 15.0012 9.27546 15.0012 9.37492V10.696L13.6403 10.1515C13.5722 10.1244 13.4976 10.1178 13.4257 10.1326C13.3539 10.1473 13.2879 10.1829 13.2361 10.2348L12.0012 11.4697L10.7663 10.2348C10.7145 10.1829 10.6485 10.1473 10.5767 10.1326C10.5048 10.1178 10.4302 10.1244 10.3621 10.1515L9.00119 10.696V9.37492C9.00119 9.27546 8.96168 9.18008 8.89135 9.10976C8.82103 9.03943 8.72565 8.99992 8.62619 8.99992H7.03881L7.82256 7.69305C7.87377 7.60781 7.88902 7.50572 7.86497 7.40924C7.84092 7.31276 7.77953 7.22978 7.69431 7.17855L6.35481 6.37492ZM3.52619 11.3129L11.4199 13.7148L9.21906 17.1749L1.34406 14.4352L3.52619 11.3129ZM3.75119 16.0653L9.25319 17.9778C9.29263 17.9921 9.33423 17.9996 9.37619 17.9999C9.43929 17.9999 9.50138 17.9841 9.55671 17.9537C9.61203 17.9233 9.6588 17.8795 9.69269 17.8263L11.6262 14.7877V22.744L3.75119 20.347V16.0653ZM20.2512 20.347L12.3762 22.744V14.7877L14.3097 17.8252C14.3434 17.8786 14.3902 17.9227 14.4455 17.9532C14.5008 17.9838 14.563 17.9998 14.6262 17.9999C14.6681 18 14.7097 17.9929 14.7492 17.9789L20.2512 16.0653V20.347ZM14.7833 17.1749L12.5824 13.7148L20.4762 11.3129L22.6606 14.4337L14.7833 17.1749Z" fill="black"/>
<path d="M9 6.1125L9.813 7.332C9.8576 7.39889 9.92251 7.44967 9.99817 7.47686C10.0738 7.50405 10.1562 7.50621 10.2332 7.48302C10.3102 7.45982 10.3776 7.41251 10.4257 7.34805C10.4737 7.28359 10.4998 7.20539 10.5 7.125V4.5H9.75V5.8875L8.937 4.668C8.8924 4.60111 8.82749 4.55033 8.75183 4.52314C8.67618 4.49595 8.59379 4.49379 8.51681 4.51698C8.43984 4.54018 8.37235 4.58749 8.32431 4.65195C8.27627 4.71641 8.25022 4.79461 8.25 4.875V7.5H9V6.1125ZM11.25 7.5H12.375V6.75H11.625V6.375H12V5.625H11.625V5.25H12.375V4.5H11.25C11.1505 4.5 11.0552 4.53951 10.9848 4.60984C10.9145 4.68016 10.875 4.77554 10.875 4.875V7.125C10.875 7.22446 10.9145 7.31984 10.9848 7.39017C11.0552 7.46049 11.1505 7.5 11.25 7.5ZM13.125 7.5H15.375C15.4745 7.5 15.5698 7.46049 15.6402 7.39017C15.7105 7.31984 15.75 7.22446 15.75 7.125V4.5H15V6.75H14.625V5.625H13.875V6.75H13.5V4.5H12.75V7.125C12.75 7.22446 12.7895 7.31984 12.8598 7.39017C12.9302 7.46049 13.0255 7.5 13.125 7.5Z" fill="black"/>
</g>
<defs>
<clipPath id="clip0_4915_73609">
<rect width="24" height="24" fill="white"/>
</clipPath>
</defs>
</svg>
