<svg width="48" height="50" viewBox="0 0 48 50" fill="none" xmlns="http://www.w3.org/2000/svg">
<path d="M10.503 37.1406H18.503M10.503 27.1406H26.503M9.50702 12.1406C6.39502 12.2346 4.54102 12.5806 3.25702 13.8646C1.49902 15.6246 1.49902 18.4546 1.49902 24.1166V37.1286C1.49902 42.7926 1.49902 45.6226 3.25702 47.3826C5.01302 49.1406 7.84302 49.1406 13.499 49.1406H23.499C29.157 49.1406 31.985 49.1406 33.741 47.3806C35.501 45.6226 35.501 42.7926 35.501 37.1286V24.1166C35.501 18.4566 35.501 15.6246 33.741 13.8646C32.459 12.5806 30.603 12.2346 27.491 12.1406" stroke="black" stroke-width="1.5" stroke-linecap="round" stroke-linejoin="round"/>
<path d="M9.49902 12.6406C9.49902 10.7086 11.067 9.14062 12.999 9.14062H23.999C24.9273 9.14062 25.8175 9.50937 26.4739 10.1658C27.1303 10.8221 27.499 11.7124 27.499 12.6406C27.499 13.5689 27.1303 14.4591 26.4739 15.1155C25.8175 15.7719 24.9273 16.1406 23.999 16.1406H12.999C12.0708 16.1406 11.1805 15.7719 10.5241 15.1155C9.86777 14.4591 9.49902 13.5689 9.49902 12.6406Z" stroke="black" stroke-width="1.5" stroke-linecap="round" stroke-linejoin="round"/>
<path d="M35.2139 23.4277C41.4071 23.4277 46.4277 18.4071 46.4277 12.2139C46.4277 6.02062 41.4071 1 35.2139 1C29.0206 1 24 6.02062 24 12.2139C24 18.4071 29.0206 23.4277 35.2139 23.4277Z" fill="#1D9E50" stroke="#1D9E50" stroke-width="1.2"/>
<path d="M35.2139 20.4366C35.6268 20.4366 35.9615 20.1019 35.9615 19.689C35.9615 19.2761 35.6268 18.9414 35.2139 18.9414C34.801 18.9414 34.4663 19.2761 34.4663 19.689C34.4663 20.1019 34.801 20.4366 35.2139 20.4366Z" fill="white" stroke="white" stroke-width="0.2"/>
<path d="M35.2138 17.1982V16.1304C35.2138 15.2408 35.6586 14.4097 36.3987 13.9163L37.1451 13.4179C37.7009 13.0473 38.1566 12.5452 38.4717 11.9561C38.7869 11.3671 38.9518 10.7094 38.9517 10.0413V9.72233C38.9517 8.73096 38.5579 7.7802 37.8569 7.0792C37.1559 6.37819 36.2052 5.98438 35.2138 5.98438C34.2224 5.98438 33.2717 6.37819 32.5707 7.0792C31.8696 7.7802 31.4758 8.73096 31.4758 9.72233" stroke="white" stroke-width="1.2"/>
</svg>
