<svg width="16" height="16" viewBox="0 0 16 16" fill="none" xmlns="http://www.w3.org/2000/svg">
<path d="M10.7411 4.50007L10.7411 4.5C10.8025 3.66939 10.5432 2.91388 10.0282 2.35788C9.51947 1.80863 8.80545 1.5 8.00003 1.5C7.1875 1.5 6.47126 1.80794 5.96662 2.35189L10.7411 4.50007ZM10.7411 4.50007C10.6145 6.21486 9.3244 7.5 8.00003 7.5C6.6753 7.5 5.38332 6.21424 5.25873 4.50019L10.7411 4.50007ZM5.25872 4.50002C5.19787 3.65794 5.4571 2.90125 5.96659 2.35193L5.25872 4.50002Z" stroke="#1D9E50"/>
<path d="M13.5065 14.5V14.5C13.5762 14.5009 13.6452 14.4863 13.7085 14.4571C13.7718 14.428 13.8278 14.3851 13.8725 14.3316L13.8729 14.3311C13.973 14.2114 14.0253 14.0331 13.9888 13.8311L13.9887 13.8309C13.7503 12.5082 13.0093 11.3945 11.8228 10.6035C10.7623 9.89715 9.40457 9.5 8.00018 9.5C6.59571 9.5 5.23801 9.89687 4.1776 10.6035L13.5065 14.5ZM13.5065 14.5H13.5002M13.5065 14.5H13.5002M13.5002 14.5H2.50018V14.5M13.5002 14.5L2.50018 14.5M2.50018 14.5L2.49367 14.5M2.50018 14.5L2.49367 14.5M2.49367 14.5C2.42401 14.5009 2.35501 14.4863 2.29171 14.4572C2.22842 14.4281 2.1724 14.3852 2.12775 14.3317L2.12743 14.3314M2.49367 14.5L2.12743 14.3314M2.12743 14.3314C2.02733 14.2117 1.97507 14.0334 2.01158 13.8315L2.01162 13.8312M2.12743 14.3314L2.01162 13.8312M2.01162 13.8312C2.25004 12.5086 2.99099 11.3949 4.17745 10.6036L2.01162 13.8312Z" stroke="#1D9E50"/>
<path d="M13.4545 5.00007C13.6716 5.00007 13.8669 5.0874 14 5.22573C14.1193 5.10172 14.2846 5.02277 14.4639 5.00421C14.6431 4.98566 14.8235 5.02882 14.9699 5.12532C15.1164 5.22182 15.2185 5.36478 15.2565 5.52642C15.2944 5.68806 15.2655 5.85687 15.1753 6.00005H15.6364C15.7328 6.00005 15.8253 6.03517 15.8935 6.09768C15.9617 6.16019 16 6.24497 16 6.33338V7.00003C16 7.08844 15.9617 7.17322 15.8935 7.23573C15.8253 7.29824 15.7328 7.33336 15.6364 7.33336V8.33334C15.6364 8.51015 15.5597 8.67972 15.4234 8.80474C15.287 8.92976 15.102 9 14.9091 9H13.0909C12.898 9 12.713 8.92976 12.5766 8.80474C12.4403 8.67972 12.3636 8.51015 12.3636 8.33334V7.33336C12.2672 7.33336 12.1747 7.29824 12.1065 7.23573C12.0383 7.17322 12 7.08844 12 7.00003V6.33338C12 6.24497 12.0383 6.16019 12.1065 6.09768C12.1747 6.03517 12.2672 6.00005 12.3636 6.00005H12.8247C12.7609 5.89871 12.7273 5.78375 12.7273 5.66673C12.7273 5.5497 12.7609 5.43475 12.8247 5.3334C12.8886 5.23206 12.9804 5.1479 13.0909 5.08939C13.2015 5.03087 13.3269 5.00007 13.4545 5.00007ZM13.0909 5.66672C13.0909 5.75513 13.1292 5.83991 13.1974 5.90242C13.2656 5.96493 13.3581 6.00005 13.4545 6.00005H13.8182V5.66672C13.8182 5.57832 13.7799 5.49353 13.7117 5.43102C13.6435 5.36851 13.551 5.33339 13.4545 5.33339C13.3581 5.33339 13.2656 5.36851 13.1974 5.43102C13.1292 5.49353 13.0909 5.57832 13.0909 5.66672ZM14.1818 6.33338V7.00003H15.6364V6.33338H14.1818ZM13.8182 6.33338H12.3636V7.00003H13.8182V6.33338ZM12.7273 7.33336V8.33334C12.7273 8.42175 12.7656 8.50653 12.8338 8.56904C12.902 8.63155 12.9945 8.66667 13.0909 8.66667H13.8182V7.33336H12.7273ZM14.1818 8.66667H14.9091C15.0055 8.66667 15.098 8.63155 15.1662 8.56904C15.2344 8.50653 15.2727 8.42175 15.2727 8.33334V7.33336H14.1818V8.66667ZM14.9091 5.66672C14.9091 5.57832 14.8708 5.49353 14.8026 5.43102C14.7344 5.36851 14.6419 5.33339 14.5455 5.33339C14.449 5.33339 14.3565 5.36851 14.2883 5.43102C14.2201 5.49353 14.1818 5.57832 14.1818 5.66672V6.00005H14.5455C14.6419 6.00005 14.7344 5.96493 14.8026 5.90242C14.8708 5.83991 14.9091 5.75513 14.9091 5.66672Z" fill="#1D9E50"/>
</svg>
