<svg width="85" height="82" viewBox="0 0 85 82" fill="none" xmlns="http://www.w3.org/2000/svg">
    <path d="M11.0252 17.9131C21.1139 17.437 31.1983 16.9435 41.2914 16.5854C45.9776 16.4194 50.6638 16.2753 55.3501 16.2142C59.8267 16.1574 64.6745 15.5721 68.8803 17.4632C83.3059 23.9576 77.2221 50.0529 67.2513 57.8007C60.3027 63.1988 49.192 63.6006 40.7585 63.3822C32.9321 63.1857 23.4898 62.2904 16.9037 57.5998C5.55282 49.5157 11.4838 27.4864 11.1125 12.4232C11.3353 3.99414 2.18555 2.62714 2.18555 2.62714" stroke="black" stroke-width="3" stroke-linecap="round" stroke-linejoin="round"/>
    <path fill-rule="evenodd" clip-rule="evenodd" d="M43.6758 33.199H55.7866H43.6758Z" fill="#1D9E50"/>
    <path d="M43.6758 33.199H55.7866" stroke="#1D9E50" stroke-width="3" stroke-linecap="round" stroke-linejoin="round"/>
    <path fill-rule="evenodd" clip-rule="evenodd" d="M18.6224 75.2439C19.9327 75.2439 20.9983 76.3095 20.9983 77.6198C20.9983 78.9344 19.9327 80 18.6224 80C17.3078 80 16.2422 78.9344 16.2422 77.6198C16.2422 76.3095 17.3078 75.2439 18.6224 75.2439Z" fill="black"/>
    <path fill-rule="evenodd" clip-rule="evenodd" d="M18.6224 75.2439C19.9327 75.2439 20.9983 76.3095 20.9983 77.6198C20.9983 78.9344 19.9327 80 18.6224 80C17.3078 80 16.2422 78.9344 16.2422 77.6198C16.2422 76.3095 17.3078 75.2439 18.6224 75.2439Z" stroke="black" stroke-width="3" stroke-linecap="round" stroke-linejoin="round"/>
    <path fill-rule="evenodd" clip-rule="evenodd" d="M63.7431 75.2439C65.0577 75.2439 66.1233 76.3095 66.1233 77.6198C66.1233 78.9344 65.0577 80 63.7431 80C62.4328 80 61.3672 78.9344 61.3672 77.6198C61.3672 76.3095 62.4328 75.2439 63.7431 75.2439Z" fill="black"/>
    <path fill-rule="evenodd" clip-rule="evenodd" d="M63.7431 75.2439C65.0577 75.2439 66.1233 76.3095 66.1233 77.6198C66.1233 78.9344 65.0577 80 63.7431 80C62.4328 80 61.3672 78.9344 61.3672 77.6198C61.3672 76.3095 62.4328 75.2439 63.7431 75.2439Z" stroke="black" stroke-width="3" stroke-linecap="round" stroke-linejoin="round"/>
    <circle cx="71.5333" cy="13.2794" r="13.2794" fill="#1D9E50"/>
    <path d="M71.5349 9.27546C73.2449 9.27546 74.1649 10.6155 74.1649 12.9355C74.1649 14.0955 73.9449 14.9955 73.4949 15.6355C73.0449 16.2755 72.3849 16.5955 71.5349 16.5955C70.6849 16.5955 70.0349 16.2755 69.5849 15.6255C69.1349 14.9855 68.9049 14.0855 68.9049 12.9355C68.9049 10.6155 69.8449 9.27546 71.5349 9.27546ZM71.5249 10.6555C70.7749 10.6555 70.4049 11.4155 70.4049 12.9355C70.4049 14.4555 70.7849 15.2155 71.5349 15.2155C72.2849 15.2155 72.6649 14.4555 72.6649 12.9355C72.6649 11.4155 72.2849 10.6555 71.5249 10.6555Z" fill="black"/>
</svg>
