<svg width="24" height="24" viewBox="0 0 24 24" fill="none" xmlns="http://www.w3.org/2000/svg">
<path d="M14.9996 8.9996L8.9996 14.9996M14.9996 14.9996H14.9896M9.0096 8.9996H8.9996M7.6916 19.6156C8.2816 19.6156 8.5776 19.6156 8.8466 19.7156C8.8846 19.7296 8.9216 19.7449 8.9576 19.7616C9.2186 19.8816 9.4276 20.0896 9.8456 20.5076C10.8076 21.4696 11.2886 21.9506 11.8796 21.9956C11.9596 22.0016 12.0396 22.0016 12.1196 21.9956C12.7106 21.9506 13.1916 21.4696 14.1536 20.5076C14.5716 20.0896 14.7806 19.8816 15.0416 19.7616C15.0776 19.7449 15.1143 19.7296 15.1516 19.7156C15.4216 19.6156 15.7166 19.6156 16.3076 19.6156H16.4176C17.9246 19.6156 18.6786 19.6156 19.1476 19.1476C19.6166 18.6796 19.6156 17.9246 19.6156 16.4176V16.3076C19.6156 15.7176 19.6156 15.4216 19.7156 15.1526C19.7296 15.1146 19.7449 15.0776 19.7616 15.0416C19.8816 14.7806 20.0896 14.5716 20.5076 14.1536C21.4696 13.1916 21.9506 12.7106 21.9956 12.1196C22.0016 12.0396 22.0016 11.9596 21.9956 11.8796C21.9506 11.2886 21.4696 10.8076 20.5076 9.8456C20.0896 9.4276 19.8816 9.2186 19.7616 8.9576L19.7156 8.8476C19.6156 8.5776 19.6156 8.2826 19.6156 7.6916V7.5816C19.6156 6.0746 19.6156 5.3206 19.1476 4.8516C18.6796 4.3826 17.9246 4.3836 16.4176 4.3836H16.3076C15.7176 4.3836 15.4216 4.3836 15.1526 4.2836L15.0416 4.2376C14.7806 4.1176 14.5716 3.9096 14.1536 3.4916C13.1916 2.5296 12.7106 2.0486 12.1196 2.0036C12.0397 1.9988 11.9595 1.9988 11.8796 2.0036C11.2886 2.0486 10.8076 2.5296 9.8456 3.4916C9.4276 3.9096 9.2186 4.1186 8.9576 4.2376L8.8476 4.2836C8.5776 4.3836 8.2826 4.3836 7.6916 4.3836H7.5816C6.0746 4.3836 5.3206 4.3836 4.8516 4.8516C4.3826 5.3196 4.3836 6.0746 4.3836 7.5816V7.6916C4.3836 8.2816 4.3836 8.5776 4.2836 8.8466C4.26894 8.8846 4.2536 8.9216 4.2376 8.9576C4.1176 9.2186 3.9096 9.4276 3.4916 9.8456C2.5296 10.8076 2.0486 11.2886 2.0036 11.8796C1.9988 11.9595 1.9988 12.0397 2.0036 12.1196C2.0486 12.7106 2.5296 13.1916 3.4916 14.1536C3.9096 14.5716 4.1186 14.7806 4.2376 15.0416C4.25427 15.0776 4.2696 15.1143 4.2836 15.1516C4.3836 15.4216 4.3836 15.7166 4.3836 16.3076V16.4176C4.3836 17.9246 4.3836 18.6786 4.8516 19.1476C5.3196 19.6166 6.0746 19.6156 7.5816 19.6156H7.6916Z" stroke="black" stroke-width="1.5" stroke-linecap="round" stroke-linejoin="round"/>
</svg>
