<svg width="20" height="20" viewBox="0 0 20 20" fill="none" xmlns="http://www.w3.org/2000/svg">
<g clip-path="url(#clip0_1676_3819)">
<path opacity="0.972" fill-rule="evenodd" clip-rule="evenodd" d="M3.82813 2.79688C7.04691 2.79167 10.2657 2.79688 13.4844 2.8125C14 2.90098 14.3281 3.19785 14.4688 3.70313C14.4792 6.07813 14.4896 8.45312 14.5 10.8281C15.9375 11.1406 16.8125 12.0156 17.125 13.4531C17.2942 15.1152 16.6223 16.2871 15.1094 16.9688C14.7449 17.0938 14.3699 17.1614 13.9844 17.1719C10.5998 17.176 7.21434 17.1708 3.82813 17.1562C3.26042 17.0469 2.92188 16.7083 2.8125 16.1406C2.79167 12.0365 2.79167 7.93228 2.8125 3.82813C2.92751 3.26002 3.26605 2.91627 3.82813 2.79688ZM3.95313 3.82813C7.11191 3.81264 10.2682 3.82827 13.4219 3.875C13.4435 3.90836 13.4591 3.94482 13.4688 3.98438C13.4844 6.27603 13.4896 8.56769 13.4844 10.8594C12.2895 11.0698 11.4614 11.7364 11 12.8594C10.5971 14.0737 10.8106 15.1622 11.6406 16.125C9.05475 16.1561 6.47141 16.1457 3.89063 16.0938C3.87107 16.0703 3.85544 16.0442 3.84375 16.0156C3.82292 11.9948 3.82292 7.97397 3.84375 3.95313C3.8653 3.89531 3.90176 3.85364 3.95313 3.82813ZM13.7969 11.8281C15.0064 11.8358 15.772 12.4192 16.0938 13.5781C16.2319 14.6133 15.8517 15.3893 14.9531 15.9062C13.7563 16.3742 12.8032 16.0773 12.0938 15.0156C11.606 13.8887 11.8403 12.946 12.7969 12.1875C13.1076 11.9954 13.441 11.8757 13.7969 11.8281Z" fill="#1d9e50"/>
<path opacity="0.992" fill-rule="evenodd" clip-rule="evenodd" d="M5.45304 5.48438C7.57807 5.47916 9.70307 5.48438 11.828 5.5C12.159 5.66988 12.2475 5.9251 12.0937 6.26563C12.0229 6.35729 11.9344 6.425 11.828 6.46875C9.70304 6.4896 7.57804 6.4896 5.45304 6.46875C5.15894 6.30179 5.07039 6.057 5.18741 5.73438C5.25482 5.62575 5.34335 5.54241 5.45304 5.48438Z" fill="#1d9e50"/>
<path opacity="0.965" fill-rule="evenodd" clip-rule="evenodd" d="M5.48425 8.14063C7.58844 8.13541 9.6926 8.14063 11.7968 8.15625C12.0347 8.2355 12.1597 8.40216 12.1718 8.65625C12.1469 8.91497 12.0115 9.08163 11.7655 9.15625C9.6926 9.1771 7.61966 9.1771 5.54675 9.15625C5.15735 9.00929 5.04796 8.74366 5.21863 8.35938C5.29491 8.26707 5.38347 8.19416 5.48425 8.14063Z" fill="#1d9e50"/>
<path opacity="0.964" fill-rule="evenodd" clip-rule="evenodd" d="M5.54677 10.7969C7.06764 10.7917 8.58846 10.7969 10.1093 10.8125C10.4308 10.9398 10.5505 11.1742 10.4686 11.5156C10.4092 11.6688 10.2998 11.7677 10.1405 11.8125C8.58842 11.8333 7.03636 11.8333 5.48427 11.8125C5.13455 11.6363 5.046 11.3707 5.21864 11.0156C5.31233 10.9144 5.42171 10.8415 5.54677 10.7969Z" fill="#1d9e50"/>
<path opacity="0.956" fill-rule="evenodd" clip-rule="evenodd" d="M14.8907 12.7969C15.3956 12.8282 15.5779 13.0886 15.4376 13.5781C14.9532 14.1042 14.448 14.6094 13.922 15.0938C13.7188 15.2017 13.5209 15.1913 13.3282 15.0625C13.073 14.8073 12.8178 14.5521 12.5626 14.2969C12.369 13.8507 12.5097 13.5695 12.9845 13.4531C13.0947 13.4721 13.1989 13.5085 13.297 13.5625C13.4168 13.6823 13.5366 13.8021 13.6564 13.9219C14.0053 13.5729 14.3543 13.224 14.7032 12.875C14.7692 12.8486 14.8317 12.8226 14.8907 12.7969Z" fill="#1d9e50"/>
<path opacity="0.987" fill-rule="evenodd" clip-rule="evenodd" d="M5.45304 13.4844C6.80726 13.4792 8.16141 13.4844 9.51554 13.5C9.8486 13.7066 9.91629 13.9826 9.71866 14.3281C9.65366 14.3788 9.58598 14.4257 9.51554 14.4688C8.16138 14.4896 6.80719 14.4896 5.45304 14.4688C5.15894 14.3018 5.07039 14.057 5.18741 13.7344C5.25482 13.6258 5.34335 13.5424 5.45304 13.4844Z" fill="#1d9e50"/>
</g>
<defs>
<clipPath id="clip0_1676_3819">
<rect width="16" height="16" fill="white" transform="translate(2 2)"/>
</clipPath>
</defs>
</svg>
