<svg width="24" height="24" viewBox="0 0 24 24" fill="none" xmlns="http://www.w3.org/2000/svg">
<path d="M10 2.25C9.80109 2.25 9.61032 2.32902 9.46967 2.46967C9.32902 2.61032 9.25 2.80109 9.25 3V3.75H5C4.80109 3.75 4.61032 3.82902 4.46967 3.96967C4.32902 4.11032 4.25 4.30109 4.25 4.5C4.25 4.69891 4.32902 4.88968 4.46967 5.03033C4.61032 5.17098 4.80109 5.25 5 5.25H19C19.1989 5.25 19.3897 5.17098 19.5303 5.03033C19.671 4.88968 19.75 4.69891 19.75 4.5C19.75 4.30109 19.671 4.11032 19.5303 3.96967C19.3897 3.82902 19.1989 3.75 19 3.75H14.75V3C14.75 2.80109 14.671 2.61032 14.5303 2.46967C14.3897 2.32902 14.1989 2.25 14 2.25H10ZM10 10.65C10.1989 10.65 10.3897 10.729 10.5303 10.8697C10.671 11.0103 10.75 11.2011 10.75 11.4V18.4C10.75 18.5989 10.671 18.7897 10.5303 18.9303C10.3897 19.071 10.1989 19.15 10 19.15C9.80109 19.15 9.61032 19.071 9.46967 18.9303C9.32902 18.7897 9.25 18.5989 9.25 18.4V11.4C9.25 11.2011 9.32902 11.0103 9.46967 10.8697C9.61032 10.729 9.80109 10.65 10 10.65ZM14.75 11.4C14.75 11.2011 14.671 11.0103 14.5303 10.8697C14.3897 10.729 14.1989 10.65 14 10.65C13.8011 10.65 13.6103 10.729 13.4697 10.8697C13.329 11.0103 13.25 11.2011 13.25 11.4V18.4C13.25 18.5989 13.329 18.7897 13.4697 18.9303C13.6103 19.071 13.8011 19.15 14 19.15C14.1989 19.15 14.3897 19.071 14.5303 18.9303C14.671 18.7897 14.75 18.5989 14.75 18.4V11.4Z" fill="white"/>
<path fill-rule="evenodd" clip-rule="evenodd" d="M5.99091 7.917C6.01134 7.73349 6.09875 7.56396 6.2364 7.44089C6.37405 7.31782 6.55226 7.24985 6.73691 7.25H17.2629C17.4476 7.24985 17.6258 7.31782 17.7634 7.44089C17.9011 7.56396 17.9885 7.73349 18.0089 7.917L18.2089 9.719C18.5719 12.984 18.5719 16.279 18.2089 19.545L18.1889 19.722C18.1188 20.352 17.8409 20.9407 17.3991 21.3952C16.9573 21.8497 16.3767 22.1441 15.7489 22.232C13.2617 22.5802 10.7381 22.5802 8.25091 22.232C7.62316 22.1441 7.04255 21.8497 6.60071 21.3952C6.15888 20.9407 5.88099 20.352 5.81091 19.722L5.79091 19.545C5.4281 16.2797 5.4281 12.9843 5.79091 9.719L5.99091 7.917ZM7.40791 8.75L7.28191 9.884C6.93132 13.0393 6.93132 16.2237 7.28191 19.379L7.30191 19.556C7.335 19.8549 7.4667 20.1342 7.67622 20.3499C7.88574 20.5655 8.16113 20.7053 8.45891 20.747C10.8089 21.076 13.1919 21.076 15.5409 20.747C15.8385 20.7053 16.1138 20.5657 16.3233 20.3503C16.5328 20.1348 16.6646 19.8557 16.6979 19.557L16.7179 19.379C17.0679 16.224 17.0679 13.039 16.7179 9.884L16.5919 8.75H7.40791Z" fill="white"/>
</svg>
