<svg width="20" height="20" viewBox="0 0 20 20" fill="none" xmlns="http://www.w3.org/2000/svg">
<path d="M14.9668 12.862C14.9284 12.8533 14.8885 12.8533 14.8501 12.862H14.9668Z" fill="#1d9e50"/>
<g clip-path="url(#clip0_1676_3926)">
<path opacity="0.966" fill-rule="evenodd" clip-rule="evenodd" d="M12.9531 1.98438C13.0781 1.98438 13.2031 1.98438 13.3281 1.98438C13.6377 2.24695 13.9345 2.5282 14.2187 2.82812C15.302 3.95312 16.3854 5.07812 17.4687 6.20312C17.648 6.39781 17.8199 6.59575 17.9843 6.79688C17.9843 6.92188 17.9843 7.04688 17.9843 7.17188C16.5039 8.77222 14.9935 10.3503 13.4531 11.9062C13.093 12.0825 12.8274 11.9939 12.6562 11.6406C12.6406 10.8699 12.6354 10.099 12.6406 9.32812C10.7284 9.17184 9.10861 9.776 7.7812 11.1406C7.44051 11.5441 7.14883 11.9816 6.9062 12.4531C6.62495 12.7448 6.3437 12.7448 6.06245 12.4531C5.68286 10.0293 6.37558 7.97203 8.14058 6.28125C9.42645 5.16509 10.9265 4.61821 12.6406 4.64062C12.6354 3.86972 12.6406 3.09889 12.6562 2.32812C12.707 2.16818 12.806 2.0536 12.9531 1.98438ZM13.6718 3.79688C14.7025 4.84842 15.7234 5.91091 16.7343 6.98438C15.7244 8.05163 14.7088 9.11413 13.6875 10.1719C13.677 9.68228 13.6666 9.19272 13.6562 8.70312C13.6093 8.48959 13.4791 8.35938 13.2656 8.3125C12.472 8.27781 11.6804 8.29862 10.8906 8.375C9.38229 8.61394 8.10626 9.28581 7.06245 10.3906C7.42564 8.31616 8.57667 6.86303 10.5156 6.03125C11.4057 5.71938 12.3224 5.59437 13.2656 5.65625C13.4791 5.60938 13.6093 5.47916 13.6562 5.26562C13.6718 4.77615 13.677 4.28657 13.6718 3.79688Z" fill="#1d9e50"/>
<path opacity="0.983" fill-rule="evenodd" clip-rule="evenodd" d="M17.9844 10.297C17.9844 12.3595 17.9844 14.422 17.9844 16.4845C17.7856 17.2874 17.2856 17.7874 16.4844 17.9845C12.151 17.9845 7.81772 17.9845 3.48438 17.9845C2.68146 17.7858 2.18146 17.2858 1.98438 16.4845C1.98438 13.0366 1.98438 9.58867 1.98438 6.14076C2.16121 5.37685 2.62996 4.89247 3.39062 4.68764C4.35813 4.63675 5.32687 4.62633 6.29688 4.65639C6.57269 4.76503 6.69247 4.96816 6.65625 5.26576C6.61219 5.43264 6.51322 5.55242 6.35938 5.62514C5.45503 5.66604 4.54879 5.68689 3.64062 5.68764C3.33167 5.77132 3.12854 5.96401 3.03125 6.26576C3.01042 9.63035 3.01042 12.9949 3.03125 16.3595C3.11979 16.6564 3.3125 16.8491 3.60938 16.9376C5.73344 16.9738 7.85844 16.9894 9.98438 16.9845C12.0469 16.9793 14.1094 16.9741 16.1719 16.9689C16.6604 16.9074 16.926 16.6314 16.9688 16.1408C16.9792 14.1929 16.9896 12.2449 17 10.297C17.0877 10.0787 17.2492 9.97451 17.4844 9.98451C17.7223 9.97832 17.889 10.0825 17.9844 10.297Z" fill="#1d9e50"/>
</g>
<defs>
<clipPath id="clip0_1676_3926">
<rect width="16" height="16" fill="white" transform="translate(2 2)"/>
</clipPath>
</defs>
</svg>
