<svg width="20" height="20" viewBox="0 0 20 20" fill="none" xmlns="http://www.w3.org/2000/svg">
<path fill-rule="evenodd" clip-rule="evenodd" d="M11.0033 1.86976C9.45583 1.52142 8.33333 2.85142 8.33333 4.16642V15.8331C8.33333 17.1481 9.45583 18.4781 11.0033 18.1298C14.7217 17.2931 17.5 13.9714 17.5 9.99976C17.5 6.02809 14.7217 2.70642 11.0033 1.86976ZM11.0775 6.91059C11.2338 6.75436 11.4457 6.6666 11.6667 6.6666C11.8876 6.6666 12.0996 6.75436 12.2558 6.91059L14.7558 9.41059C14.9121 9.56686 14.9998 9.77879 14.9998 9.99976C14.9998 10.2207 14.9121 10.4327 14.7558 10.5889L12.2558 13.0889C12.0987 13.2407 11.8882 13.3247 11.6697 13.3228C11.4512 13.3209 11.2422 13.2333 11.0877 13.0788C10.9331 12.9243 10.8455 12.7153 10.8436 12.4968C10.8417 12.2783 10.9257 12.0678 11.0775 11.9106L12.155 10.8331H3.33333C3.11232 10.8331 2.90036 10.7453 2.74408 10.589C2.5878 10.4327 2.5 10.2208 2.5 9.99976C2.5 9.77874 2.5878 9.56678 2.74408 9.4105C2.90036 9.25422 3.11232 9.16642 3.33333 9.16642H12.155L11.0775 8.08892C10.9213 7.93265 10.8335 7.72073 10.8335 7.49976C10.8335 7.27879 10.9213 7.06686 11.0775 6.91059Z" fill="#1d9e50"/>
</svg>
