<svg width="20" height="20" viewBox="0 0 20 20" fill="none" xmlns="http://www.w3.org/2000/svg">
<path d="M9.8146 13.7661H10.7092V8.70916H9.8146V13.7661ZM10.2619 7.29845C10.4181 7.29845 10.549 7.24567 10.6546 7.14011C10.7596 7.03455 10.812 6.90395 10.812 6.7483C10.812 6.59205 10.7593 6.46114 10.6537 6.35559C10.5481 6.25003 10.4175 6.19755 10.2619 6.19814C10.1062 6.19874 9.97562 6.25152 9.87007 6.35648C9.76451 6.46144 9.71173 6.59234 9.71173 6.74919C9.71173 6.90603 9.76451 7.03664 9.87007 7.14101C9.97562 7.24537 10.1062 7.29785 10.2619 7.29845ZM10.2619 17.9991C8.46442 17.4654 6.97141 16.3767 5.78285 14.7331C4.59428 13.0895 4 11.2375 4 9.17701V4.33926L10.2619 2L16.5238 4.33926V9.17701C16.5238 11.2369 15.9295 13.0886 14.7409 14.7322C13.5524 16.3758 12.0593 17.4642 10.2619 17.9991ZM10.2619 17.05C11.8124 16.558 13.0946 15.574 14.1085 14.098C15.1223 12.6219 15.6292 10.9819 15.6292 9.17791V4.95024L10.2619 2.95538L4.89455 4.95024V9.17701C4.89455 10.981 5.40147 12.621 6.4153 14.0971C7.42913 15.5731 8.71132 16.558 10.2619 17.05Z" fill="#1d9e50"/>
</svg>
