<svg width="20" height="20" viewBox="0 0 20 20" fill="none" xmlns="http://www.w3.org/2000/svg">
<path opacity="0.964" fill-rule="evenodd" clip-rule="evenodd" d="M8.23448 3.48478C9.67466 3.37384 10.7007 3.96759 11.3126 5.26603C11.7193 6.47756 11.4745 7.53484 10.5782 8.4379C9.65632 9.19128 8.63551 9.35793 7.51573 8.9379C6.19441 8.2589 5.64754 7.18078 5.8751 5.70353C6.21435 4.48395 7.00082 3.74436 8.23448 3.48478ZM8.64073 4.48478C9.43829 4.53197 10.006 4.91738 10.3439 5.64103C10.6296 6.54412 10.3952 7.2785 9.64073 7.84415C8.70276 8.33456 7.88507 8.1835 7.1876 7.39103C6.7021 6.65443 6.71251 5.92528 7.21885 5.20353C7.59245 4.75892 8.06641 4.51934 8.64073 4.48478Z" fill="#1d9e50"/>
<path opacity="0.97" fill-rule="evenodd" clip-rule="evenodd" d="M6.85932 10.1406C8.06769 10.1354 9.27603 10.1406 10.4843 10.1563C10.8263 10.1897 11.1596 10.2626 11.4843 10.375C11.8005 10.5529 11.8786 10.8081 11.7187 11.1406C11.5715 11.3366 11.3788 11.4043 11.1406 11.3438C10.9159 11.272 10.6868 11.2199 10.4531 11.1875C9.21347 11.1667 7.97391 11.1667 6.73432 11.1875C5.3481 11.5008 4.59809 12.3653 4.48432 13.7813C4.4648 14.193 4.54292 14.5836 4.71869 14.9531C4.86298 15.1583 5.05569 15.2989 5.29682 15.375C5.51175 15.432 5.7305 15.4632 5.95307 15.4688C6.91141 15.4792 7.86972 15.4896 8.82806 15.5C9.159 15.6699 9.24756 15.9251 9.09369 16.2656C9.02294 16.3573 8.93438 16.425 8.82806 16.4688C7.71347 16.4896 6.59891 16.4896 5.48432 16.4688C4.32275 16.3072 3.6613 15.6457 3.49994 14.4844C3.38436 13.4469 3.60311 12.4886 4.15619 11.6094C4.83527 10.7151 5.73632 10.2255 6.85932 10.1406Z" fill="#1d9e50"/>
<path opacity="0.965" fill-rule="evenodd" clip-rule="evenodd" d="M15.0156 10.1405C15.3872 10.0927 15.7205 10.1813 16.0156 10.4061C16.3021 10.6926 16.5885 10.979 16.875 11.2655C17.2279 11.7336 17.2592 12.2232 16.9688 12.7342C15.5277 14.1753 14.085 15.6179 12.6406 17.0624C12.5714 17.1022 12.4984 17.1334 12.4219 17.1561C11.7969 17.1769 11.1719 17.1769 10.5469 17.1561C10.3461 17.1115 10.2159 16.9917 10.1563 16.7967C10.1354 16.1405 10.1354 15.4842 10.1563 14.828C10.1875 14.7655 10.2188 14.703 10.25 14.6405C11.6719 13.2186 13.0938 11.7967 14.5156 10.3749C14.6732 10.2699 14.8399 10.1918 15.0156 10.1405ZM15.1719 11.1717C15.2392 11.1677 15.3017 11.1834 15.3594 11.2186C15.6432 11.4814 15.9036 11.7627 16.1406 12.0624C16.1151 12.1089 16.0891 12.1558 16.0625 12.203C15.8964 12.343 15.7349 12.4889 15.5781 12.6405C15.2609 12.3389 14.9484 12.0315 14.6406 11.7186C14.8241 11.5404 15.0011 11.3581 15.1719 11.1717ZM13.8906 12.453C14.202 12.7487 14.5093 13.0508 14.8125 13.3592C14.8334 13.3801 14.8334 13.4009 14.8125 13.4217C13.9115 14.3228 13.0104 15.2238 12.1094 16.1249C11.7971 16.1405 11.4846 16.1457 11.1719 16.1405C11.1667 15.8174 11.1719 15.4945 11.1875 15.1717C12.0949 14.2696 12.9959 13.3634 13.8906 12.453Z" fill="#1d9e50"/>
</svg>
