<svg width="24" height="24" viewBox="0 0 24 24" fill="none" xmlns="http://www.w3.org/2000/svg">
<g clip-path="url(#clip0_4669_10717)">
<path d="M13.6472 21.375H0.75V6.70186L4.71788 0.75H9.1875V1.6875H5.21962L1.6875 6.98564V20.4375H13.6472V21.375ZM19.5 13.0312V6.98564L15.9679 1.6875H12.4688V0.75H16.4696L20.4375 6.70186V13.0308L19.5 13.0312Z" fill="#9FA4B2"/>
<path d="M13.4062 6.375H19.9688V7.3125H13.4062V6.375ZM1.21875 6.375H7.78125V7.3125H1.21875V6.375Z" fill="#9FA4B2"/>
<path d="M8.23598 6.95747L7.32652 6.73003L8.8215 0.75H12.8659L13.8686 6.76669L12.9439 6.92081L12.0716 1.6875H9.5535L8.23598 6.95747ZM9.1875 19.5H2.625V12.9375H9.1875V19.5ZM3.5625 18.5625H8.25V13.875H3.5625V18.5625Z" fill="#9FA4B2"/>
<path d="M4.5 14.8125H7.3125V15.75H4.5V14.8125ZM4.5 16.6875H7.3125V17.625H4.5V16.6875ZM17.625 23.25C14.4852 23.25 12 20.6992 12 17.625C12 14.5234 14.5234 12 17.625 12C18.5258 12 19.3861 12.2064 20.1822 12.6135L20.1821 12.6134C22.0745 13.5809 23.25 15.5011 23.25 17.625C23.25 20.7266 20.7266 23.25 17.625 23.25ZM17.625 12.9375C15.0403 12.9375 12.9375 15.0403 12.9375 17.625C12.9375 20.196 15.018 22.3125 17.625 22.3125C20.2097 22.3125 22.3125 20.2097 22.3125 17.625C22.3125 15.855 21.3327 14.2545 19.7554 13.4482L19.7553 13.4482C19.0927 13.1093 18.3759 12.9375 17.625 12.9375ZM13.875 11.9384L12 10.6884L10.5938 11.6259L9.1875 10.6884L7.3125 11.9384V6.375H13.875V11.9384ZM9.1875 9.56161L10.5938 10.4991L12 9.56161L12.9375 10.1866V7.3125H8.25V10.1866L9.1875 9.56161Z" fill="#9FA4B2"/>
<path d="M16.6869 19.6936L14.9492 17.9559L15.6121 17.293L16.6869 18.3677L19.168 15.8867L19.8309 16.5496L16.6869 19.6936Z" fill="#9FA4B2"/>
</g>
<defs>
<clipPath id="clip0_4669_10717">
<rect width="24" height="24" fill="white"/>
</clipPath>
</defs>
</svg>
