<svg width="20" height="20" viewBox="0 0 20 20" fill="none" xmlns="http://www.w3.org/2000/svg">
<g clip-path="url(#clip0_1676_3840)">
<path opacity="0.937" fill-rule="evenodd" clip-rule="evenodd" d="M17.9844 13.2656C17.9844 13.5781 17.9844 13.8906 17.9844 14.2031C17.6689 15.6804 16.8043 16.696 15.3906 17.2499C15.0744 17.3629 14.7515 17.4514 14.4219 17.5156C14.2521 17.5073 14.1584 17.4187 14.1406 17.2499C14.1478 17.1656 14.1791 17.0927 14.2344 17.0312C14.7578 16.8095 15.2005 16.4814 15.5625 16.0468C16.0707 15.3344 16.0811 14.6157 15.5938 13.8906C15.4827 13.9912 15.363 14.0797 15.2344 14.1562C13.1355 15.3566 11.0418 16.565 8.95312 17.7812C8.82194 17.8487 8.69694 17.8383 8.57812 17.7499C6.41147 16.4999 4.24479 15.2499 2.07812 13.9999C2.04261 13.9642 2.01136 13.9277 1.98438 13.8906C1.98438 11.2864 1.98438 8.68222 1.98438 6.07807C2.01136 6.04094 2.04261 6.00447 2.07812 5.96869C4.24479 4.71869 6.41147 3.46869 8.57812 2.21869C8.69694 2.13032 8.82194 2.1199 8.95312 2.18744C11.0418 3.40367 13.1355 4.61201 15.2344 5.81244C15.363 5.88894 15.4827 5.97747 15.5938 6.07807C15.599 7.5261 15.6146 8.97401 15.6406 10.4218C16.9174 10.9668 17.6987 11.9147 17.9844 13.2656ZM8.73438 2.73432C8.813 2.7423 8.88594 2.76834 8.95312 2.81244C9.49478 3.12494 10.0365 3.43744 10.5781 3.74994C8.57037 4.90746 6.56516 6.06891 4.5625 7.23432C3.97139 6.89451 3.38285 6.55076 2.79688 6.20307C4.77801 5.04599 6.75719 3.88974 8.73438 2.73432ZM11.0781 4.07807C11.5407 4.30687 11.9939 4.55687 12.4375 4.82807C12.459 4.85406 12.4538 4.87489 12.4219 4.89057C10.4374 6.04429 8.44781 7.19013 6.45312 8.32807C6.00522 8.06244 5.55728 7.79682 5.10938 7.53119C7.11116 6.3951 9.10072 5.24407 11.0781 4.07807ZM12.9844 5.17182C13.5919 5.50169 14.1961 5.84022 14.7969 6.18744C12.802 7.35679 10.802 8.51826 8.79688 9.67182C8.19284 9.33863 7.59909 8.98966 7.01562 8.62494C9.01741 7.48885 11.007 6.33782 12.9844 5.17182ZM2.48438 6.67182C3.09436 6.99507 3.69332 7.33882 4.28125 7.70307C4.29167 8.67182 4.30208 9.64057 4.3125 10.6093C4.34755 10.6757 4.39443 10.733 4.45312 10.7812C4.99479 11.0937 5.53647 11.4062 6.07812 11.7187C6.20281 11.792 6.333 11.8493 6.46875 11.8906C6.58763 11.8759 6.67097 11.8134 6.71875 11.7031C6.72916 10.8385 6.73959 9.97391 6.75 9.10932C7.33847 9.44519 7.92181 9.78894 8.5 10.1406C8.52084 12.4531 8.52084 14.7656 8.5 17.0781C6.50513 15.9139 4.50511 14.7577 2.5 13.6093C2.48438 11.2969 2.47917 8.98435 2.48438 6.67182ZM15.0469 6.67182C15.0781 7.84357 15.0885 9.02066 15.0781 10.2031C14.524 10.0656 13.9615 9.98226 13.3906 9.95307C13.3958 9.65082 13.3906 9.34872 13.375 9.04682C13.2829 8.91541 13.1632 8.87894 13.0156 8.93744C12.0208 9.76557 11.026 10.5937 10.0312 11.4218C9.9385 11.6164 9.98538 11.7675 10.1719 11.8749C11.1094 12.5624 12.0469 13.2499 12.9844 13.9374C13.1488 14.0145 13.279 13.978 13.375 13.8281C13.3906 13.5158 13.3958 13.2033 13.3906 12.8906C13.9888 12.9073 14.5409 13.0739 15.0469 13.3906C15.0932 13.4878 15.0828 13.5764 15.0156 13.6562C13.0313 14.7889 11.0522 15.9295 9.07812 17.0781C9.04166 14.7656 9.03647 12.4531 9.0625 10.1406C11.0669 8.99532 13.0617 7.83907 15.0469 6.67182ZM4.82812 8.01557C5.28294 8.27166 5.73606 8.53207 6.1875 8.79682C6.21353 9.57829 6.20831 10.3595 6.17188 11.1406C5.72147 10.892 5.27875 10.6316 4.84375 10.3593C4.82812 9.57813 4.82292 8.79688 4.82812 8.01557ZM16.0781 16.2656C16.7366 15.0986 16.5803 14.0517 15.6094 13.1249C14.8133 12.521 13.9227 12.2866 12.9375 12.4218C12.9106 12.4714 12.8897 12.5235 12.875 12.5781C12.8646 12.776 12.8542 12.9739 12.8438 13.1718C12.1274 12.6444 11.4139 12.1131 10.7031 11.5781C11.4125 10.9705 12.1261 10.3664 12.8438 9.76557C12.8542 9.93223 12.8646 10.0989 12.875 10.2656C12.8966 10.3498 12.9434 10.4175 13.0156 10.4687C13.8219 10.4659 14.6031 10.6013 15.3594 10.8749C16.9456 11.5526 17.6175 12.7453 17.375 14.4531C17.1536 15.2105 16.7213 15.8147 16.0781 16.2656Z" fill="#1d9e50"/>
</g>
<defs>
<clipPath id="clip0_1676_3840">
<rect width="16" height="16" fill="white" transform="translate(2 2)"/>
</clipPath>
</defs>
</svg>
