<svg width="24" height="24" viewBox="0 0 24 24" fill="none" xmlns="http://www.w3.org/2000/svg">
<path d="M5.40877 6.64209C7.71877 6.53309 10.0278 6.42009 12.3388 6.33809C13.4118 6.30009 14.4848 6.26709 15.5578 6.25309C16.5828 6.24009 17.6928 6.10609 18.6558 6.53909C21.9588 8.02609 20.5658 14.0011 18.2828 15.7751C16.6918 17.0111 14.1478 17.1031 12.2168 17.0531C10.4248 17.0081 8.26277 16.8031 6.75477 15.7291C4.15577 13.8781 5.51377 8.83409 5.42877 5.38509C5.47977 3.45509 3.38477 3.14209 3.38477 3.14209" stroke="#1D9E50" stroke-width="1.5" stroke-linecap="round" stroke-linejoin="round"/>
<path fill-rule="evenodd" clip-rule="evenodd" d="M6.2066 6.60434C5.94066 6.61694 5.67472 6.62954 5.40877 6.64209L5.40855 6.64172C5.42908 6.20637 5.43862 5.78501 5.42877 5.38509C5.47977 3.45509 3.38477 3.14209 3.38477 3.14209L5.40855 6.64172C5.38261 7.1918 5.33914 7.7642 5.29511 8.34386C5.0735 11.2619 4.83791 14.3639 6.75477 15.7291C8.26277 16.8031 10.4248 17.0081 12.2168 17.0531C14.1478 17.1031 16.6918 17.0111 18.2828 15.7751C20.5658 14.0011 21.9588 8.02609 18.6558 6.53909C17.8601 6.18132 16.9641 6.21064 16.0985 6.23896C15.9165 6.24492 15.7359 6.25083 15.5578 6.25309C14.4848 6.26709 13.4118 6.30009 12.3388 6.33809C10.2939 6.41065 8.25048 6.50748 6.2066 6.60434ZM12.8848 9.39209C12.4706 9.39209 12.1348 9.72788 12.1348 10.1421C12.1348 10.5563 12.4706 10.8921 12.8848 10.8921H15.6578C16.072 10.8921 16.4078 10.5563 16.4078 10.1421C16.4078 9.72788 16.072 9.39209 15.6578 9.39209H12.8848Z" fill="#1D9E50"/>
<path fill-rule="evenodd" clip-rule="evenodd" d="M7.14852 19.769C7.44852 19.769 7.69252 20.013 7.69252 20.313C7.69252 20.614 7.44852 20.858 7.14852 20.858C6.84752 20.858 6.60352 20.614 6.60352 20.313C6.60352 20.013 6.84752 19.769 7.14852 19.769Z" fill="#1D9E50"/>
<path fill-rule="evenodd" clip-rule="evenodd" d="M7.14852 19.769C7.44852 19.769 7.69252 20.013 7.69252 20.313C7.69252 20.614 7.44852 20.858 7.14852 20.858C6.84752 20.858 6.60352 20.614 6.60352 20.313C6.60352 20.013 6.84752 19.769 7.14852 19.769Z" stroke="#1D9E50" stroke-width="1.5" stroke-linecap="round" stroke-linejoin="round"/>
<path fill-rule="evenodd" clip-rule="evenodd" d="M17.4795 19.769C17.7805 19.769 18.0245 20.013 18.0245 20.313C18.0245 20.614 17.7805 20.858 17.4795 20.858C17.1795 20.858 16.9355 20.614 16.9355 20.313C16.9355 20.013 17.1795 19.769 17.4795 19.769Z" fill="#1D9E50"/>
<path fill-rule="evenodd" clip-rule="evenodd" d="M17.4795 19.769C17.7805 19.769 18.0245 20.013 18.0245 20.313C18.0245 20.614 17.7805 20.858 17.4795 20.858C17.1795 20.858 16.9355 20.614 16.9355 20.313C16.9355 20.013 17.1795 19.769 17.4795 19.769Z" stroke="#1D9E50" stroke-width="1.5" stroke-linecap="round" stroke-linejoin="round"/>
</svg>
