<svg width="20" height="20" viewBox="0 0 20 20" fill="none" xmlns="http://www.w3.org/2000/svg">
<path opacity="0.965" fill-rule="evenodd" clip-rule="evenodd" d="M13.0781 2.98414C14.7979 2.89311 16.0219 3.62227 16.75 5.17164C17.2657 6.68645 16.9584 8.00417 15.8281 9.12476C14.6874 10.0529 13.4321 10.2455 12.0625 9.70289C11.1459 11.153 9.83864 11.7207 8.14058 11.406C6.64408 10.972 5.76386 9.98767 5.49995 8.45289C5.37461 6.66277 6.1298 5.40758 7.76558 4.68726C8.65064 4.39559 9.52564 4.42163 10.3906 4.76539C11.0173 3.76461 11.9131 3.17086 13.0781 2.98414ZM13.1406 4.01539C14.45 3.93588 15.3511 4.49838 15.8437 5.70289C16.1804 7.09683 15.7169 8.12286 14.4531 8.78101C13.2145 9.19792 12.1988 8.89064 11.4062 7.85914C10.9719 7.12426 10.8989 6.35342 11.1875 5.54664C11.5726 4.69541 12.2237 4.18499 13.1406 4.01539ZM8.64058 5.51539C9.11889 5.46733 9.57724 5.54023 10.0156 5.73414C9.79914 7.07961 10.1845 8.22023 11.1718 9.15601C10.4151 10.3424 9.36302 10.7174 8.01558 10.281C6.84958 9.69389 6.3652 8.75117 6.56245 7.45289C6.8507 6.36936 7.54342 5.72352 8.64058 5.51539Z" fill="#1d9e50"/>
<path opacity="0.977" fill-rule="evenodd" clip-rule="evenodd" d="M13.3281 4.48419C13.6231 4.431 13.8366 4.53517 13.9688 4.79669C13.9896 5.42169 13.9896 6.04669 13.9688 6.67169C13.7795 7.00909 13.5139 7.08722 13.1719 6.90606C13.0904 6.8455 13.0332 6.76737 13 6.67169C12.9792 6.04669 12.9792 5.42169 13 4.79669C13.0658 4.64223 13.1752 4.53806 13.3281 4.48419Z" fill="#1d9e50"/>
<path opacity="0.936" fill-rule="evenodd" clip-rule="evenodd" d="M13.3282 7.48422C13.8282 7.44778 14.0418 7.67694 13.9688 8.17172C13.7795 8.50912 13.5139 8.58725 13.1719 8.40609C12.9948 8.23987 12.9375 8.03675 13.0001 7.79672C13.0659 7.64225 13.1752 7.53809 13.3282 7.48422Z" fill="#1d9e50"/>
<path opacity="0.967" fill-rule="evenodd" clip-rule="evenodd" d="M5.14062 11.9844C7.70316 11.9792 10.2657 11.9844 12.8281 12C13.7283 12.1503 14.3794 12.6347 14.7812 13.4531C15.2233 14.6484 14.9681 15.664 14.0156 16.5C13.6855 16.7327 13.3209 16.8889 12.9219 16.9688C10.3809 17.0201 7.83928 17.0305 5.29687 17C4.03685 16.836 3.27123 16.1329 3 14.8906C2.8748 13.6564 3.35917 12.7553 4.45312 12.1875C4.68032 12.0996 4.90949 12.0319 5.14062 11.9844ZM5.23437 13.0156C7.78759 13.0004 10.3397 13.0161 12.8906 13.0625C13.6982 13.3595 14.0472 13.9377 13.9375 14.7969C13.7621 15.4723 13.3298 15.8629 12.6406 15.9688C10.1499 15.9996 7.66034 15.9891 5.17187 15.9375C4.43755 15.74 4.05213 15.2608 4.01562 14.5C4.06295 13.7081 4.4692 13.2133 5.23437 13.0156Z" fill="#1d9e50"/>
</svg>
