<svg width="20" height="20" viewBox="0 0 20 20" fill="none" xmlns="http://www.w3.org/2000/svg">
<path d="M14.9668 12.862C14.9284 12.8533 14.8885 12.8533 14.8501 12.862H14.9668Z" fill="#1d9e50"/>
<g clip-path="url(#clip0_1676_3909)">
<path opacity="0.94" fill-rule="evenodd" clip-rule="evenodd" d="M19.9287 11.6348C19.9287 12.1738 19.9287 12.7129 19.9287 13.252C19.8986 13.4631 19.776 13.6096 19.5611 13.6914C19.3285 13.709 19.0957 13.7148 18.8625 13.709C18.6568 14.5077 18.1237 14.9296 17.2633 14.9746C16.4028 14.9296 15.8697 14.5077 15.664 13.709C13.8993 13.709 12.1346 13.709 10.3699 13.709C10.1056 14.6387 9.46831 15.0547 8.45813 14.957C7.75 14.8014 7.32107 14.3854 7.17136 13.709C6.24894 13.7259 5.32982 13.7083 4.41401 13.6563C4.36927 13.5983 4.33863 13.5339 4.3221 13.4629C4.30372 12.8302 4.29759 12.1974 4.30371 11.5645C3.51931 11.5703 2.73499 11.5645 1.95077 11.5469C1.88511 11.5193 1.82996 11.4783 1.78533 11.4238C1.73042 11.2471 1.77331 11.1007 1.91401 10.9844C2.5819 10.9785 3.24979 10.9727 3.91769 10.9668C4.6133 10.9614 5.3057 10.9789 5.99489 11.0195C6.16886 11.2385 6.1321 11.4143 5.8846 11.5469C5.56621 11.5645 5.24758 11.5703 4.92871 11.5645C4.92871 12.0801 4.92871 12.5957 4.92871 13.1113C5.67625 13.1113 6.42382 13.1113 7.17136 13.1113C7.38158 12.3186 7.91467 11.9084 8.77063 11.8809C9.60125 11.9122 10.1343 12.3106 10.3699 13.0762C11.7913 13.1113 13.2128 13.123 14.6346 13.1113C14.6346 10.6738 14.6346 8.23632 14.6346 5.79884C11.3993 5.79884 8.16401 5.79884 4.92871 5.79884C4.92871 6.08009 4.92871 6.36134 4.92871 6.64259C5.54158 6.63672 6.15434 6.64259 6.76695 6.66016C7.06107 6.84765 7.06107 7.03518 6.76695 7.22266C5.49243 7.24611 4.21793 7.24611 2.94342 7.22266C2.77546 7.13333 2.72031 6.99854 2.77798 6.81837C2.80862 6.74218 2.86376 6.68945 2.94342 6.66016C3.39669 6.64259 3.85012 6.63672 4.30371 6.64259C4.28994 6.26564 4.30833 5.89063 4.35886 5.51759C4.44398 5.36582 4.57265 5.26622 4.74489 5.21876C8.115 5.19531 11.4851 5.19531 14.8552 5.21876C15.0417 5.26819 15.1704 5.37949 15.2412 5.55274C15.2596 6.2675 15.2657 6.98234 15.2596 7.69727C16.0563 7.6914 16.8528 7.69727 17.6493 7.71485C17.8474 7.7871 18.0006 7.91015 18.1089 8.08399C18.714 9.08893 19.2899 10.1085 19.8368 11.1426C19.87 11.3111 19.9006 11.4752 19.9287 11.6348ZM15.2596 8.29493C16.0161 8.28343 16.7697 8.29518 17.5206 8.33009C18.0814 9.27365 18.6329 10.2229 19.175 11.1777C19.2389 11.324 19.2757 11.4764 19.2853 11.6348C19.3037 12.1268 19.3099 12.619 19.3037 13.1113C19.1546 13.1227 19.0076 13.111 18.8625 13.0762C18.5175 12.1141 17.819 11.7332 16.767 11.9336C16.1894 12.1285 15.8218 12.5094 15.664 13.0762C15.5314 13.1109 15.3966 13.1227 15.2596 13.1113C15.2596 11.5059 15.2596 9.90041 15.2596 8.29493ZM8.49489 12.4785C9.23515 12.4133 9.66405 12.7297 9.78166 13.4277C9.64081 14.1629 9.18735 14.4617 8.42136 14.3242C7.7853 13.9995 7.61985 13.5249 7.92504 12.9004C8.07886 12.712 8.26883 12.5713 8.49489 12.4785ZM17.0243 12.4785C17.8438 12.4244 18.2543 12.7877 18.2559 13.5684C18.0983 14.1644 17.7 14.4281 17.0611 14.3594C16.5622 14.2221 16.2926 13.9057 16.2522 13.4102C16.3152 12.9463 16.5725 12.6357 17.0243 12.4785Z" fill="#1d9e50" stroke="#1d9e50" stroke-width="0.2"/>
<path opacity="0.973" fill-rule="evenodd" clip-rule="evenodd" d="M4.48792 7.80236C4.66155 7.76907 4.80248 7.81593 4.91072 7.94299C4.9291 8.5288 4.93524 9.11475 4.9291 9.7008C6.26495 9.69493 7.60072 9.7008 8.93645 9.71838C9.13252 9.89416 9.13252 10.0699 8.93645 10.2457C7.09822 10.2692 5.25998 10.2692 3.42175 10.2457C3.19366 10.0868 3.1814 9.91104 3.38498 9.71838C3.69111 9.7008 3.99748 9.69496 4.3041 9.7008C4.29798 9.1499 4.3041 8.59911 4.32248 8.04846C4.34252 7.94204 4.39767 7.86002 4.48792 7.80236Z" fill="#1d9e50" stroke="#1d9e50" stroke-width="0.2"/>
<path opacity="0.929" fill-rule="evenodd" clip-rule="evenodd" d="M1.10547 8.68165C1.10547 8.55273 1.10547 8.42385 1.10547 8.29493C1.15626 8.24919 1.21754 8.21991 1.28929 8.20704C2.02459 8.18359 2.75988 8.18359 3.49517 8.20704C3.71106 8.31307 3.7662 8.47127 3.66062 8.68165C3.62744 8.72387 3.58454 8.75319 3.53194 8.76954C2.75988 8.79299 1.98782 8.79299 1.21576 8.76954C1.18365 8.7328 1.14689 8.70352 1.10547 8.68165Z" fill="#1d9e50" stroke="#1d9e50" stroke-width="0.2"/>
</g>
<defs>
<clipPath id="clip0_1676_3909">
<rect width="18.9474" height="18" fill="white" transform="translate(1 1)"/>
</clipPath>
</defs>
</svg>
