<svg width="24" height="24" viewBox="0 0 24 24" fill="none" xmlns="http://www.w3.org/2000/svg">
<path d="M13.5253 4.30575C13.5508 4.21057 13.5947 4.12133 13.6547 4.04315C13.7147 3.96496 13.7894 3.89935 13.8748 3.85008C13.9601 3.8008 14.0543 3.76882 14.152 3.75596C14.2496 3.74309 14.3489 3.74961 14.4441 3.77512C15.8344 4.13789 17.103 4.86473 18.119 5.88078C19.1351 6.89684 19.8619 8.16538 20.2247 9.55575C20.2502 9.65092 20.2567 9.75018 20.2439 9.84786C20.231 9.94555 20.199 10.0397 20.1497 10.1251C20.1005 10.2104 20.0349 10.2852 19.9567 10.3451C19.8785 10.4051 19.7893 10.449 19.6941 10.4745C19.6307 10.4911 19.5655 10.4996 19.5 10.4998C19.3349 10.4999 19.1743 10.4454 19.0433 10.3449C18.9122 10.2444 18.8181 10.1034 18.7753 9.94387C18.4796 8.80869 17.8865 7.77292 17.0571 6.94335C16.2277 6.11378 15.192 5.52044 14.0569 5.2245C13.9616 5.19914 13.8723 5.15525 13.794 5.09533C13.7157 5.03542 13.65 4.96066 13.6006 4.87533C13.5513 4.79 13.5192 4.69577 13.5063 4.59803C13.4933 4.5003 13.4998 4.40098 13.5253 4.30575ZM13.3069 8.2245C14.5997 8.5695 15.4303 9.40106 15.7753 10.6939C15.8181 10.8534 15.9122 10.9944 16.0433 11.0949C16.1743 11.1954 16.3349 11.2499 16.5 11.2498C16.5655 11.2496 16.6307 11.2411 16.6941 11.2245C16.7893 11.199 16.8785 11.1551 16.9567 11.0951C17.0349 11.0352 17.1005 10.9604 17.1497 10.8751C17.199 10.7897 17.231 10.6955 17.2439 10.5979C17.2567 10.5002 17.2502 10.4009 17.2247 10.3057C16.7447 8.5095 15.4903 7.25512 13.6941 6.77512C13.5019 6.72378 13.2971 6.75089 13.1249 6.85049C12.9527 6.95009 12.8271 7.11402 12.7758 7.30622C12.7244 7.49842 12.7516 7.70314 12.8512 7.87535C12.9508 8.04756 13.1147 8.17315 13.3069 8.2245ZM20.0972 15.6054L15.6806 13.6264L15.6684 13.6207C15.4392 13.5227 15.189 13.4833 14.9407 13.5062C14.6924 13.5292 14.4537 13.6136 14.2463 13.752C14.2218 13.7681 14.1984 13.7857 14.1759 13.8045L11.8941 15.7498C10.4484 15.0476 8.95595 13.5664 8.25376 12.1395L10.2019 9.82294C10.2206 9.7995 10.2384 9.77606 10.2553 9.75075C10.3907 9.54384 10.4729 9.30667 10.4945 9.06035C10.5161 8.81402 10.4764 8.56618 10.3791 8.33887V8.32762L8.39438 3.90356C8.2657 3.60662 8.04444 3.35926 7.76362 3.19841C7.4828 3.03756 7.1575 2.97184 6.83626 3.01106C5.56592 3.17822 4.39986 3.80209 3.55588 4.76615C2.7119 5.73021 2.24771 6.96852 2.25001 8.24981C2.25001 15.6936 8.30626 21.7498 15.75 21.7498C17.0313 21.7521 18.2696 21.2879 19.2337 20.4439C20.1977 19.6 20.8216 18.4339 20.9888 17.1636C21.0281 16.8424 20.9625 16.5172 20.8018 16.2364C20.6411 15.9556 20.394 15.7343 20.0972 15.6054Z" fill="#1D9E50"/>
</svg>
