<svg width="24" height="24" viewBox="0 0 24 24" fill="none" xmlns="http://www.w3.org/2000/svg">
<path fill-rule="evenodd" clip-rule="evenodd" d="M3 12.1339C3 10.6929 3 9.97233 3.30505 9.3486C3.61011 8.72488 4.17886 8.28252 5.31635 7.3978L5.31636 7.3978L8.31636 5.06447C10.0859 3.68816 10.9707 3 12 3C13.0293 3 13.9141 3.68816 15.6836 5.06447L18.6836 7.39779C19.8211 8.28252 20.3899 8.72488 20.6949 9.3486C21 9.97233 21 10.6929 21 12.1339V14.9994C21 17.8278 21 19.2421 20.1213 20.1207C19.2426 20.9994 17.8284 20.9994 15 20.9994H9C6.17157 20.9994 4.75736 20.9994 3.87868 20.1207C3 19.2421 3 17.8278 3 14.9994V12.1339ZM10.25 10C9.2835 10 8.5 10.7835 8.5 11.75C8.5 12.7165 9.2835 13.5 10.25 13.5C9.2835 13.5 8.5 14.2835 8.5 15.25C8.5 16.2165 9.2835 17 10.25 17C11.2165 17 12 16.2165 12 15.25C12 16.2165 12.7835 17 13.75 17C14.7165 17 15.5 16.2165 15.5 15.25C15.5 14.2839 14.7173 13.5007 13.7514 13.5H13.75C14.7165 13.5 15.5 12.7165 15.5 11.75C15.5 10.7839 14.7173 10.0007 13.7514 10H13.75C12.7835 10 12 10.7835 12 11.75C12 10.7839 11.2173 10.0007 10.2514 10H10.25ZM12 11.75C12 12.7165 12.7835 13.5 13.75 13.5C12.7835 13.5 12 14.2835 12 15.25C12 14.2839 11.2173 13.5007 10.2514 13.5H10.25C11.2165 13.5 12 12.7165 12 11.75Z" fill="#1D9E50"/>
<path d="M3.30505 9.3486L2.63132 9.01909H2.63132L3.30505 9.3486ZM5.31635 7.3978L5.77681 7.98982C5.78279 7.98517 5.78869 7.98043 5.79453 7.9756L5.31635 7.3978ZM5.31636 7.3978L4.85591 6.80578C4.84993 6.81043 4.84402 6.81517 4.83818 6.82L5.31636 7.3978ZM8.31636 5.06447L7.8559 4.47245L8.31636 5.06447ZM15.6836 5.06447L15.2232 5.65648L15.6836 5.06447ZM18.6836 7.39779L19.1441 6.80578V6.80578L18.6836 7.39779ZM13.7514 13.5L13.7519 12.75H13.7514V13.5ZM13.7514 10L13.7519 9.25H13.7514V10ZM10.2514 10L10.2519 9.25H10.2514V10ZM10.2514 13.5L10.2519 12.75H10.2514V13.5ZM2.63132 9.01909C2.23211 9.83533 2.25 10.7663 2.25 12.1339H3.75C3.75 10.6194 3.76789 10.1093 3.97879 9.67812L2.63132 9.01909ZM4.8559 6.80579C3.77639 7.6454 3.03053 8.20285 2.63132 9.01909L3.97879 9.67812C4.18969 9.24691 4.58132 8.91964 5.77681 7.98982L4.8559 6.80579ZM4.83818 6.82L4.83818 6.82001L5.79453 7.9756L5.79454 7.97559L4.83818 6.82ZM7.8559 4.47245L4.85591 6.80578L5.77682 7.98981L8.77681 5.65648L7.8559 4.47245ZM12 2.25C11.2985 2.25 10.6842 2.49083 10.0487 2.87372C9.43048 3.24621 8.7263 3.79548 7.8559 4.47245L8.77681 5.65648C9.67596 4.95714 10.2989 4.47418 10.8228 4.15852C11.3295 3.85325 11.6722 3.75 12 3.75V2.25ZM16.1441 4.47245C15.2737 3.79548 14.5695 3.24621 13.9513 2.87372C13.3158 2.49083 12.7015 2.25 12 2.25V3.75C12.3278 3.75 12.6705 3.85325 13.1772 4.15852C13.7011 4.47418 14.324 4.95714 15.2232 5.65648L16.1441 4.47245ZM19.1441 6.80578L16.1441 4.47245L15.2232 5.65648L18.2232 7.98981L19.1441 6.80578ZM21.3687 9.01909C20.9695 8.20285 20.2236 7.6454 19.1441 6.80578L18.2232 7.98981C19.4187 8.91963 19.8103 9.24691 20.0212 9.67812L21.3687 9.01909ZM21.75 12.1339C21.75 10.7663 21.7679 9.83533 21.3687 9.01909L20.0212 9.67812C20.2321 10.1093 20.25 10.6194 20.25 12.1339H21.75ZM21.75 14.9994V12.1339H20.25V14.9994H21.75ZM20.6517 20.6511C21.2536 20.0492 21.5125 19.2913 21.6335 18.3912C21.7516 17.5126 21.75 16.3924 21.75 14.9994H20.25C20.25 16.4348 20.2484 17.4359 20.1469 18.1913C20.0482 18.9251 19.8678 19.3136 19.591 19.5904L20.6517 20.6511ZM15 21.7494C16.393 21.7494 17.5132 21.751 18.3918 21.6329C19.2919 21.5119 20.0497 21.253 20.6517 20.6511L19.591 19.5904C19.3142 19.8672 18.9257 20.0476 18.1919 20.1463C17.4365 20.2478 16.4354 20.2494 15 20.2494V21.7494ZM9 21.7494H15V20.2494H9V21.7494ZM3.34835 20.6511C3.95027 21.253 4.70814 21.5119 5.60825 21.6329C6.48678 21.751 7.60699 21.7494 9 21.7494V20.2494C7.56458 20.2494 6.56347 20.2478 5.80812 20.1463C5.07434 20.0476 4.68577 19.8672 4.40901 19.5904L3.34835 20.6511ZM2.25 14.9994C2.25 16.3924 2.24841 17.5126 2.36652 18.3912C2.48754 19.2913 2.74643 20.0492 3.34835 20.6511L4.40901 19.5904C4.13225 19.3136 3.9518 18.9251 3.85315 18.1913C3.75159 17.4359 3.75 16.4348 3.75 14.9994H2.25ZM2.25 12.1339V14.9994H3.75V12.1339H2.25ZM9.25 11.75C9.25 11.1977 9.69772 10.75 10.25 10.75V9.25C8.86929 9.25 7.75 10.3693 7.75 11.75H9.25ZM10.25 12.75C9.69772 12.75 9.25 12.3023 9.25 11.75H7.75C7.75 13.1307 8.86929 14.25 10.25 14.25V12.75ZM9.25 15.25C9.25 14.6977 9.69772 14.25 10.25 14.25V12.75C8.86929 12.75 7.75 13.8693 7.75 15.25H9.25ZM10.25 16.25C9.69772 16.25 9.25 15.8023 9.25 15.25H7.75C7.75 16.6307 8.86929 17.75 10.25 17.75V16.25ZM11.25 15.25C11.25 15.8023 10.8023 16.25 10.25 16.25V17.75C11.6307 17.75 12.75 16.6307 12.75 15.25H11.25ZM11.25 15.25C11.25 16.6307 12.3693 17.75 13.75 17.75V16.25C13.1977 16.25 12.75 15.8023 12.75 15.25H11.25ZM13.75 17.75C15.1307 17.75 16.25 16.6307 16.25 15.25H14.75C14.75 15.8023 14.3023 16.25 13.75 16.25V17.75ZM16.25 15.25C16.25 13.8699 15.1318 12.751 13.7519 12.75L13.7508 14.25C14.3027 14.2504 14.75 14.6979 14.75 15.25H16.25ZM13.7514 12.75H13.75V14.25H13.7514V12.75ZM13.75 14.25C15.1307 14.25 16.25 13.1307 16.25 11.75H14.75C14.75 12.3023 14.3023 12.75 13.75 12.75V14.25ZM16.25 11.75C16.25 10.3699 15.1318 9.25103 13.7519 9.25L13.7508 10.75C14.3027 10.7504 14.75 11.1979 14.75 11.75H16.25ZM13.7514 9.25H13.75V10.75H13.7514V9.25ZM13.75 9.25C12.3693 9.25 11.25 10.3693 11.25 11.75H12.75C12.75 11.1977 13.1977 10.75 13.75 10.75V9.25ZM10.2508 10.75C10.8027 10.7504 11.25 11.1979 11.25 11.75H12.75C12.75 10.3699 11.6318 9.25103 10.2519 9.25L10.2508 10.75ZM10.25 10.75H10.2514V9.25H10.25V10.75ZM11.25 11.75C11.25 13.1307 12.3693 14.25 13.75 14.25V12.75C13.1977 12.75 12.75 12.3023 12.75 11.75H11.25ZM13.75 12.75C12.3693 12.75 11.25 13.8693 11.25 15.25H12.75C12.75 14.6977 13.1977 14.25 13.75 14.25V12.75ZM10.2508 14.25C10.8027 14.2504 11.25 14.6979 11.25 15.25H12.75C12.75 13.8699 11.6318 12.751 10.2519 12.75L10.2508 14.25ZM10.25 14.25H10.2514V12.75H10.25V14.25ZM11.25 11.75C11.25 12.3023 10.8023 12.75 10.25 12.75V14.25C11.6307 14.25 12.75 13.1307 12.75 11.75H11.25Z" fill="#1D9E50"/>
</svg>
