<svg width="15" height="10" viewBox="0 0 10 10" xmlns="http://www.w3.org/2000/svg" fill="#D92C20">
    <path d="M2.75001 2.00001C2.60167 2.00001 2.45667 2.044 2.33333 2.12641C2.20999 2.20882 2.11386 2.32595 2.0571 2.463C2.00033 2.60004 1.98548 2.75084 2.01442 2.89633C2.04336 3.04181 2.11479 3.17545 2.21968 3.28034C2.32457 3.38523 2.4582 3.45666 2.60369 3.4856C2.74918 3.51454 2.89998 3.49968 3.03702 3.44292C3.17407 3.38615 3.2912 3.29002 3.37361 3.16669C3.45602 3.04335 3.50001 2.89834 3.50001 2.75001C3.50001 2.5511 3.42099 2.36033 3.28034 2.21968C3.13969 2.07903 2.94892 2.00001 2.75001 2.00001ZM9.56001 4.35501L5.35501 0.145008C5.30829 0.0986677 5.25288 0.062005 5.19196 0.0371227C5.13104 0.0122404 5.06581 -0.000372089 5.00001 8.35715e-06H0.500008C0.3674 8.35715e-06 0.240223 0.0526868 0.146455 0.146455C0.0526868 0.240223 8.35715e-06 0.3674 8.35715e-06 0.500008V5.00001C-0.000372089 5.06581 0.0122404 5.13104 0.0371227 5.19196C0.062005 5.25288 0.0986677 5.30829 0.145008 5.35501L4.35501 9.56001C4.63626 9.84091 5.01751 9.99869 5.41501 9.99869C5.81251 9.99869 6.19376 9.84091 6.47501 9.56001L9.56001 6.50001C9.84091 6.21876 9.99869 5.83751 9.99869 5.44001C9.99869 5.04251 9.84091 4.66126 9.56001 4.38001V4.35501ZM8.85501 5.76501L5.76501 8.85001C5.67133 8.94313 5.5446 8.99541 5.41251 8.99541C5.28042 8.99541 5.15369 8.94313 5.06001 8.85001L1.00001 4.79501V1.00001H4.79501L8.85501 5.06001C8.90135 5.10673 8.93801 5.16214 8.96289 5.22306C8.98778 5.28397 9.00039 5.34921 9.00001 5.41501C8.99946 5.54618 8.94738 5.67188 8.85501 5.76501Z"></path>
</svg>