<svg width="15" height="10" viewBox="0 0 10 10" xmlns="http://www.w3.org/2000/svg" fill="#978325">
    <path d="M8.5 0H1.5C1.10218 0 0.720644 0.158035 0.43934 0.43934C0.158035 0.720644 0 1.10218 0 1.5V8.5C0 8.89782 0.158035 9.27936 0.43934 9.56066C0.720644 9.84196 1.10218 10 1.5 10H8.5C8.89782 10 9.27936 9.84196 9.56066 9.56066C9.84196 9.27936 10 8.89782 10 8.5V1.5C10 1.10218 9.84196 0.720644 9.56066 0.43934C9.27936 0.158035 8.89782 0 8.5 0ZM4 1H6V2.565L5.275 2.065C5.19336 2.01124 5.09775 1.98258 5 1.98258C4.90225 1.98258 4.80664 2.01124 4.725 2.065L4 2.565V1ZM9 8.5C9 8.63261 8.94732 8.75979 8.85355 8.85355C8.75979 8.94732 8.63261 9 8.5 9H1.5C1.36739 9 1.24021 8.94732 1.14645 8.85355C1.05268 8.75979 1 8.63261 1 8.5V1.5C1 1.36739 1.05268 1.24021 1.14645 1.14645C1.24021 1.05268 1.36739 1 1.5 1H3V3.5C3.00024 3.59045 3.02502 3.67914 3.07168 3.75663C3.11835 3.83411 3.18516 3.89749 3.265 3.94C3.34319 3.98015 3.43057 3.99897 3.51835 3.99458C3.60614 3.9902 3.69121 3.96274 3.765 3.915L5 3.1L6.225 3.915C6.3002 3.96452 6.38738 3.99282 6.47733 3.99691C6.56728 4.00099 6.65666 3.98071 6.73604 3.9382C6.81542 3.8957 6.88184 3.83255 6.9283 3.75542C6.97477 3.67829 6.99954 3.59004 7 3.5V1H8.5C8.63261 1 8.75979 1.05268 8.85355 1.14645C8.94732 1.24021 9 1.36739 9 1.5V8.5Z"></path>
</svg>