<svg width="20" height="20" viewBox="0 0 20 20" fill="none" xmlns="http://www.w3.org/2000/svg">
<path d="M5.83301 7.08301L8.28469 8.53251C9.71401 9.37759 10.2853 9.37759 11.7147 8.53251L14.1663 7.08301" stroke="#1D9E50" stroke-width="1.5" stroke-linecap="round" stroke-linejoin="round"/>
<path d="M1.68013 11.23C1.73461 13.7847 1.76185 15.0619 2.70446 16.0082C3.64706 16.9543 4.95893 16.9872 7.58268 17.0532C9.19974 17.0938 10.8009 17.0938 12.418 17.0532C15.0417 16.9872 16.3536 16.9543 17.2962 16.0082C18.2388 15.0619 18.2661 13.7847 18.3205 11.23C18.3381 10.4086 18.3381 9.59208 18.3205 8.77066C18.2661 6.21604 18.2388 4.93873 17.2962 3.99254C16.3536 3.04635 15.0417 3.01339 12.418 2.94747C10.8009 2.90683 9.19974 2.90683 7.58268 2.94746C4.95893 3.01338 3.64706 3.04633 2.70445 3.99253C1.76184 4.93873 1.73461 6.21603 1.68013 8.77066C1.66261 9.59208 1.66262 10.4086 1.68013 11.23Z" stroke="#1D9E50" stroke-width="1.5" stroke-linejoin="round"/>
</svg>
