<svg width="20" height="20" viewBox="0 0 20 20" fill="none" xmlns="http://www.w3.org/2000/svg">
<path d="M10.0003 18.3337C14.6027 18.3337 18.3337 14.6027 18.3337 10.0003C18.3337 5.39795 14.6027 1.66699 10.0003 1.66699C5.39795 1.66699 1.66699 5.39795 1.66699 10.0003C1.66699 11.1494 1.89955 12.2442 2.32018 13.2401C2.55264 13.7904 2.66888 14.0657 2.68327 14.2737C2.69766 14.4817 2.63644 14.7104 2.51401 15.168L1.66699 18.3337L4.83263 17.4867C5.29023 17.3642 5.51903 17.303 5.72701 17.3174C5.935 17.3317 6.2102 17.448 6.76062 17.6805C7.75653 18.1011 8.85124 18.3337 10.0003 18.3337Z" stroke="#1D9E50" stroke-width="1.25" stroke-linejoin="round"/>
<path d="M7.15647 10.3141L7.88225 9.41267C8.18814 9.03276 8.56626 8.67909 8.59592 8.17322C8.60334 8.04546 8.51351 7.47182 8.33367 6.32456C8.26302 5.87368 7.84206 5.83301 7.47744 5.83301C7.00229 5.83301 6.76472 5.83301 6.5288 5.94077C6.23062 6.07697 5.9245 6.45993 5.85732 6.78078C5.80417 7.03464 5.84367 7.20957 5.92267 7.55942C6.2582 9.04534 7.04535 10.5128 8.26591 11.7334C9.48651 12.954 10.954 13.7412 12.4399 14.0767C12.7898 14.1557 12.9647 14.1952 13.2186 14.142C13.5394 14.0748 13.9223 13.7688 14.0586 13.4705C14.1663 13.2346 14.1663 12.9971 14.1663 12.5219C14.1663 12.1573 14.1257 11.7363 13.6748 11.6657C12.5275 11.4858 11.9539 11.396 11.8261 11.4034C11.3203 11.4331 10.9666 11.8112 10.5867 12.1171L9.68526 12.8428" stroke="#1D9E50" stroke-width="1.25"/>
</svg>
