<svg width="20" height="20" viewBox="0 0 20 20" fill="none" xmlns="http://www.w3.org/2000/svg">
<g clip-path="url(#clip0_1391_7393)">
<path opacity="0.996" fill-rule="evenodd" clip-rule="evenodd" d="M11.8248 0C13.6885 0.328629 14.7077 1.35164 14.8822 3.06902C14.7641 4.81627 13.7629 5.87172 11.8785 6.23547C9.86331 5.99667 8.79054 4.95744 8.66016 3.11774C8.78428 1.30185 9.83916 0.26262 11.8248 0Z" fill="#D2AE70"/>
<path opacity="0.997" fill-rule="evenodd" clip-rule="evenodd" d="M11.825 0C14.0563 0.0616727 15.2899 1.1009 15.526 3.11774C15.4265 4.6121 14.6041 5.61075 13.0586 6.11368C12.6728 6.21248 12.2794 6.25306 11.8786 6.23547C13.7631 5.87172 14.7643 4.81627 14.8823 3.06902C14.7078 1.35164 13.6887 0.328629 11.825 0Z" fill="#EFE1C7"/>
<path fill-rule="evenodd" clip-rule="evenodd" d="M12.0396 1.16895C12.1293 1.21001 12.1919 1.27495 12.2273 1.3638C12.3561 1.69044 12.4902 2.01522 12.6296 2.3381C13.1039 2.40294 13.5777 2.45165 14.051 2.48424C14.0912 2.53953 14.0823 2.58825 14.0242 2.63038C13.6591 2.87649 13.3194 3.14442 13.005 3.43417C13.1657 3.83875 13.273 4.24469 13.3269 4.65204C13.2732 4.68453 13.2196 4.68453 13.166 4.65204C12.8095 4.42951 12.443 4.22652 12.0664 4.04311C11.7235 4.20767 11.3927 4.39439 11.0741 4.60333C10.9923 4.65248 10.9029 4.67684 10.8059 4.6764C10.8739 4.25526 10.9812 3.84119 11.1277 3.43417C10.7737 3.14267 10.4161 2.85038 10.0549 2.55731C10.0627 2.5197 10.0806 2.48721 10.1086 2.45988C10.5753 2.43538 11.0402 2.3948 11.5032 2.3381C11.6724 1.94136 11.8511 1.55165 12.0396 1.16895Z" fill="white"/>
<path opacity="0.983" fill-rule="evenodd" clip-rule="evenodd" d="M11.8518 8.06352C11.9959 8.05553 12.139 8.06366 12.2809 8.08787C12.3792 8.11223 12.4418 8.16908 12.4686 8.25837C12.5044 9.26516 12.5044 10.2719 12.4686 11.2787C12.2004 11.5385 11.9322 11.5385 11.664 11.2787C11.6283 10.2719 11.6283 9.26516 11.664 8.25837C11.7011 8.16825 11.7636 8.10327 11.8518 8.06352Z" fill="#D2AE70"/>
<path opacity="0.938" fill-rule="evenodd" clip-rule="evenodd" d="M5.14681 8.40332C5.25752 8.41243 5.3648 8.43679 5.46864 8.47639C6.19276 9.13404 6.91688 9.79169 7.64099 10.4493C7.79649 10.9417 7.59084 11.1446 7.02415 11.0583C6.30004 10.4006 5.57592 9.74297 4.8518 9.08532C4.67689 8.75397 4.77521 8.52662 5.14681 8.40332Z" fill="#D2AE70"/>
<path opacity="0.938" fill-rule="evenodd" clip-rule="evenodd" d="M18.8246 8.40332C19.3031 8.45549 19.4551 8.68284 19.2806 9.08532C18.5565 9.74297 17.8323 10.4006 17.1082 11.0583C16.5415 11.1446 16.3359 10.9417 16.4914 10.4493C17.2485 9.73713 18.0263 9.05512 18.8246 8.40332Z" fill="#D2AE70"/>
<path fill-rule="evenodd" clip-rule="evenodd" d="M9.75973 12.982C7.72147 14.0375 5.68322 15.0929 3.64496 16.1484C3.2703 15.5656 2.89483 14.981 2.51855 14.3947C3.64348 13.8026 4.76992 13.2099 5.89777 12.6166C6.4887 12.3163 7.1145 12.2188 7.77511 12.3243C8.45299 12.5192 9.11452 12.7384 9.75973 12.982Z" fill="#EFE1C7"/>
<path opacity="0.989" fill-rule="evenodd" clip-rule="evenodd" d="M4.77142 17.9514C4.35541 17.3747 3.97994 16.7739 3.64502 16.1489C5.68328 15.0934 7.72153 14.038 9.75979 12.9825C10.431 13.1612 11.1105 13.3155 11.798 13.4453C12.5112 13.757 12.7079 14.236 12.3881 14.8824C11.2774 14.5653 10.151 14.2812 9.00885 14.0299C8.55067 14.0094 8.39872 14.1961 8.55293 14.5901C8.60136 14.6486 8.66391 14.6892 8.74066 14.7119C9.50774 14.9129 10.2766 15.1078 11.0471 15.2964C11.2609 15.3208 11.4755 15.3289 11.6908 15.3208C12.1972 15.4478 12.6978 15.4073 13.1926 15.199C14.5694 14.4683 15.9461 13.7376 17.3228 13.0069C17.9249 12.6779 18.5685 12.5642 19.2538 12.6659C19.8368 12.8887 20.0781 13.2865 19.9779 13.8594C19.9357 14.125 19.8016 14.3442 19.5756 14.517C17.1797 15.8485 14.7839 17.1801 12.3881 18.5116C11.9191 18.6672 11.4363 18.7159 10.9398 18.6577C9.22212 18.2487 7.50569 17.8346 5.79055 17.4155C5.44072 17.5824 5.10098 17.761 4.77142 17.9514Z" fill="#D4B071"/>
<path opacity="0.985" fill-rule="evenodd" clip-rule="evenodd" d="M1.3922 13.5176C1.49685 13.5768 1.57731 13.658 1.63358 13.7612C2.71994 15.4908 3.79268 17.2283 4.85188 18.9736C4.89978 19.14 4.87296 19.2943 4.77142 19.4364C4.80328 19.459 4.83906 19.4671 4.8787 19.4608C4.55789 19.6553 4.21814 19.8258 3.85957 19.9723C3.59473 20.039 3.37124 19.9822 3.18909 19.8018C2.15208 18.1455 1.11507 16.4892 0.0780651 14.8329C-0.0481405 14.5883 -0.0213214 14.361 0.158523 14.1509C0.557833 13.9175 0.969057 13.7064 1.3922 13.5176Z" fill="#1d9e50"/>
<path fill-rule="evenodd" clip-rule="evenodd" d="M1.39233 13.5183C1.61201 13.4457 1.82656 13.4701 2.03599 13.5913C2.21868 13.8502 2.37959 14.1181 2.51874 14.3951C2.89501 14.9814 3.27048 15.566 3.64514 16.1489C3.98006 16.7738 4.35553 17.3746 4.77155 17.9513C4.97886 18.263 5.15769 18.5877 5.30793 18.9256C5.2883 19.1868 5.1453 19.3654 4.87883 19.4614C4.83919 19.4678 4.80341 19.4597 4.77155 19.4371C4.87309 19.295 4.89991 19.1407 4.85201 18.9743C3.79281 17.229 2.72007 15.4915 1.63371 13.7618C1.57743 13.6587 1.49698 13.5775 1.39233 13.5183Z" fill="#EFE1C7"/>
<path fill-rule="evenodd" clip-rule="evenodd" d="M12.388 14.8833C12.2593 15.1613 12.0269 15.3074 11.6907 15.3218C11.4754 15.3298 11.2609 15.3217 11.0471 15.2974C10.2766 15.1087 9.5077 14.9139 8.74062 14.7128C8.66386 14.6902 8.60132 14.6495 8.55288 14.591C8.39867 14.197 8.55063 14.0103 9.00881 14.0308C10.151 14.2821 11.2774 14.5663 12.388 14.8833Z" fill="#EFE1C7"/>
<path fill-rule="evenodd" clip-rule="evenodd" d="M1.28516 14.4927C1.67665 14.4377 1.8465 14.5839 1.79472 14.9312C1.56229 15.2559 1.32986 15.2559 1.09742 14.9312C1.0461 14.7431 1.10868 14.5969 1.28516 14.4927Z" fill="white"/>
</g>
<defs>
<clipPath id="clip0_1391_7393">
<rect width="20" height="20" fill="white"/>
</clipPath>
</defs>
</svg>
