<svg width="85" height="84" viewBox="0 0 85 84" fill="none" xmlns="http://www.w3.org/2000/svg">
<path d="M42.5 77C38.636 76.9811 35.5031 73.8636 35.465 70H49.465C49.4734 70.9356 49.2963 71.8634 48.9435 72.73C48.0247 74.8367 46.1494 76.3731 43.9035 76.86H43.886H43.8405H43.8055H43.767H43.7425C43.3333 76.9447 42.9175 76.9916 42.5 77ZM70.5 66.5H14.5V59.5L21.5 56V36.75C21.3156 31.8119 22.4308 26.912 24.734 22.54C27.0266 18.4853 30.9454 15.6061 35.5 14.63V7H49.5V14.63C58.5265 16.779 63.5 24.633 63.5 36.75V56L70.5 59.5V66.5ZM77.395 35H70.395C70.0691 25.9487 65.7179 17.5158 58.53 12.005L63.5 7C67.6864 10.2567 71.0688 14.4309 73.3875 19.201C75.785 24.1396 77.1486 29.5157 77.395 35ZM14.5 35H7.5C7.74626 29.5157 9.10993 24.1396 11.5075 19.201C13.8261 14.4309 17.2088 10.2567 21.395 7L26.365 12.005C19.1764 17.5151 14.825 25.9484 14.5 35Z" fill="#1D9E50"/>
</svg>
