<svg width="25" height="24" viewBox="0 0 25 24" fill="none" xmlns="http://www.w3.org/2000/svg">
<path fill-rule="evenodd" clip-rule="evenodd" d="M12.3445 21.6619C8.65273 21.6619 5.5 21.0874 5.5 18.7867C5.5 16.4859 8.63273 14.3619 12.3445 14.3619C16.0364 14.3619 19.1891 16.4653 19.1891 18.7661C19.1891 21.0659 16.0564 21.6619 12.3445 21.6619Z" stroke="#9FA4B2" stroke-width="1.5" stroke-linecap="round" stroke-linejoin="round"/>
<path fill-rule="evenodd" clip-rule="evenodd" d="M12.3375 11.1737C14.7602 11.1737 16.7239 9.21002 16.7239 6.7873C16.7239 4.36457 14.7602 2.40002 12.3375 2.40002C9.91477 2.40002 7.95022 4.36457 7.95022 6.7873C7.94204 9.20184 9.89204 11.1655 12.3066 11.1737C12.3175 11.1737 12.3275 11.1737 12.3375 11.1737Z" stroke="#9FA4B2" stroke-width="1.5" stroke-linecap="round" stroke-linejoin="round"/>
</svg>
