<svg width="24" height="24" viewBox="0 0 24 24" fill="none" xmlns="http://www.w3.org/2000/svg">
<path d="M3 12.1345C3 10.6935 3 9.97294 3.30505 9.34921C3.61011 8.72549 4.17886 8.28313 5.31636 7.39841L8.31636 5.06508C10.0859 3.68877 10.9707 3.00061 12 3.00061C13.0293 3.00061 13.9141 3.68877 15.6836 5.06508L18.6836 7.3984C19.8211 8.28313 20.3899 8.72549 20.6949 9.34921C21 9.97294 21 10.6935 21 12.1345V15C21 17.8285 21 19.2427 20.1213 20.1213C19.2426 21 17.8284 21 15 21H9C6.17157 21 4.75736 21 3.87868 20.1213C3 19.2427 3 17.8285 3 15V12.1345Z" stroke="#9FA4B2" stroke-width="1.5" stroke-linecap="round" stroke-linejoin="round"/>
<path d="M10.25 15.5C10.1119 15.5 10 15.6119 10 15.75C10 15.8881 10.1119 16 10.25 16C10.3881 16 10.5 15.8881 10.5 15.75C10.5 15.612 10.3882 15.5001 10.2502 15.5" stroke="#9FA4B2" stroke-width="1.5" stroke-linecap="round"/>
<path d="M13.75 15.5C13.6119 15.5 13.5 15.6119 13.5 15.75C13.5 15.8881 13.6119 16 13.75 16C13.8881 16 14 15.8881 14 15.75C14 15.612 13.8882 15.5001 13.7502 15.5" stroke="#9FA4B2" stroke-width="1.5" stroke-linecap="round"/>
<path d="M10.25 12C10.1119 12 10 12.1119 10 12.25C10 12.3881 10.1119 12.5 10.25 12.5C10.3881 12.5 10.5 12.3881 10.5 12.25C10.5 12.112 10.3882 12.0001 10.2502 12" stroke="#9FA4B2" stroke-width="1.5" stroke-linecap="round"/>
<path d="M13.75 12C13.6119 12 13.5 12.1119 13.5 12.25C13.5 12.3881 13.6119 12.5 13.75 12.5C13.8881 12.5 14 12.3881 14 12.25C14 12.112 13.8882 12.0001 13.7502 12" stroke="#9FA4B2" stroke-width="1.5" stroke-linecap="round"/>
</svg>
