<svg width="67" height="63" viewBox="0 0 67 63" fill="none" xmlns="http://www.w3.org/2000/svg">
<path d="M14.6667 62.5885C10.582 62.5885 7.11578 61.1658 4.268 58.3205C1.42023 55.4752 -0.0024413 52.0089 3.14465e-06 47.9218C0.00244759 43.8347 1.42511 40.3697 4.268 37.5268C7.11089 34.6839 10.5771 33.26 14.6667 33.2552C18.7562 33.2503 22.2225 34.6742 25.0653 37.5268C27.9082 40.3795 29.3309 43.8445 29.3333 47.9218C29.3358 51.9992 27.9131 55.4654 25.0653 58.3205C22.2176 61.1756 18.7513 62.5983 14.6667 62.5885ZM63.9687 60.8982L40.9273 37.8532C40.2673 38.4178 39.479 38.9593 38.5623 39.4775C37.6457 39.9933 36.7877 40.3917 35.9883 40.6728C35.7268 40.1595 35.442 39.6559 35.134 39.1622C34.826 38.6684 34.5094 38.2186 34.1843 37.8128C37.2594 36.5344 39.8053 34.4957 41.822 31.6968C43.8387 28.8979 44.847 25.6102 44.847 21.8335C44.847 17.0155 43.1603 12.921 39.787 9.55016C36.4137 6.17927 32.318 4.4926 27.5 4.49016C22.682 4.48772 18.5863 6.17438 15.213 9.55016C11.8397 12.9259 10.153 17.0204 10.153 21.8335C10.153 22.5766 10.2153 23.327 10.34 24.0848C10.4647 24.845 10.6052 25.5735 10.7617 26.2702C10.2239 26.297 9.62745 26.4119 8.97234 26.6148C8.31723 26.8177 7.72812 27.0218 7.205 27.2272C6.98989 26.462 6.81634 25.6138 6.68434 24.6825C6.55234 23.7512 6.48756 22.8015 6.49 21.8335C6.49 15.9717 8.52745 11.0046 12.6023 6.93216C16.6772 2.85971 21.6431 0.822271 27.5 0.819826C33.3569 0.817382 38.324 2.85483 42.4013 6.93216C46.4787 11.0095 48.5161 15.9766 48.5137 21.8335C48.5137 24.4613 48.0541 26.9399 47.135 29.2695C46.2159 31.599 45.0462 33.6243 43.626 35.3452L66.5647 58.3022L63.9687 60.8982ZM8.228 56.3625L14.6667 49.9275L21.0833 56.3625L23.1073 54.3605L16.6687 47.9218L23.1073 41.4868L21.1053 39.4812L14.6667 45.9235L8.228 39.4848L6.226 41.4905L12.6647 47.9255L6.226 54.3642L8.228 56.3625Z" fill="#1D9E50"/>
</svg>
