<svg width="18" height="18" viewBox="0 0 18 18" fill="none" xmlns="http://www.w3.org/2000/svg">
<path fill-rule="evenodd" clip-rule="evenodd" d="M8.16699 2.33341C4.94533 2.33341 2.33366 4.94509 2.33366 8.16675C2.33366 11.3884 4.94533 14.0001 8.16699 14.0001C9.73861 14.0001 11.1651 13.3786 12.214 12.3679C12.2359 12.3394 12.2599 12.312 12.2861 12.2858C12.3122 12.2597 12.3396 12.2357 12.3681 12.2137C13.3788 11.1648 14.0003 9.73837 14.0003 8.16675C14.0003 4.94509 11.3887 2.33341 8.16699 2.33341ZM14.0269 12.8482C15.0533 11.5651 15.667 9.93759 15.667 8.16675C15.667 4.02461 12.3091 0.666748 8.16699 0.666748C4.02486 0.666748 0.666992 4.02461 0.666992 8.16675C0.666992 12.3089 4.02486 15.6667 8.16699 15.6667C9.93784 15.6667 11.5653 15.053 12.8484 14.0267L15.9111 17.0893C16.2365 17.4148 16.7641 17.4148 17.0896 17.0893C17.415 16.7639 17.415 16.2363 17.0896 15.9108L14.0269 12.8482Z" fill="#1D9E50"/>
</svg>
