<svg width="18" height="20" viewBox="0 0 18 20" fill="none" xmlns="http://www.w3.org/2000/svg">
<path opacity="0.4" d="M15.6246 2.53424L10.6246 0.340354C9.5903 -0.113453 8.4097 -0.113453 7.3754 0.340364L2.37545 2.53424C0.93093 3.16806 0 4.58228 0 6.14287V12.8572C0 14.4177 0.93094 15.8319 2.37545 16.4658L7.3754 18.6596C8.4097 19.1135 9.5903 19.1135 10.6246 18.6596L15.6246 16.4658C17.0691 15.8319 18 14.4177 18 12.8572V6.14287C18 4.58228 17.0691 3.16806 15.6246 2.53424Z" fill="#D1D2D9"/>
<path d="M9 5C9.27613 5 9.5 5.32708 9.5 5.73055V18.9609C9.16973 19.0531 8.83033 19.0531 8.5 18.9609V5.73055C8.5 5.32708 8.72387 5 9 5Z" fill="#9C9FAF"/>
<path d="M15.4348 2.35726L10.578 0.316586C9.57341 -0.10553 8.42663 -0.10553 7.42196 0.316595L2.56519 2.35726C1.92788 2.62504 1.39349 3.04258 1 3.55459L9.00002 7L17 3.55459C16.6065 3.04258 16.0721 2.62504 15.4348 2.35726Z" fill="#9C9FAF"/>
</svg>
