<svg width="49" height="48" viewBox="0 0 49 48" fill="none" xmlns="http://www.w3.org/2000/svg">
<path opacity="0.996" fill-rule="evenodd" clip-rule="evenodd" d="M24.0312 7.40625C27.2887 8.03869 29.0699 10.0074 29.375 13.3125C29.1687 16.675 27.4187 18.7062 24.125 19.4062C20.6029 18.9467 18.7279 16.9467 18.5 13.4062C18.7169 9.91162 20.5607 7.91166 24.0312 7.40625Z" fill="#FEE076"/>
<path opacity="0.997" fill-rule="evenodd" clip-rule="evenodd" d="M24.0312 7.40625C27.9312 7.52494 30.0874 9.52491 30.5 13.4062C30.3261 16.2821 28.8886 18.204 26.1875 19.1719C25.5131 19.362 24.8256 19.4401 24.125 19.4062C27.4187 18.7062 29.1687 16.675 29.375 13.3125C29.0699 10.0074 27.2887 8.03869 24.0312 7.40625Z" fill="#FFD165"/>
<path fill-rule="evenodd" clip-rule="evenodd" d="M24.4062 9.65625C24.5631 9.73528 24.6725 9.86025 24.7344 10.0313C24.9595 10.6598 25.1939 11.2849 25.4375 11.9063C26.2665 12.031 27.0946 12.1248 27.9219 12.1875C27.9921 12.2939 27.9765 12.3877 27.875 12.4688C27.2368 12.9424 26.6431 13.458 26.0938 14.0156C26.3745 14.7942 26.562 15.5754 26.6562 16.3594C26.5625 16.4219 26.4688 16.4219 26.375 16.3594C25.752 15.9311 25.1114 15.5405 24.4531 15.1875C23.8538 15.5042 23.2756 15.8635 22.7188 16.2656C22.5758 16.3602 22.4195 16.4071 22.25 16.4063C22.3689 15.5958 22.5564 14.7989 22.8125 14.0156C22.1938 13.4546 21.5688 12.8921 20.9375 12.3281C20.9511 12.2558 20.9823 12.1932 21.0312 12.1406C21.847 12.0935 22.6595 12.0154 23.4688 11.9063C23.7645 11.1428 24.077 10.3928 24.4062 9.65625Z" fill="#FCC035"/>
<path opacity="0.983" fill-rule="evenodd" clip-rule="evenodd" d="M24.0781 22.9217C24.33 22.9064 24.5801 22.922 24.8281 22.9686C25 23.0155 25.1094 23.1249 25.1562 23.2967C25.2188 25.2343 25.2188 27.1717 25.1562 29.1092C24.6875 29.6092 24.2187 29.6092 23.75 29.1092C23.6875 27.1717 23.6875 25.2343 23.75 23.2967C23.8147 23.1233 23.924 22.9982 24.0781 22.9217Z" fill="#215946"/>
<path opacity="0.938" fill-rule="evenodd" clip-rule="evenodd" d="M12.3594 23.5781C12.5529 23.5957 12.7404 23.6425 12.9219 23.7188C14.1875 24.9844 15.4531 26.25 16.7187 27.5156C16.9905 28.4632 16.6311 28.8537 15.6406 28.6875C14.375 27.4219 13.1094 26.1562 11.8437 24.8906C11.538 24.2529 11.7099 23.8154 12.3594 23.5781Z" fill="#EFEFEF"/>
<path opacity="0.938" fill-rule="evenodd" clip-rule="evenodd" d="M36.2656 23.5781C37.1019 23.6785 37.3676 24.1161 37.0625 24.8906C35.7969 26.1562 34.5312 27.4219 33.2656 28.6875C32.2752 28.8537 31.9157 28.4632 32.1875 27.5156C33.5109 26.145 34.8702 24.8325 36.2656 23.5781Z" fill="#EFEFEF"/>
<path fill-rule="evenodd" clip-rule="evenodd" d="M20.4219 32.3907C16.8594 34.422 13.2969 36.4532 9.73438 38.4845C9.07953 37.3627 8.42328 36.2377 7.76562 35.1095C9.7318 33.9699 11.7006 32.8293 13.6719 31.6876C14.7047 31.1095 15.7985 30.922 16.9531 31.1251C18.1379 31.5001 19.2942 31.922 20.4219 32.3907Z" fill="#F1CBBC"/>
<path opacity="0.989" fill-rule="evenodd" clip-rule="evenodd" d="M11.7031 41.953C10.976 40.8432 10.3198 39.6869 9.73438 38.4843C13.2969 36.453 16.8594 34.4218 20.4219 32.3905C21.5951 32.7345 22.7826 33.0314 23.9844 33.2811C25.2309 33.881 25.5747 34.8028 25.0156 36.0468C23.0744 35.4366 21.1057 34.8898 19.1094 34.4061C18.3086 34.3667 18.043 34.726 18.3125 35.4843C18.3972 35.5969 18.5065 35.675 18.6406 35.7186C19.9813 36.1055 21.3252 36.4805 22.6719 36.8436C23.0456 36.8904 23.4206 36.9061 23.7969 36.8905C24.682 37.135 25.5569 37.0569 26.4219 36.6561C28.8282 35.2499 31.2343 33.8436 33.6406 32.4374C34.693 31.8044 35.818 31.5856 37.0156 31.7811C38.0346 32.21 38.4565 32.9756 38.2812 34.078C38.2076 34.5892 37.9732 35.0111 37.5781 35.3436C33.3906 37.9061 29.2032 40.4687 25.0156 43.0311C24.1959 43.3305 23.3521 43.4242 22.4844 43.3124C19.4821 42.5252 16.4821 41.7283 13.4844 40.9218C12.8729 41.2429 12.2791 41.5866 11.7031 41.953Z" fill="#F6DCCC"/>
<path opacity="0.985" fill-rule="evenodd" clip-rule="evenodd" d="M5.79687 33.4219C5.97977 33.5359 6.1204 33.6921 6.21875 33.8906C8.11751 37.2192 9.99247 40.563 11.8438 43.9219C11.9275 44.2421 11.8806 44.539 11.7031 44.8125C11.7588 44.856 11.8213 44.8717 11.8906 44.8594C11.3299 45.2338 10.7361 45.5619 10.1094 45.8438C9.64649 45.9721 9.25588 45.8628 8.9375 45.5156C7.125 42.3281 5.3125 39.1406 3.5 35.9531C3.27942 35.4825 3.32629 35.045 3.64062 34.6406C4.33855 34.1916 5.05729 33.7853 5.79687 33.4219Z" fill="#1E5643"/>
<path fill-rule="evenodd" clip-rule="evenodd" d="M5.79688 33.4221C6.18083 33.2825 6.55583 33.3294 6.92188 33.5628C7.24117 34.0609 7.52242 34.5766 7.76562 35.1096C8.42328 36.2379 9.07953 37.3629 9.73438 38.4846C10.3197 39.6873 10.976 40.8436 11.7031 41.9534C12.0655 42.5532 12.378 43.1781 12.6406 43.8284C12.6063 44.3311 12.3564 44.6748 11.8906 44.8596C11.8213 44.8719 11.7588 44.8563 11.7031 44.8128C11.8806 44.5393 11.9275 44.2424 11.8438 43.9221C9.99247 40.5633 8.11751 37.2195 6.21875 33.8909C6.1204 33.6923 5.97977 33.5361 5.79688 33.4221Z" fill="#39A27E"/>
<path fill-rule="evenodd" clip-rule="evenodd" d="M25.0156 36.0469C24.7907 36.5818 24.3845 36.8631 23.7969 36.8906C23.4206 36.9062 23.0456 36.8905 22.6719 36.8438C21.3252 36.4807 19.9814 36.1057 18.6406 35.7187C18.5065 35.6752 18.3972 35.597 18.3125 35.4844C18.043 34.7261 18.3086 34.3668 19.1094 34.4062C21.1057 34.8899 23.0744 35.4367 25.0156 36.0469Z" fill="#F1CBBC"/>
<path fill-rule="evenodd" clip-rule="evenodd" d="M5.60939 35.2971C6.29365 35.1913 6.59052 35.4725 6.50001 36.1408C6.09377 36.7659 5.68751 36.7659 5.28126 36.1408C5.19155 35.7789 5.30093 35.4976 5.60939 35.2971Z" fill="white"/>
</svg>
