<svg width="21" height="20" viewBox="0 0 21 20" fill="none" xmlns="http://www.w3.org/2000/svg">
<g clip-path="url(#clip0_1_38480)">
<path fill-rule="evenodd" clip-rule="evenodd" d="M16.8773 3.49437C15.1231 1.73816 12.7903 0.770561 10.305 0.769531C5.18372 0.769531 1.01579 4.93736 1.01373 10.06C1.01304 11.6975 1.44082 13.296 2.25392 14.705L0.935791 19.5195L5.86121 18.2275C7.21837 18.9678 8.74627 19.3579 10.3012 19.3584H10.3051C15.4257 19.3584 19.5941 15.1902 19.5961 10.0674C19.5971 7.58472 18.6316 5.25047 16.8773 3.49437ZM10.305 17.7893H10.3018C8.9161 17.7887 7.55711 17.4163 6.37128 16.7129L6.08941 16.5454L3.16659 17.3122L3.94673 14.4625L3.76305 14.1703C2.99001 12.9408 2.58179 11.5197 2.58248 10.0605C2.58408 5.80276 6.04844 2.33875 10.308 2.33875C12.3707 2.33943 14.3097 3.14372 15.7677 4.60342C17.2257 6.06311 18.0281 8.00334 18.0274 10.0668C18.0256 14.3249 14.5615 17.7893 10.305 17.7893ZM14.5409 12.0056C14.3088 11.8893 13.1674 11.3279 12.9545 11.2503C12.7419 11.1728 12.5869 11.1342 12.4323 11.3665C12.2775 11.5988 11.8326 12.1218 11.6971 12.2767C11.5616 12.4316 11.4264 12.4511 11.1942 12.3348C10.962 12.2187 10.214 11.9734 9.32717 11.1825C8.63709 10.5669 8.1712 9.8067 8.03571 9.57439C7.90044 9.34184 8.03456 9.22832 8.13756 9.1006C8.38887 8.78852 8.64053 8.46133 8.71789 8.3065C8.79536 8.15154 8.75657 8.01593 8.69843 7.89977C8.64053 7.78362 8.17624 6.64092 7.98283 6.17595C7.79424 5.72345 7.603 5.78456 7.46041 5.77747C7.32514 5.77071 7.1703 5.76934 7.01546 5.76934C6.86074 5.76934 6.6092 5.82736 6.39634 6.05991C6.18359 6.29234 5.58392 6.8539 5.58392 7.99659C5.58392 9.13928 6.41579 10.2432 6.53184 10.3981C6.64788 10.5531 8.16891 12.898 10.4977 13.9035C11.0516 14.1429 11.4839 14.2856 11.8212 14.3926C12.3774 14.5693 12.8833 14.5443 13.2834 14.4846C13.7295 14.4179 14.6568 13.9229 14.8504 13.3807C15.0438 12.8384 15.0438 12.3736 14.9857 12.2767C14.9278 12.1799 14.773 12.1218 14.5409 12.0056Z" fill="#5D35ED"/>
</g>
<defs>
<clipPath id="clip0_1_38480">
<rect width="20" height="20" fill="white" transform="translate(0.166504)"/>
</clipPath>
</defs>
</svg>
