<svg width="22" height="22" viewBox="0 0 22 22" fill="none" xmlns="http://www.w3.org/2000/svg">
<path d="M11 2.54375C13.75 2.54375 14.08 2.55406 15.1669 2.60356C15.8211 2.61128 16.469 2.73152 17.0823 2.959C17.5301 3.1243 17.9351 3.38789 18.2676 3.73038C18.6101 4.06283 18.8736 4.46785 19.0389 4.91563C19.2664 5.52897 19.3867 6.17688 19.3944 6.831C19.4439 7.92 19.4562 8.25 19.4562 11C19.4562 13.75 19.4459 14.08 19.3964 15.1669C19.3887 15.8211 19.2685 16.469 19.041 17.0823C18.8693 17.5269 18.6066 17.9306 18.2696 18.2676C17.9326 18.6045 17.5289 18.8673 17.0844 19.0389C16.471 19.2664 15.8231 19.3867 15.169 19.3944C14.0821 19.4439 13.7555 19.4542 11.0021 19.4542C8.24863 19.4542 7.92206 19.4439 6.83513 19.3944C6.181 19.3867 5.53309 19.2664 4.91975 19.0389C4.47197 18.8736 4.06696 18.6101 3.7345 18.2676C3.39201 17.9351 3.12842 17.5301 2.96312 17.0823C2.73564 16.469 2.61541 15.8211 2.60769 15.1669C2.55612 14.08 2.54375 13.7534 2.54375 11C2.54375 8.24656 2.55406 7.92 2.60356 6.83306C2.61128 6.17894 2.73152 5.53103 2.959 4.91769C3.1249 4.46972 3.3892 4.06468 3.73244 3.73244C4.06489 3.38995 4.46991 3.12636 4.91769 2.96106C5.53103 2.73358 6.17894 2.61334 6.83306 2.60563C7.92 2.55613 8.25 2.54375 11 2.54375ZM11 0.6875C8.19913 0.6875 7.84781 0.699188 6.7485 0.749375C5.89271 0.767506 5.04616 0.930217 4.24462 1.23063C3.55696 1.48943 2.93387 1.89481 2.41862 2.41863C1.89407 2.93367 1.48797 3.55678 1.22856 4.24463C0.928154 5.04616 0.765444 5.89272 0.747313 6.7485C0.699188 7.84781 0.6875 8.19913 0.6875 11C0.6875 13.8009 0.699188 14.1522 0.749375 15.2515C0.767506 16.1073 0.930217 16.9538 1.23062 17.7554C1.49003 18.4432 1.89613 19.0663 2.42069 19.5814C2.93573 20.1059 3.55884 20.512 4.24669 20.7714C5.04822 21.0718 5.89478 21.2346 6.75056 21.2527C7.85056 21.3029 8.20119 21.3146 11.0021 21.3146C13.8029 21.3146 14.1543 21.3029 15.2536 21.2527C16.1093 21.2346 16.9559 21.0718 17.7574 20.7714C18.4422 20.506 19.0641 20.1007 19.5834 19.5814C20.1028 19.0621 20.5081 18.4402 20.7735 17.7554C21.0739 16.9538 21.2366 16.1073 21.2548 15.2515C21.3049 14.1515 21.3166 13.8009 21.3166 11C21.3166 8.19913 21.3049 7.84781 21.2548 6.7485C21.2366 5.89272 21.0739 5.04616 20.7735 4.24463C20.5141 3.55678 20.108 2.93367 19.5834 2.41863C19.0684 1.89407 18.4453 1.48797 17.7574 1.22856C16.9559 0.928154 16.1093 0.765444 15.2536 0.747313C14.1522 0.699188 13.8009 0.6875 11 0.6875Z" fill="#5D35ED"/>
<path d="M11.0001 5.70605C9.95305 5.70605 8.92955 6.01653 8.059 6.59821C7.18845 7.1799 6.50994 8.00667 6.10926 8.97397C5.70859 9.94128 5.60376 11.0057 5.80802 12.0326C6.01228 13.0595 6.51646 14.0027 7.2568 14.7431C7.99715 15.4834 8.9404 15.9876 9.96729 16.1918C10.9942 16.3961 12.0586 16.2913 13.0259 15.8906C13.9932 15.4899 14.82 14.8114 15.4016 13.9409C15.9833 13.0703 16.2938 12.0468 16.2938 10.9998C16.2938 9.59582 15.7361 8.24933 14.7433 7.25656C13.7505 6.26379 12.404 5.70605 11.0001 5.70605V5.70605ZM11.0001 14.4373C10.3202 14.4373 9.65557 14.2357 9.09028 13.858C8.52498 13.4803 8.08439 12.9434 7.82421 12.3153C7.56404 11.6872 7.49596 10.996 7.6286 10.3292C7.76124 9.66237 8.08863 9.04987 8.56937 8.56913C9.05011 8.08838 9.66262 7.76099 10.3294 7.62836C10.9962 7.49572 11.6874 7.56379 12.3155 7.82397C12.9436 8.08414 13.4805 8.52474 13.8582 9.09003C14.2359 9.65533 14.4375 10.3199 14.4375 10.9998C14.4375 11.9115 14.0754 12.7858 13.4307 13.4305C12.7861 14.0751 11.9117 14.4373 11.0001 14.4373Z" fill="#5D35ED"/>
<path d="M16.5048 6.73281C17.1883 6.73281 17.7423 6.17877 17.7423 5.49531C17.7423 4.81186 17.1883 4.25781 16.5048 4.25781C15.8214 4.25781 15.2673 4.81186 15.2673 5.49531C15.2673 6.17877 15.8214 6.73281 16.5048 6.73281Z" fill="#5D35ED"/>
</svg>
