<svg width="12" height="12" viewBox="0 0 12 12" fill="none" xmlns="http://www.w3.org/2000/svg">
<path d="M2 9.9192L2.2961 9.65024L2.291 9.64464L2.2857 9.6392L2 9.9192ZM2.8 10.8V11.2H3.2V10.8H2.8ZM5.6 11.5859L5.61406 11.1862L5.57184 11.985L5.6 11.5859ZM6 6H5.6C5.6 6.10609 5.64214 6.20783 5.71716 6.28284L6 6ZM11.2 6C11.2 8.87192 8.87192 11.2 6 11.2V12C9.31368 12 12 9.31368 12 6H11.2ZM6 0.8C8.87192 0.8 11.2 3.12812 11.2 6H12C12 2.68629 9.31368 0 6 0V0.8ZM6 0C2.68629 0 0 2.68629 0 6H0.8C0.8 3.12812 3.12812 0.8 6 0.8V0ZM2.2857 9.6392C1.36624 8.70096 0.8 7.41699 0.8 6H0C0 7.6347 0.654258 9.11736 1.7143 10.1991L2.2857 9.6392ZM1.7039 10.1881L2.5039 11.069L3.0961 10.531L2.2961 9.65024L1.7039 10.1881ZM6 11.2C5.87491 11.2 5.75092 11.1956 5.62816 11.187L5.57184 11.985C5.71333 11.995 5.8561 12 6 12V11.2ZM6.01406 11.2002L5.61406 11.1862L5.58594 11.9857L5.98594 11.9998L6.01406 11.2002ZM5.6 2.4V6H6.4V2.4H5.6ZM5.71716 6.28284L8.11712 8.68288L8.68288 8.11712L6.28284 5.71716L5.71716 6.28284ZM0 11.2H2.8V10.4H0V11.2ZM3.2 10.8V8H2.4V10.8H3.2Z" fill="#1D9E50"/>
</svg>
