<svg width="21" height="18" viewBox="0 0 21 18" fill="none" xmlns="http://www.w3.org/2000/svg">
<path d="M20.6133 3.52C19.9642 1.42543 18.0261 -0.00178457 15.8333 1.67479e-06H5.83323C3.64041 -0.00173877 1.70233 1.42547 1.05324 3.52C0.908916 4.00018 0.834809 4.49868 0.833252 5.00002V13C0.83426 15.7611 3.07224 17.999 5.83323 18H15.8332C18.5943 17.999 20.8322 15.761 20.8332 13V5.00002C20.8317 4.49868 20.7576 4.00018 20.6133 3.52V3.52ZM5.83323 2.00005H15.8332C17.303 2.00426 18.5546 3.06978 18.7932 4.52003L10.8332 8.86001L2.87324 4.52003C3.11191 3.06978 4.36347 2.00422 5.83323 2.00005V2.00005ZM18.8333 13C18.8284 14.6549 17.4881 15.9952 15.8333 16H5.83323C4.17839 15.9951 2.83806 14.6549 2.83325 13V6.78004L10.3533 10.88C10.6532 11.0404 11.0133 11.0404 11.3132 10.88L18.8333 6.78004V13Z" fill="#5D35ED"/>
</svg>
