<svg width="26" height="26" viewBox="0 0 26 26" fill="none" xmlns="http://www.w3.org/2000/svg">
<path fill-rule="evenodd" clip-rule="evenodd" d="M2.49034 15.1106C2.88512 14.4718 3.5825 14.083 4.33342 14.083C4.53345 14.083 4.77178 14.0827 5.03622 14.0766C4.82227 13.7241 4.63798 13.3519 4.48449 12.9627C3.72369 11.0335 3.77546 8.84544 4.43541 6.7713C4.715 5.89258 5.52014 5.2871 6.44194 5.26236C7.36374 5.23761 8.2002 5.79902 8.52654 6.66148C8.8908 7.62417 9.33356 8.00387 9.83548 8.23243C10.1556 8.37819 10.5566 8.48699 11.0754 8.55919C11.7933 6.07731 14.0343 4.33301 16.7918 4.33301C17.6031 4.33301 18.3737 4.52396 19.0091 4.77747C19.2682 4.88086 19.5306 5.00502 19.7845 5.14937L21.3229 4.90213C22.0934 4.7783 22.871 5.07837 23.3585 5.6877C23.8461 6.29703 23.9683 7.12146 23.6784 7.84602L22.7458 10.1777C22.6708 13.8733 21.6176 16.79 19.6103 18.7974C17.5305 20.8771 14.7407 21.6663 11.9168 21.6663C10.0717 21.6663 8.16502 21.3617 6.5079 20.6989C4.87714 20.0466 3.26121 18.9501 2.39549 17.2186C2.05967 16.547 2.09556 15.7494 2.49034 15.1106ZM20.5834 9.74967L21.6668 7.04134L19.2593 7.42825C19.2405 7.41004 19.2208 7.39184 19.2002 7.37366C18.6977 6.92827 17.717 6.49967 16.7918 6.49967C14.6251 6.49967 13.0001 8.12467 13.0001 10.2913V10.833C12.2146 10.833 11.4924 10.8014 10.8334 10.713C9.82905 10.5782 8.97171 10.3115 8.2614 9.82402C7.50959 9.30802 6.92249 8.5446 6.50008 7.42825C6.11753 8.63055 6.00516 9.81355 6.16296 10.8887C6.32626 12.0012 6.77888 12.9983 7.52084 13.7816C8.09229 14.3849 8.83537 14.8614 9.75008 15.1663C8.98475 15.6766 7.97911 15.9465 7.01611 16.0893C6.9751 16.0954 6.93417 16.1012 6.89334 16.1068C5.85713 16.2497 4.8848 16.2497 4.33342 16.2497C4.76659 17.116 5.54616 17.8091 6.53363 18.3291C8.01577 19.1095 9.96626 19.4997 11.9168 19.4997C16.7918 19.4997 20.5834 16.7913 20.5834 9.74967Z" fill="#5D35ED"/>
</svg>
