<svg width="26" height="26" viewBox="0 0 26 26" fill="none" xmlns="http://www.w3.org/2000/svg">
<path d="M14.0833 23.7795C13.727 23.8149 13.3656 23.833 13 23.833C12.6344 23.833 12.273 23.8149 11.9167 23.7795V15.1663H10.8333C10.235 15.1663 9.75 14.6813 9.75 14.083C9.75 13.4847 10.235 12.9997 10.8333 12.9997H11.9167V10.833C11.9167 9.03808 13.3717 7.58301 15.1667 7.58301H16.25C16.8483 7.58301 17.3333 8.06803 17.3333 8.66634C17.3333 9.26465 16.8483 9.74967 16.25 9.74967H15.1667C14.5684 9.74967 14.0833 10.2347 14.0833 10.833V12.9997H16.25C16.8483 12.9997 17.3333 13.4847 17.3333 14.083C17.3333 14.6813 16.8483 15.1663 16.25 15.1663H14.0833V23.7795Z" fill="#5D35ED"/>
<path fill-rule="evenodd" clip-rule="evenodd" d="M13.0001 21.667C17.7865 21.667 21.6667 17.7868 21.6667 13.0003C21.6667 8.21386 17.7865 4.33366 13.0001 4.33366C8.21361 4.33366 4.33341 8.21386 4.33341 13.0003C4.33341 17.7868 8.21361 21.667 13.0001 21.667ZM13.0001 23.8337C18.9832 23.8337 23.8334 18.9834 23.8334 13.0003C23.8334 7.01724 18.9832 2.16699 13.0001 2.16699C7.017 2.16699 2.16675 7.01724 2.16675 13.0003C2.16675 18.9834 7.017 23.8337 13.0001 23.8337Z" fill="#5D35ED"/>
</svg>
