<svg width="24" height="24" viewBox="0 0 24 24" fill="none" xmlns="http://www.w3.org/2000/svg">
<path d="M5.40925 6.64197C7.71925 6.53297 10.0283 6.41997 12.3393 6.33797C13.4123 6.29997 14.4853 6.26697 15.5583 6.25297C16.5833 6.23997 17.6933 6.10597 18.6563 6.53897C21.9593 8.02597 20.5663 14.001 18.2833 15.775C16.6923 17.011 14.1483 17.103 12.2173 17.053C10.4253 17.008 8.26325 16.803 6.75525 15.729C4.15625 13.878 5.51425 8.83397 5.42925 5.38497C5.48025 3.45497 3.38525 3.14197 3.38525 3.14197" stroke="#1D9E50" stroke-width="1.5" stroke-linecap="round" stroke-linejoin="round"/>
<path d="M12.8853 10.142H15.6583" stroke="#1D9E50" stroke-width="1.5" stroke-linecap="round" stroke-linejoin="round"/>
<path fill-rule="evenodd" clip-rule="evenodd" d="M7.14949 19.7689C7.44949 19.7689 7.69349 20.0129 7.69349 20.3129C7.69349 20.6139 7.44949 20.8579 7.14949 20.8579C6.84849 20.8579 6.60449 20.6139 6.60449 20.3129C6.60449 20.0129 6.84849 19.7689 7.14949 19.7689Z" fill="#1D9E50"/>
<path fill-rule="evenodd" clip-rule="evenodd" d="M7.14949 19.7689C7.44949 19.7689 7.69349 20.0129 7.69349 20.3129C7.69349 20.6139 7.44949 20.8579 7.14949 20.8579C6.84849 20.8579 6.60449 20.6139 6.60449 20.3129C6.60449 20.0129 6.84849 19.7689 7.14949 19.7689Z" stroke="#1D9E50" stroke-width="1.5" stroke-linecap="round" stroke-linejoin="round"/>
<path fill-rule="evenodd" clip-rule="evenodd" d="M17.48 19.7689C17.781 19.7689 18.025 20.0129 18.025 20.3129C18.025 20.6139 17.781 20.8579 17.48 20.8579C17.18 20.8579 16.936 20.6139 16.936 20.3129C16.936 20.0129 17.18 19.7689 17.48 19.7689Z" fill="#1D9E50"/>
<path fill-rule="evenodd" clip-rule="evenodd" d="M17.48 19.7689C17.781 19.7689 18.025 20.0129 18.025 20.3129C18.025 20.6139 17.781 20.8579 17.48 20.8579C17.18 20.8579 16.936 20.6139 16.936 20.3129C16.936 20.0129 17.18 19.7689 17.48 19.7689Z" stroke="#1D9E50" stroke-width="1.5" stroke-linecap="round" stroke-linejoin="round"/>
</svg>
