<svg width="22" height="22" viewBox="0 0 22 22" fill="none" xmlns="http://www.w3.org/2000/svg">
<g clip-path="url(#clip0_1_38414)">
<path d="M18.5941 4.83247C16.2848 4.83247 14.4061 2.95377 14.4061 0.644531C14.4061 0.288528 14.1174 0 13.7616 0H10.3096C9.95364 0 9.66512 0.288528 9.66512 0.644531V14.797C9.66512 16.1546 8.56068 17.259 7.20297 17.259C5.84543 17.259 4.741 16.1546 4.741 14.797C4.741 13.4393 5.84543 12.3349 7.20297 12.3349C7.55898 12.3349 7.8475 12.0464 7.8475 11.6904V8.23842C7.8475 7.88258 7.55898 7.59389 7.20297 7.59389C3.23122 7.59389 0 10.8253 0 14.797C0 18.7688 3.23122 22 7.20297 22C11.1747 22 14.4061 18.7688 14.4061 14.797V8.53249C15.689 9.21646 17.1163 9.57347 18.5941 9.57347C18.9501 9.57347 19.2386 9.28494 19.2386 8.92894V5.47701C19.2386 5.12117 18.9501 4.83247 18.5941 4.83247ZM17.9495 8.25772C16.5735 8.14325 15.2668 7.66254 14.1379 6.85049C13.9417 6.70917 13.6829 6.6897 13.4675 6.80014C13.2523 6.91025 13.1171 7.13181 13.1171 7.37367V14.797C13.1171 18.058 10.4639 20.7109 7.20297 20.7109C3.94205 20.7109 1.28906 18.058 1.28906 14.797C1.28906 11.7538 3.59964 9.23996 6.55844 8.91786V11.1012C4.79605 11.4077 3.45193 12.9482 3.45193 14.797C3.45193 16.8654 5.1346 18.5482 7.20297 18.5482C9.27151 18.5482 10.9542 16.8654 10.9542 14.797V1.28906H13.1546C13.4499 3.79501 15.4436 5.7887 17.9495 6.08394V8.25772Z" fill="#5D35ED" stroke="#5D35ED" stroke-width="0.3"/>
</g>
<defs>
<clipPath id="clip0_1_38414">
<rect width="22" height="22" fill="white"/>
</clipPath>
</defs>
</svg>
