<svg width="22" height="22" viewBox="0 0 22 22" fill="none" xmlns="http://www.w3.org/2000/svg">
<path d="M3.08268 18.0161C3.32794 19.0941 3.59116 19.5406 5.00519 19.3088C5.41664 19.2405 5.9305 19.1552 6.56295 19.2594C7.61224 19.4337 10.3864 22.9679 14.3311 19.8505C15.101 19.3115 15.5215 19.0132 17.0154 19.3061C17.6677 19.4328 18.504 19.2989 18.9128 18.0161C22.8108 17.3144 21.9735 15.1647 20.8056 14.9769C18.7753 14.6454 17.4287 12.5495 17.2849 11.8811C17.4278 11.7931 17.7404 11.6844 17.9399 11.6161C21.2324 10.477 19.3997 7.70462 17.161 8.55987C17.3074 6.22412 17.3496 4.35282 15.4388 2.55878C13.4076 0.657841 10.2696 0.570699 8.22044 1.46996C4.64854 3.03132 4.67639 6.05612 4.8354 8.5958C3.41149 8.05139 2.44574 8.83566 2.29033 9.6397C2.05495 10.9073 3.26595 11.3331 3.98824 11.5874C4.24068 11.6763 4.66201 11.8245 4.7258 11.8721C4.64764 11.9629 4.19486 13.9761 1.51324 14.8655C1.00117 15.0353 0.516953 15.1961 0.306735 15.665C0.181862 15.9453 0.191744 16.2598 0.339076 16.5984C0.701118 17.4393 1.87798 17.8005 3.08268 18.0161V18.0161ZM5.88109 12.6106C6.47402 11.4158 5.69603 10.7645 4.43652 10.3207C4.17061 10.2272 3.6765 10.0529 3.61182 9.89304C3.63428 9.83644 3.81126 9.72325 3.97925 9.72325C4.03136 9.72684 4.18049 9.78434 4.27931 9.82117C8.53936 11.4346 3.513 4.99335 8.76036 2.70072C10.3675 1.99641 12.9315 2.0521 14.518 3.5389C17.0613 5.92496 15.0606 9.40882 16.1638 9.91101C16.949 10.2677 17.7 9.71876 17.9713 9.71067C18.1824 9.71067 18.3666 9.83644 18.3863 9.88136C18.3899 10.0404 17.8338 10.2326 17.5015 10.3476C15.9652 10.8785 15.4855 11.5146 16.3542 13.0984C17.0091 14.2932 18.3944 15.78 20.2289 16.231C18.9415 16.9749 17.9641 16.3199 17.6784 17.4447C17.5311 18.0421 17.4368 18.0215 17.2742 17.99C12.723 17.0988 13.0339 21.826 8.4082 18.7366C6.82977 17.6828 6.52163 17.7951 4.46886 18.0322C4.38262 17.6935 4.32692 17.327 4.20744 17.106C3.88313 16.5059 2.68291 16.8096 1.74232 16.2068C3.62979 15.5608 4.90637 14.8008 5.88109 12.6106V12.6106Z" fill="#5D35ED" stroke="#5D35ED" stroke-width="0.5"/>
</svg>
