<?xml version="1.0" encoding="UTF-8"?>
<svg xmlns="http://www.w3.org/2000/svg" xmlns:xlink="http://www.w3.org/1999/xlink" width="100px" height="40px" viewBox="0 0 100 40" version="1.1">
<defs>
<linearGradient id="linear0" gradientUnits="userSpaceOnUse" x1="0" y1="199.0344" x2="999.41" y2="199.0344" gradientTransform="matrix(0.10006,0,0,0.100462,0,0.00298169)">
<stop offset="0" style="stop-color:rgb(23.137255%,100%,61.568627%);stop-opacity:1;"/>
<stop offset="1" style="stop-color:rgb(23.137255%,100%,78.431373%);stop-opacity:1;"/>
</linearGradient>
</defs>
<g id="surface1">
<path style=" stroke:none;fill-rule:nonzero;fill:url(#linear0);" d="M 92.253906 39.996094 L 7.746094 39.996094 C 3.472656 39.996094 0 36.511719 0 32.210938 L 0 7.777344 C 0 3.488281 3.472656 0.00390625 7.746094 0.00390625 L 92.253906 0.00390625 C 96.539062 0.00390625 100 3.488281 100 7.777344 L 100 32.210938 C 100 36.511719 96.527344 39.996094 92.253906 39.996094 Z M 92.253906 39.996094 "/>
<path style=" stroke:none;fill-rule:nonzero;fill:rgb(16.078431%,16.078431%,16.078431%);fill-opacity:1;" d="M 86.542969 12.691406 L 81.199219 33.195312 L 81.179688 33.234375 L 85.351562 33.234375 L 90.714844 12.691406 Z M 86.542969 12.691406 "/>
<path style=" stroke:none;fill-rule:nonzero;fill:rgb(16.078431%,16.078431%,16.078431%);fill-opacity:1;" d="M 20.363281 24.355469 C 19.8125 24.644531 19.0625 24.816406 18.351562 24.816406 C 16.851562 24.816406 16 24.574219 15.910156 23.359375 L 15.910156 23.28125 C 15.910156 23.230469 15.898438 23.179688 15.898438 23.128906 L 15.898438 19.59375 L 15.910156 19.171875 L 15.910156 16.667969 L 15.898438 16.667969 L 15.898438 15.605469 L 15.910156 15.183594 L 15.910156 12.773438 L 12.1875 13.265625 C 14.707031 12.773438 16.148438 10.773438 16.148438 8.785156 L 16.148438 7.558594 L 11.96875 7.558594 L 11.96875 13.292969 L 11.726562 13.363281 L 11.726562 23.992188 C 11.867188 26.976562 13.828125 28.753906 17.039062 28.753906 C 18.179688 28.753906 19.433594 28.492188 20.390625 28.0625 L 20.414062 28.050781 L 20.414062 24.324219 Z M 20.363281 24.355469 "/>
<path style=" stroke:none;fill-rule:nonzero;fill:rgb(16.078431%,16.078431%,16.078431%);fill-opacity:1;" d="M 21.023438 11.917969 L 9.285156 13.734375 L 9.285156 16.71875 L 21.023438 14.902344 Z M 21.023438 11.917969 "/>
<path style=" stroke:none;fill-rule:nonzero;fill:rgb(16.078431%,16.078431%,16.078431%);fill-opacity:1;" d="M 21.023438 16.289062 L 9.285156 18.105469 L 9.285156 20.960938 L 21.023438 19.140625 Z M 21.023438 16.289062 "/>
<path style=" stroke:none;fill-rule:nonzero;fill:rgb(16.078431%,16.078431%,16.078431%);fill-opacity:1;" d="M 34.179688 17.664062 C 34.011719 14.347656 31.949219 12.378906 28.585938 12.378906 C 26.65625 12.378906 25.054688 13.132812 23.972656 14.550781 C 22.894531 15.964844 22.324219 18.046875 22.324219 20.566406 C 22.324219 23.089844 22.894531 25.179688 23.972656 26.585938 C 25.054688 28 26.65625 28.753906 28.585938 28.753906 C 31.949219 28.753906 34.019531 26.777344 34.179688 23.441406 L 34.179688 28.445312 L 38.363281 28.445312 L 38.363281 12.722656 L 34.179688 13.363281 M 34.402344 20.566406 C 34.402344 23.511719 32.859375 25.410156 30.488281 25.410156 C 28.035156 25.410156 26.574219 23.601562 26.574219 20.566406 C 26.574219 17.523438 28.035156 15.695312 30.488281 15.695312 C 31.679688 15.695312 32.679688 16.15625 33.371094 17.042969 C 34.039062 17.914062 34.402344 19.132812 34.402344 20.566406 Z M 34.402344 20.566406 "/>
<path style=" stroke:none;fill-rule:nonzero;fill:rgb(16.078431%,16.078431%,16.078431%);fill-opacity:1;" d="M 50.558594 12.378906 C 47.1875 12.378906 45.128906 14.347656 44.96875 17.675781 L 44.96875 8.152344 L 40.785156 8.792969 L 40.785156 28.445312 L 44.96875 28.445312 L 44.96875 23.441406 C 45.128906 26.777344 47.199219 28.753906 50.558594 28.753906 C 54.503906 28.753906 56.855469 25.691406 56.855469 20.566406 C 56.855469 15.445312 54.503906 12.378906 50.558594 12.378906 Z M 48.660156 25.410156 C 46.277344 25.410156 44.746094 23.511719 44.746094 20.566406 C 44.746094 19.132812 45.105469 17.914062 45.777344 17.050781 C 46.46875 16.167969 47.46875 15.707031 48.660156 15.707031 C 51.109375 15.707031 52.570312 17.523438 52.570312 20.578125 C 52.570312 23.601562 51.109375 25.410156 48.660156 25.410156 Z M 48.660156 25.410156 "/>
<path style=" stroke:none;fill-rule:nonzero;fill:rgb(16.078431%,16.078431%,16.078431%);fill-opacity:1;" d="M 68.230469 12.378906 C 64.859375 12.378906 62.796875 14.347656 62.636719 17.675781 L 62.636719 8.152344 L 58.453125 8.792969 L 58.453125 28.445312 L 62.636719 28.445312 L 62.636719 23.441406 C 62.796875 26.777344 64.867188 28.753906 68.230469 28.753906 C 72.171875 28.753906 74.523438 25.691406 74.523438 20.566406 C 74.523438 15.445312 72.171875 12.378906 68.230469 12.378906 Z M 66.339844 25.410156 C 63.957031 25.410156 62.425781 23.511719 62.425781 20.566406 C 62.425781 19.132812 62.789062 17.914062 63.457031 17.050781 C 64.148438 16.167969 65.148438 15.707031 66.339844 15.707031 C 68.792969 15.707031 70.253906 17.523438 70.253906 20.578125 C 70.253906 23.601562 68.792969 25.410156 66.339844 25.410156 Z M 66.339844 25.410156 "/>
<path style=" stroke:none;fill-rule:nonzero;fill:rgb(16.078431%,16.078431%,16.078431%);fill-opacity:1;" d="M 74.535156 12.691406 L 78.996094 12.691406 L 82.628906 28.421875 L 78.628906 28.421875 Z M 74.535156 12.691406 "/>
</g>
</svg>
